<svg id="Bridge" xmlns="http://www.w3.org/2000/svg" width="72" height="72" viewBox="0 0 72 72">
  <metadata><?xpacket begin="﻿" id="W5M0MpCehiHzreSzNTczkc9d"?>
<x:xmpmeta xmlns:x="adobe:ns:meta/" x:xmptk="Adobe XMP Core 5.6-c138 79.159824, 2016/09/14-01:09:01        ">
   <rdf:RDF xmlns:rdf="http://www.w3.org/1999/02/22-rdf-syntax-ns#">
      <rdf:Description rdf:about=""/>
   </rdf:RDF>
</x:xmpmeta>
                                                                                                    
                                                                                                    
                                                                                                    
                                                                                                    
                                                                                                    
                                                                                                    
                                                                                                    
                                                                                                    
                                                                                                    
                                                                                                    
                                                                                                    
                                                                                                    
                                                                                                    
                                                                                                    
                                                                                                    
                                                                                                    
                                                                                                    
                                                                                                    
                                                                                                    
                                                                                                    
                           
<?xpacket end="w"?></metadata>
<defs>
    <style>
      .cls-1 {
        fill: #00a9e0;
        fill-opacity: 0;
        stroke: #007da7;
        stroke-linejoin: round;
        stroke-width: 2px;
      }

      .cls-2 {
        fill: #1989af;
        fill-rule: evenodd;
      }
    </style>
  </defs>
  <circle id="Circle" class="cls-1" cx="36" cy="36" r="35"/>
  <path id="Forma_1" data-name="Forma 1" class="cls-2" d="M212.265,1709.8h-0.554V1709a0.717,0.717,0,0,0-.731-0.71H209.9a0.717,0.717,0,0,0-.731.71v0.8h-0.554a0.716,0.716,0,0,0-.73.71v4.5a9.842,9.842,0,0,0-1.156-2.71,12.852,12.852,0,0,0-3.762-3.86,22.532,22.532,0,0,0-23.932,0,12.967,12.967,0,0,0-3.762,3.86,9.715,9.715,0,0,0-1.156,2.71v-4.5a0.716,0.716,0,0,0-.73-0.71h-0.555V1709a0.716,0.716,0,0,0-.73-0.71h-1.086a0.716,0.716,0,0,0-.73.71v0.8H169.73a0.716,0.716,0,0,0-.73.71v9.78a0.722,0.722,0,0,0,.73.71h3.661a0.722,0.722,0,0,0,.73-0.71v-1.52h33.758v1.52a0.722,0.722,0,0,0,.73.71h3.661a0.722,0.722,0,0,0,.73-0.71v-9.78A0.72,0.72,0,0,0,212.265,1709.8Zm-12.354,6.16v-6.04l2.413,6.04h-2.413Zm-5.874,0v-7.12l2.842,7.12h-2.842Zm-5.875,0v-6.84l2.764,6.84h-2.764Zm-5.874,0v-5.76l2.3,5.76h-2.3Zm23.164,0h-1.58l-2.1-5.27A8.8,8.8,0,0,1,205.452,1715.96Zm-7.69-7.35v5.68l-2.542-6.37A18.636,18.636,0,0,1,197.762,1708.61ZM191,1707.5c0.3,0,.6,0,0.892.02v6.97l-2.791-6.91C189.72,1707.53,190.358,1707.5,191,1707.5Zm-4.982.58v7.56l-2.671-6.68A17.629,17.629,0,0,1,186.013,1708.08Zm-5.874,2.67v4.5l-1.336-3.34A11.458,11.458,0,0,1,180.139,1710.75Zm-2.385,2.42,1.114,2.79h-2.33A7.332,7.332,0,0,1,177.754,1713.17Z" transform="translate(-154 -1678)"/>
</svg>
