<svg
 xmlns="http://www.w3.org/2000/svg"
 xmlns:xlink="http://www.w3.org/1999/xlink"
 width="24" height="24" viewBox="0 0 24 24">
<path fill-rule="evenodd"  fill="rgb(255, 255, 255)"
 d="M19.999,0.004 C8.974,0.004 0.004,8.974 0.004,19.999 C0.004,31.024 8.974,39.994 19.999,39.994 C31.024,39.994 39.994,31.024 39.994,19.999 C39.994,8.974 31.024,0.004 19.999,0.004 ZM24.972,20.703 L21.719,20.703 C21.719,25.900 21.719,32.299 21.719,32.299 L16.898,32.299 C16.898,32.299 16.898,25.962 16.898,20.703 L14.607,20.703 L14.607,16.605 L16.898,16.605 L16.898,13.955 C16.898,12.056 17.800,9.090 21.763,9.090 L25.333,9.104 L25.333,13.082 C25.333,13.082 23.163,13.082 22.741,13.082 C22.319,13.082 21.719,13.293 21.719,14.198 L21.719,16.606 L25.392,16.606 L24.972,20.703 Z"/>
</svg>
