<svg id="Family" xmlns="http://www.w3.org/2000/svg" width="72" height="72" viewBox="0 0 72 72">
  <metadata><?xpacket begin="﻿" id="W5M0MpCehiHzreSzNTczkc9d"?>
<x:xmpmeta xmlns:x="adobe:ns:meta/" x:xmptk="Adobe XMP Core 5.6-c138 79.159824, 2016/09/14-01:09:01        ">
   <rdf:RDF xmlns:rdf="http://www.w3.org/1999/02/22-rdf-syntax-ns#">
      <rdf:Description rdf:about=""/>
   </rdf:RDF>
</x:xmpmeta>
                                                                                                    
                                                                                                    
                                                                                                    
                                                                                                    
                                                                                                    
                                                                                                    
                                                                                                    
                                                                                                    
                                                                                                    
                                                                                                    
                                                                                                    
                                                                                                    
                                                                                                    
                                                                                                    
                                                                                                    
                                                                                                    
                                                                                                    
                                                                                                    
                                                                                                    
                                                                                                    
                           
<?xpacket end="w"?></metadata>
<defs>
    <style>
      .cls-1 {
        fill: #00a9e0;
        fill-opacity: 0;
        stroke: #007da7;
        stroke-linejoin: round;
        stroke-width: 2px;
      }

      .cls-2 {
        fill: #007da7;
        fill-rule: evenodd;
      }
    </style>
  </defs>
  <circle id="Circle" class="cls-1" cx="36" cy="36" r="35"/>
  <path id="Forma_1" data-name="Forma 1" class="cls-2" d="M191.338,1522.09a5.045,5.045,0,1,0-4.822-5.04A4.927,4.927,0,0,0,191.338,1522.09Zm8.544,4.28c-0.239-.73-1.605-2.96-5.312-2.99l-7.255.02c-3.6-.2-5.034,1.95-5.259,2.91,0,0-2.43,7.85-2.013,9.67,0.258,1.13,2.194,2.52,4.255,3.54l-2.745,8.47H200.91l-2.67-8.76c1.84-.99,3.456-2.22,3.69-3.25C202.352,1534.14,199.882,1526.37,199.882,1526.37Zm-11.79,8.66a2.7,2.7,0,0,1-1.1.24,2.816,2.816,0,1,1,2.746-2.89,3.258,3.258,0,0,1,1.317-.58v0.01a2.587,2.587,0,0,1,.967,0,47.021,47.021,0,0,1,5.863,2.23,8.138,8.138,0,0,1-6.1,2.69h-0.3a9.218,9.218,0,0,1-.98-0.07C188.647,1536.44,188.115,1535.74,188.092,1535.03Z" transform="translate(-154 -1496)"/>
</svg>
