<svg id="Hammer" xmlns="http://www.w3.org/2000/svg" width="72" height="72" viewBox="0 0 72 72">
  <metadata><?xpacket begin="﻿" id="W5M0MpCehiHzreSzNTczkc9d"?>
<x:xmpmeta xmlns:x="adobe:ns:meta/" x:xmptk="Adobe XMP Core 5.6-c138 79.159824, 2016/09/14-01:09:01        ">
   <rdf:RDF xmlns:rdf="http://www.w3.org/1999/02/22-rdf-syntax-ns#">
      <rdf:Description rdf:about=""/>
   </rdf:RDF>
</x:xmpmeta>
                                                                                                    
                                                                                                    
                                                                                                    
                                                                                                    
                                                                                                    
                                                                                                    
                                                                                                    
                                                                                                    
                                                                                                    
                                                                                                    
                                                                                                    
                                                                                                    
                                                                                                    
                                                                                                    
                                                                                                    
                                                                                                    
                                                                                                    
                                                                                                    
                                                                                                    
                                                                                                    
                           
<?xpacket end="w"?></metadata>
<defs>
    <style>
      .cls-1 {
        fill: #00a9e0;
        fill-opacity: 0;
        stroke: #007da7;
        stroke-linejoin: round;
        stroke-width: 2px;
      }

      .cls-2 {
        fill: #007da7;
        fill-rule: evenodd;
      }
    </style>
  </defs>
  <circle id="Circle" class="cls-1" cx="36" cy="36" r="35"/>
  <path id="Forma_1" data-name="Forma 1" class="cls-2" d="M203.948,1865.62a1.077,1.077,0,0,0,1.052-1.09v-3.54a1.627,1.627,0,0,0-.992-1.43l-11.978-4.41a3.385,3.385,0,0,0-1.993,0l-12.019,4.41a1.653,1.653,0,0,0-1.018,1.43v3.54a1.123,1.123,0,0,0,1.1,1.09H178.7v15.85h-0.6a1.114,1.114,0,0,0-1.1,1.09v1.4a1.071,1.071,0,0,0,1.1,1.04h25.879a1.011,1.011,0,0,0,1.025-1.04v-1.4a1.054,1.054,0,0,0-1.025-1.09H203.2v-15.85h0.751Zm-11.145,0v15.85h-3.5v-15.85h3.5Zm-10.606,0H185.8v15.85H182.2v-15.85Zm17.5,15.85H196.3v-15.85H199.7v15.85Z" transform="translate(-154 -1835)"/>
</svg>
