<svg
 xmlns="http://www.w3.org/2000/svg"
 xmlns:xlink="http://www.w3.org/1999/xlink"
 width="24" height="24" viewBox="0 0 24 24">
<path fill-rule="evenodd"  fill="rgb(255, 255, 255)"
 d="M19.999,39.994 C8.974,39.994 0.005,31.024 0.005,19.999 C0.005,8.974 8.974,0.004 19.999,0.004 C31.024,0.004 39.994,8.974 39.994,19.999 C39.994,31.024 31.024,39.994 19.999,39.994 ZM31.370,17.666 L31.370,13.024 C31.370,10.599 29.399,8.629 26.975,8.629 L13.023,8.629 C10.599,8.629 8.628,10.599 8.628,13.024 L8.628,17.666 L8.628,26.976 C8.628,29.401 10.599,31.372 13.023,31.372 L26.975,31.372 C29.399,31.372 31.370,29.401 31.370,26.976 L31.370,17.666 ZM26.974,29.154 L13.022,29.154 C11.820,29.154 10.843,28.180 10.843,26.976 L10.843,17.666 L14.237,17.666 C13.944,18.386 13.780,19.174 13.780,19.999 C13.780,23.428 16.569,26.219 19.999,26.219 C23.429,26.219 26.218,23.428 26.218,19.999 C26.218,19.174 26.052,18.386 25.758,17.666 L29.153,17.666 L29.153,26.976 C29.153,28.180 28.176,29.154 26.974,29.154 ZM24.883,11.260 L28.237,11.249 L28.739,11.248 L28.739,11.747 L28.739,15.102 L24.897,15.115 L24.883,11.260 ZM19.998,24.002 C17.792,24.002 15.995,22.206 15.995,19.998 C15.996,19.127 16.279,18.322 16.753,17.665 C17.481,16.657 18.663,15.996 19.999,15.996 C21.334,15.996 22.517,16.658 23.245,17.666 C23.718,18.323 24.003,19.128 24.003,19.999 C24.003,22.207 22.204,24.002 19.998,24.002 Z"/>
</svg>
