<svg id="Layer_1" xmlns="http://www.w3.org/2000/svg" width="559.4" height="70.3" viewBox="0 0 559.4 70.3"><style>.st0{fill:#fff;stroke:#fff;stroke-width:.5;stroke-miterlimit:10}.st1{fill:#ff7f5f}</style><title>Asset 3</title><path class="st0" d="M86.3 1.5c0-.2.1-.3.2-.4.1-.2.3-.3.4-.4.2-.1.3-.2.5-.3.2-.1.4-.1.5-.1H96c.3 0 .7.1.9.3l.6.6 1 1.8 16.7 43c.2.3.1.7-.1 1-.3.3-.8.4-1.2.4h-9.1c-.4 0-.8-.1-1.1-.3-.3-.2-.5-.5-.6-.9-.4-1.1-.8-2.2-1.2-3.2l-1.2-3.2h-17c-.4 1.1-.8 2.2-1.2 3.2-.4 1.1-.8 2.1-1.2 3.2-.2.7-.9 1.2-1.6 1.2h-9.4c-.4 0-.7-.1-1-.3-.3-.2-.4-.7-.1-1L86.3 1.5zm5.8 13.6c-.4 1.1-.8 2.2-1.2 3.5s-.8 2.5-1.2 3.8c-.4 1.3-.8 2.5-1.2 3.8-.4 1.2-.8 2.4-1.2 3.5H97l-4.9-14.6zm29.4-13.5c0-.4.2-.7.4-1 .3-.3.7-.4 1.1-.4h11c.7 0 1.4.5 1.5 1.2l8.6 28.8 8.7-28.8c.2-.7.9-1.2 1.6-1.2h10.9c.4 0 .7.2 1 .4.3.3.5.6.5 1 .7 7.4 1.5 14.8 2.3 22.2s1.5 14.7 2.3 22.2v.2c0 .8-.5 1.2-1.4 1.2h-9c-.7.1-1.4-.4-1.5-1.1V46l-2.8-24.5-7.1 24.7c-.1.3-.2.5-.5.8-.2.3-.5.4-.8.4H140c-.3 0-.6-.2-.8-.4-.2-.2-.4-.5-.5-.8l-7.1-24.6-2.7 24.4c0 .9-.6 1.4-1.6 1.4h-9c-.7.1-1.3-.4-1.3-1.1V46l4.5-44.4zm57.1.1c0-.4.1-.8.4-1.1.3-.3.6-.4 1-.4h31.5c.4 0 .8.1 1.1.4.3.3.4.7.4 1.1v7.8c0 .4-.1.7-.4 1-.3.3-.7.5-1.1.5H191v8h15.9c.4 0 .7.1 1 .3.3.2.5.6.4 1v6.9c0 .3-.1.6-.4.9-.3.3-.6.4-1 .4H191v8.1h21.3c.7-.1 1.3.4 1.4 1.1v8.4c0 .2-.1.4-.2.6-.1.6-.5.9-1.3.9H180c-.4 0-.7-.1-1-.3-.3-.3-.4-.6-.4-1V1.7zM240 17.6l7.7-16.4.3-.6.2-.2c.1-.1.2-.1.3-.1.1 0 .2 0 .3-.1H261c.1 0 .3 0 .4.1.1.1.1.2.1.3 0 .3-.2.6-.4.8L246 28.1v17.7c.1.7-.4 1.4-1.1 1.5H235c-.4 0-.7-.1-1-.4-.2-.3-.4-.7-.4-1.1V28.1l-15-26.6c-.2-.2-.4-.5-.4-.8 0-.1 0-.2.1-.3.1-.1.2-.1.4-.1H231l.4.1c.1 0 .2 0 .2.1.1.1.2.2.2.3.1.1.2.3.4.6l7.8 16.2zm31-16.1c0-.2.1-.3.2-.4.1-.2.3-.3.4-.4.2-.1.3-.2.5-.3.2-.1.4-.1.5-.1h8.1c.3 0 .7.1.9.3l.6.6.8 1.8 16.7 43c.2.3.1.7-.1 1-.3.3-.8.4-1.2.4h-9.1c-.4 0-.8-.1-1.1-.3-.3-.2-.5-.5-.6-.9-.4-1.1-.8-2.2-1.2-3.2l-1.2-3.2h-16.8c-.4 1.1-.8 2.2-1.2 3.2s-.8 2.1-1.2 3.2c-.2.7-.9 1.2-1.6 1.2H255c-.4 0-.7-.1-1-.3-.3-.2-.4-.7-.1-1L271 1.5zm5.8 13.6c-.4 1.1-.8 2.2-1.2 3.5s-.8 2.5-1.2 3.8c-.4 1.3-.8 2.5-1.2 3.8-.4 1.2-.8 2.4-1.2 3.5h9.7l-4.9-14.6zm49.9-13.4c0-.4.1-.8.3-1.1.3-.3.6-.4 1-.4h20.3c1.4 0 2.8.2 4.1.6 1.3.4 2.5.9 3.6 1.7 1.1.7 2.1 1.6 2.9 2.5.9 1 1.6 2 2.2 3.2.6 1.1 1.1 2.3 1.4 3.6.8 3.1.6 6.4-.6 9.4-.7 1.8-1.7 3.4-3 4.9-1.3 1.4-2.8 2.6-4.6 3.4-1.8.9-3.9 1.4-5.9 1.4h-9.6V46c0 .9-.5 1.4-1.5 1.4H328c-.4 0-.7-.1-1-.3-.3-.3-.4-.6-.4-1V1.7zm23.8 13.9c0-.6-.1-1.3-.3-1.9-.2-.6-.6-1.2-1-1.7s-1-.9-1.5-1.2c-.6-.3-1.3-.5-2-.5H339v10.6h6.7c.7 0 1.4-.1 2.1-.5.6-.3 1.1-.7 1.5-1.2.4-.5.8-1.1 1-1.7.2-.6.3-1.2.2-1.9zM379 1.5c0-.2.1-.3.2-.4.1-.2.3-.3.4-.4.2-.1.3-.2.5-.3.2-.1.4-.1.5-.1h8.1c.3 0 .7.1.9.3l.6.6.8 1.8 16.7 43c.2.3.1.7-.1 1-.3.3-.8.4-1.2.4h-9.1c-.4 0-.8-.1-1.1-.3-.3-.2-.5-.5-.6-.9-.4-1.1-.8-2.2-1.2-3.2l-1.2-3.2h-16.8c-.4 1.1-.8 2.2-1.2 3.2s-.8 2.1-1.2 3.2c-.2.7-.9 1.2-1.6 1.2H363c-.4 0-.7-.1-1-.3-.3-.2-.4-.7-.1-1L379 1.5zm5.8 13.6c-.4 1.1-.8 2.2-1.2 3.5-.4 1.2-.8 2.5-1.2 3.8-.4 1.3-.8 2.5-1.2 3.8-.4 1.2-.8 2.4-1.2 3.5h9.7l-4.9-14.6zm37 31.6c-.2-.4-.4-.7-.6-1.1-.2-.4-.4-.8-.5-1.1-2.7-7.2-5.4-14.3-8.2-21.4s-5.4-14.2-8.1-21.4v-.5c0-.6.4-.9 1.2-.9h10.2c.8 0 1.4.5 1.6 1.2l9.6 28.9 9-28.9c.2-.7.9-1.2 1.7-1.2H448c.4 0 .7.1 1 .3.2.2.3.4.3.7v.5L443.7 18l4.2 12.5 10.3-28.9c.2-.8 1-1.3 1.8-1.2h10c.4 0 .7.1 1 .3.2.2.3.4.3.7v.5c-1.4 3.7-2.9 7.4-4.4 11.1l-4.5 11.1-4.5 11.1c-1.5 3.7-2.9 7.4-4.4 11.1-.1.3-.3.6-.6.8-.3.3-.7.4-1.1.4H444c-.4 0-.7-.1-1-.3-.2-.2-.4-.4-.5-.7l-5-13.2-2.1 5.7c-.7 1.9-1.4 3.7-2.1 5.7-.1.3-.2.6-.4.9-.1.3-.3.6-.5.9-.2.3-.4.5-.6.7-.2.2-.5.3-.8.3h-7.8c-.6 0-1.2-.3-1.4-.8zm63.4-45.2c0-.2.1-.3.2-.4.1-.2.3-.3.4-.4.2-.1.3-.2.5-.3.2-.1.4-.1.6-.1h8.1c.3 0 .7.1.9.3l.6.6.7 1.8L514 46c.2.3.1.7-.1 1-.3.3-.8.4-1.2.4h-9.1c-.4 0-.8-.1-1.1-.3-.3-.2-.5-.5-.6-.9-.4-1.1-.8-2.2-1.2-3.2l-1.2-3.2h-16.8c-.4 1.1-.8 2.2-1.2 3.2-.4 1.1-.8 2.1-1.2 3.2-.2.7-.9 1.2-1.6 1.2h-9.4c-.4 0-.7-.1-1-.3-.3-.2-.4-.7-.1-1l17-44.6zm5.8 13.6c-.4 1.1-.8 2.2-1.2 3.5s-.8 2.5-1.2 3.8c-.4 1.3-.8 2.5-1.2 3.8-.4 1.2-.8 2.4-1.2 3.5h9.7L491 15.1zm29.4-13.4c0-.4.1-.8.3-1.1.3-.3.6-.4 1-.4h20.5c2.1 0 4.2.4 6.1 1.2 1.9.8 3.6 1.9 5 3.3s2.6 3.1 3.3 4.9c.8 1.9 1.2 3.9 1.2 6 0 1.4-.2 2.8-.6 4.1-.4 1.3-.9 2.5-1.6 3.6-.7 1.1-1.5 2.2-2.5 3.1-1 .9-2 1.7-3.2 2.4l8.2 15.4c.1.3.3.6.6 1 .2.3.3.6.3 1 0 .3-.1.6-.3.8-.3.2-.6.3-.9.3H547c-.4 0-.7-.1-1-.3-.3-.2-.5-.5-.6-.9l-7.7-14.5h-5.1V46c0 .9-.5 1.4-1.5 1.4h-9.4c-.4 0-.7-.1-1-.3-.3-.3-.4-.6-.4-1l.1-44.4zm24.8 14.1c0-.6-.1-1.3-.3-1.9-.2-.6-.6-1.2-1-1.8-.4-.5-.9-1-1.5-1.3-.6-.4-1.3-.6-2-.7l-1.6-.1h-6.1v11.6h6.8l1-.1c.7-.1 1.4-.3 2-.6.6-.3 1.1-.8 1.5-1.3.4-.5.7-1.1.9-1.8.2-.6.3-1.3.3-2z"/><path class="st1" d="M331.2 58.2v-.1l.1-.1.1-.1h2.2c.1 0 .2 0 .2.1.1 0 .1.1.1.2l.2.5 4.3 11.1c.1.1.1.2 0 .3-.1.1-.2.1-.3.1H336c-.1 0-.2 0-.3-.1l-.2-.2-.3-.8-.3-.8h-4.4l-.3.8-.3.8c-.1.2-.2.3-.4.3H327c-.1 0-.2 0-.3-.1-.1-.1-.1-.2 0-.2l4.5-11.7zm1.5 3.6l-.3.9-.3 1-.3 1-.3.9h2.5l-1.3-3.8zm12.8-3.5c0-.1 0-.2.1-.3.1-.1.2-.1.3-.1h2.7c.1 0 .2 0 .2.1.1 0 .2.1.2.2l2 3.3 2.1 3.3v-6.6c0-.1.1-.2.1-.2.1-.1.1-.1.2-.1h2.4c.1 0 .2 0 .3.1.1.1.1.2.1.3v11.5c0 .1 0 .2-.1.2-.1.1-.2.1-.3.1h-2.6c-.1 0-.1 0-.2-.1l-.2-.2-2.2-3.6-2.2-3.6v7.1c0 .2-.1.3-.3.4h-2.4c-.1 0-.2 0-.3-.1-.1-.1-.1-.2-.1-.2l.2-11.5zm13.4 0c0-.1 0-.2.1-.3.1-.1.2-.1.3-.1h8.2c.1 0 .2 0 .3.1.1.1.1.2.1.3v2c0 .1 0 .2-.1.3-.1.1-.2.1-.3.1h-5.3v2h4.1c.1 0 .2 0 .3.1.1.1.1.2.1.2v1.9c0 .1 0 .2-.1.2-.1.1-.2.1-.3.1h-4.1v2.1h5.5c.2 0 .3.1.4.3v2.2c0 .1 0 .1-.1.2 0 .2-.1.2-.3.2h-8.3c-.1 0-.2 0-.3-.1-.1-.1-.1-.2-.1-.3l-.1-11.5zM373.4 70l-.2-.3c0-.1-.1-.2-.1-.3-.7-1.9-1.4-3.7-2.1-5.5l-2.1-5.5v-.2c0-.2.1-.2.3-.2h2.6c.2 0 .4.1.4.3l2.5 7.5 2.3-7.5c.1-.2.2-.3.5-.3h2.7c.1 0 .2 0 .3.1.1 0 .1.1.1.2v.1l-1.5 4.2 1.1 3.2 2.7-7.5c.1-.2.2-.3.5-.3h2.6c.1 0 .2 0 .3.1.1 0 .1.1.1.2v.1c-.4 1-.8 1.9-1.1 2.9L384 64l-1.2 3c-.4 1-.8 1.9-1.1 2.9 0 .1-.1.1-.1.2-.1.1-.2.1-.3.1h-2c-.1 0-.2 0-.3-.1-.1 0-.1-.1-.1-.2l-1.3-3.4-.5 1.5c-.2.5-.4 1-.5 1.5l-.1.2c0 .1-.1.2-.1.2 0 .1-.1.1-.2.2-.1 0-.1.1-.2.1h-2c-.4 0-.5-.1-.6-.2zm30.1-5.9c0 .6-.1 1.1-.2 1.7-.1.5-.4 1-.6 1.5-.5.9-1.3 1.7-2.2 2.2-.5.3-1 .5-1.5.6-.5.1-1.1.2-1.7.2h-4.1c-.1 0-.2 0-.3-.1-.1-.1-.1-.2-.1-.3V58.3c0-.1 0-.2.1-.3.1-.1.2-.1.3-.1h4.1c.6 0 1.1.1 1.7.2.5.1 1 .3 1.5.6s.9.6 1.3 1 .7.8 1 1.2c.3.5.5 1 .6 1.5.1.5.1 1.1.1 1.7zm-7.5-3.2v6.3h1.5c.4 0 .8-.1 1.1-.3.3-.2.7-.4.9-.7.3-.3.5-.6.6-1 .2-.4.2-.8.2-1.2 0-.4-.1-.9-.3-1.3-.3-.8-1-1.4-1.8-1.7-.4-.2-.8-.2-1.3-.2l-.9.1zm9.7-2.6c0-.1 0-.2.1-.3.1-.1.2-.1.3-.1h8.2c.1 0 .2 0 .3.1.1.1.1.2.1.3v2c0 .1 0 .2-.1.3-.1.1-.2.1-.3.1H409v2h4.1c.1 0 .2 0 .3.1.1.1.1.2.1.2v1.8c0 .1 0 .2-.1.2-.1.1-.2.1-.3.1H409v2.1h5.5c.2 0 .3.1.4.3v2.2c0 .1 0 .1-.1.2 0 .2-.1.2-.3.2H406c-.1 0-.2 0-.3-.1-.1-.1-.1-.2-.1-.3l.1-11.4zm14.6-.1v-.1l.1-.1.1-.1h2.2c.1 0 .2 0 .2.1.1 0 .1.1.1.2l.2.5 4.3 11.1c.1.1.1.2 0 .3-.1.1-.2.1-.3.1h-2.4c-.1 0-.2 0-.3-.1l-.2-.2-.4-.9-.3-.8h-4.4l-.3.8-.3.8c-.1.2-.2.3-.4.3h-2.4c-.1 0-.2 0-.3-.1-.1-.1-.1-.2 0-.2l4.8-11.6zm1.5 3.6l-.3.9-.3 1-.3 1-.3.9h2.5l-1.3-3.8zm7.3-3.5c0-.1 0-.2.1-.3.1-.1.2-.1.3-.1h2.4c.1 0 .2 0 .3.1.1.1.1.2.1.3v9h4.5c.1 0 .2 0 .3.1.1.1.1.2.1.3v2.2c0 .1 0 .2-.1.3-.1.1-.2.1-.3.1h-7.4c-.2 0-.3-.1-.4-.3v-.1l.1-11.6zm15.3 0c0-.1 0-.2.1-.3.1-.1.1-.1.2-.1h7.9c.1 0 .2 0 .3.1.1.1.1.2.1.3v2c0 .1 0 .2-.1.3-.1.1-.2.1-.3.1h-5v2.5h3.7c.1 0 .2 0 .3.1.1.1.1.2.1.3v2c0 .1 0 .2-.1.3-.1.1-.2.1-.3.1h-3.7v3.8c0 .2-.1.3-.4.3h-2.5c-.2 0-.3-.1-.3-.3V58.3zm10 5.8c0-1.1.3-2.2.9-3.2.3-.5.6-.9 1-1.3s.8-.7 1.3-1c.5-.3 1-.5 1.5-.6 1.1-.3 2.3-.3 3.4 0 .5.1 1 .4 1.5.6.9.5 1.7 1.3 2.3 2.3.3.5.5 1 .6 1.5.3 1.1.3 2.3 0 3.4-.1.5-.4 1-.6 1.5-.3.5-.6.9-1 1.3s-.8.7-1.3 1c-.5.3-1 .5-1.5.6-2.2.6-4.5 0-6.1-1.6-.4-.4-.7-.8-1-1.3-.3-.5-.5-1-.6-1.5-.4-.6-.4-1.2-.4-1.7zm3.2 0c0 .4.1.9.2 1.3.2.4.4.7.6 1 .3.3.6.5 1 .7.8.3 1.7.3 2.5 0 .4-.2.7-.4 1-.7.3-.3.5-.6.6-1 .3-.8.3-1.7 0-2.5-.2-.4-.4-.7-.6-1-.3-.3-.6-.5-1-.7-1.2-.5-2.6-.3-3.5.7-.3.3-.5.6-.6 1-.1.3-.2.7-.2 1.2zm11.4-5.8c0-.1 0-.2.1-.3.1-.1.2-.1.3-.1h5.3c.5 0 1.1.1 1.6.3.5.2.9.5 1.3.9s.7.8.9 1.3c.2.5.3 1 .3 1.5 0 .4 0 .7-.1 1.1-.1.3-.2.7-.4 1-.2.3-.4.6-.6.8-.2.2-.5.4-.8.6l2.1 4 .1.3c.1.1.1.2.1.3 0 .1 0 .2-.1.2s-.1.1-.2.1h-2.8c-.1 0-.2 0-.2-.1-.1-.1-.1-.1-.1-.2l-2-3.8h-1.3v3.7c0 .2-.1.3-.4.3h-2.5c-.1 0-.2 0-.3-.1-.1-.1-.1-.2-.1-.3l-.2-11.5zm6.5 3.7c0-.2 0-.3-.1-.5s-.1-.3-.3-.5c-.1-.1-.2-.3-.4-.3-.2-.1-.3-.2-.5-.2h-2v3h2.1c.2 0 .4-.1.5-.2.2-.1.3-.2.4-.3.1-.1.2-.3.2-.5.1-.1.1-.3.1-.5zm10.3-3.7c0-.1 0-.2.1-.3.1-.1.2-.1.3-.1h2.4c.1 0 .2 0 .3.1.1.1.1.2.1.3v11.5c0 .2-.1.4-.4.4h-2.4c-.2 0-.3-.1-.4-.3V58.3zm5.5 0c0-.1 0-.2.1-.3.1-.1.2-.1.3-.1h2.4c.1 0 .2 0 .3.1.1.1.1.2.1.3v9h4.5c.1 0 .2 0 .3.1.1.1.1.2.1.3v2.2c0 .1 0 .2-.1.3-.1.1-.2.1-.3.1h-7.4c-.2 0-.3-.1-.4-.3v-.1l.1-11.6zm9.7 0c0-.1 0-.2.1-.3.1-.1.2-.1.3-.1h2.4c.1 0 .2 0 .3.1.1.1.1.2.1.3v9h4.5c.1 0 .2 0 .3.1.1.1.1.2.1.3v2.2c0 .1 0 .1-.1.2s-.2.1-.3.1h-7.4c-.2 0-.3-.1-.4-.3v-.1l.1-11.5zm10.1 0c0-.1 0-.2.1-.3.1-.1.2-.1.3-.1h2.4c.1 0 .2 0 .3.1.1.1.1.2.1.3v11.5c0 .2-.1.4-.4.4h-2.4c-.2 0-.3-.1-.4-.3V58.3zm5.8 0c0-.1 0-.2.1-.3.1-.1.2-.1.3-.1h2.7c.1 0 .2 0 .2.1.1 0 .2.1.2.2l2.1 3.3 2.1 3.3v-6.6c0-.1.1-.2.1-.2.1-.1.1-.1.2-.1h2.3c.1 0 .2 0 .3.1.1.1.1.2.1.3v11.6c0 .1 0 .2-.1.2-.1.1-.2.1-.3.1h-2.6c-.1 0-.1 0-.2-.1l-.2-.2-2.2-3.6-2.2-3.6v7.1c0 .2-.1.3-.3.4h-2.4c-.1 0-.2 0-.3-.1-.1-.1-.1-.2-.1-.2l.2-11.6zm12.9 5.8c0-1.1.3-2.2.9-3.2.3-.5.6-.9 1-1.3s.8-.7 1.3-1c.5-.3 1-.5 1.5-.6 1.1-.3 2.3-.3 3.3 0 .5.1 1 .4 1.5.6.9.5 1.7 1.3 2.3 2.3.3.5.5 1 .6 1.5.3 1.1.3 2.3 0 3.3-.1.5-.4 1-.6 1.5-.3.5-.6.9-1 1.3s-.8.7-1.3 1c-.5.3-1 .5-1.5.6-2.2.6-4.5 0-6.1-1.6-.4-.4-.7-.8-1-1.3-.3-.5-.5-1-.6-1.5-.2-.5-.3-1.1-.3-1.6zm3.2-.1c0 .4.1.9.2 1.3.2.4.4.7.7 1 .3.3.6.5 1 .7.8.3 1.7.3 2.5 0 .4-.2.7-.4 1-.7.3-.3.5-.6.7-1 .3-.8.3-1.7 0-2.5-.2-.4-.4-.7-.7-1-.3-.3-.6-.5-1-.7-1.2-.5-2.6-.3-3.5.7-.3.3-.5.6-.7 1-.1.3-.2.8-.2 1.2zm11.5-5.7c0-.1 0-.2.1-.3.1-.1.2-.1.3-.1h2.4c.1 0 .2 0 .3.1.1.1.1.2.1.3v11.5c0 .2-.1.4-.4.4h-2.4c-.2 0-.3-.1-.4-.3V58.3zm7.4 7.9l.4.3c.2.1.3.3.5.4.3.2.5.3.8.4.3.1.6.2.9.2.2 0 .5 0 .7-.1.2 0 .3-.1.5-.2.1-.1.2-.2.2-.4 0-.1.1-.3.1-.4 0-.2-.1-.3-.2-.5-.1-.1-.3-.3-.5-.4l-.6-.3-.5-.2c-.6-.2-1.2-.4-1.7-.7-.5-.2-.9-.5-1.2-.9-.3-.3-.6-.7-.7-1.1-.2-.4-.3-.9-.2-1.3 0-.5.1-1 .3-1.4.2-.4.5-.8.9-1.1.4-.3.9-.5 1.4-.7.6-.2 1.2-.2 1.8-.2.5 0 1 .1 1.4.2.5.1.9.3 1.3.5.2.1.4.2.5.3.2.1.3.2.4.3l.3.3c.1.1.1.2.1.3v.2c0 .1-.1.1-.2.2l-1.3 1.3c-.1.1-.2.1-.3.1-.1 0-.1 0-.2-.1l-.2-.2-.1-.1-.4-.3c-.1-.1-.3-.2-.4-.3-.2-.1-.3-.1-.5-.2s-.3-.1-.5-.1h-.5c-.1 0-.3.1-.4.1l-.3.3c-.1.2-.1.5 0 .8l.3.3.6.3.8.3c.6.2 1.1.4 1.6.6.5.2.9.4 1.3.8.3.3.6.6.8 1 .2.5.3 1 .3 1.5 0 .6-.1 1.1-.4 1.6-.2.5-.6.9-1 1.3-.5.4-1 .6-1.5.8-.6.2-1.2.3-1.9.3-.6 0-1.3-.1-1.9-.3-.6-.2-1.2-.5-1.7-.9-.2-.1-.4-.3-.6-.5l-.4-.4c-.1-.1-.2-.2-.2-.3 0-.1.1-.2.2-.3l1.4-1.4c.1-.1.2-.1.3-.1h.2l.2.4zM45.2 38.8v-8.4l-.4.1.4-.1c-2.5-6.8-4.9-13.7-7.4-20.4-.5-1.4-1.3-2.7-1.8-2.8C24.5 4.8 12.9 2.5 1.4.2.9.3.5.3 0 .4c2.4 4.4 4.4 8.1 6.4 11.4C7 13.1 8 14.2 9.1 15c9.2 5.1 18.4 10 27.6 15 1.4.8 2.8 1.7 4.2 2.5 0 0 .1 0 .1 1.1L10.9 20.9l.1 1.6c2.3 2.5 4.7 6.5 6.8 7.3 4.4 1.8 8.7 2 13 2.8 4.2.8 8.3 1.7 12.5 2.5l.1.9-22.8-.3c1.7 1.7 3.6 3.2 5.6 4.6 2.4 1.9 4.5 2.3 6.5 1.3 3.8-1.9 7.8-3.1 11.7-4.5l.1.7-11.3 7.1c1.6 1.5 3.2 2.7 4.6 2.5s2.5-1.9 3.7-3.2 2.2-3 3.3-4.5"/></svg>