<svg id="School" xmlns="http://www.w3.org/2000/svg" width="72" height="72" viewBox="0 0 72 72">
  <metadata><?xpacket begin="﻿" id="W5M0MpCehiHzreSzNTczkc9d"?>
<x:xmpmeta xmlns:x="adobe:ns:meta/" x:xmptk="Adobe XMP Core 5.6-c138 79.159824, 2016/09/14-01:09:01        ">
   <rdf:RDF xmlns:rdf="http://www.w3.org/1999/02/22-rdf-syntax-ns#">
      <rdf:Description rdf:about=""/>
   </rdf:RDF>
</x:xmpmeta>
                                                                                                    
                                                                                                    
                                                                                                    
                                                                                                    
                                                                                                    
                                                                                                    
                                                                                                    
                                                                                                    
                                                                                                    
                                                                                                    
                                                                                                    
                                                                                                    
                                                                                                    
                                                                                                    
                                                                                                    
                                                                                                    
                                                                                                    
                                                                                                    
                                                                                                    
                                                                                                    
                           
<?xpacket end="w"?></metadata>
<defs>
    <style>
      .cls-1 {
        fill: #00a9e0;
        fill-opacity: 0;
        stroke: #007da7;
        stroke-linejoin: round;
        stroke-width: 2px;
      }

      .cls-2 {
        fill: #007da7;
        fill-rule: evenodd;
      }
    </style>
  </defs>
  <circle id="Circle" class="cls-1" cx="36" cy="36" r="35"/>
  <path id="Forma_1" data-name="Forma 1" class="cls-2" d="M175,1356.41a3.62,3.62,0,0,0,3.642,3.59h26.335v-1.59h-1.686v-3.99h1.686v-0.7H207v-1.59h-1.214v-3.99H207v-1.59h-1.315v-1.36l-2-3.69h2.1v-2.14l-5.281-6.36H181.872l-4.805,7.46a3.55,3.55,0,0,0-1.359,2.77,3.574,3.574,0,0,1,1.315,6.91,3.549,3.549,0,0,0,1.3,2.72A3.6,3.6,0,0,0,175,1356.41Zm2.327-13.18a1.984,1.984,0,0,1,1.034-1.73h24.12v3.72H179.35A2.007,2.007,0,0,1,177.327,1343.23Zm3.338,4.91h23.5v3.99h-23.5A2,2,0,1,1,180.665,1348.14Zm-2.023,6.28h23.03v3.99h-23.03A2,2,0,1,1,178.642,1354.42Z" transform="translate(-154 -1312)"/>
</svg>
