<svg
 xmlns="http://www.w3.org/2000/svg"
 xmlns:xlink="http://www.w3.org/1999/xlink"
 width="48" height="48" viewBox="0 0 48 48">
<path fill-rule="evenodd"  fill="rgb(255, 255, 255)"
 d="M19.999,0.004 C8.974,0.004 0.005,8.974 0.005,19.999 C0.005,31.024 8.974,39.994 19.999,39.994 C31.024,39.994 39.994,31.024 39.994,19.999 C39.994,8.974 31.024,0.004 19.999,0.004 ZM28.919,15.423 C28.928,15.621 28.932,15.821 28.932,16.020 C28.932,22.102 24.304,29.114 15.838,29.114 C13.239,29.114 10.819,28.353 8.783,27.046 C9.143,27.089 9.510,27.111 9.881,27.111 C12.038,27.111 14.021,26.375 15.597,25.141 C13.583,25.104 11.883,23.773 11.298,21.944 C11.578,21.999 11.867,22.027 12.163,22.027 C12.582,22.027 12.990,21.971 13.376,21.866 C11.270,21.443 9.684,19.584 9.684,17.354 C9.684,17.335 9.684,17.315 9.685,17.296 C10.305,17.640 11.015,17.848 11.769,17.871 C10.535,17.047 9.722,15.638 9.722,14.042 C9.722,13.198 9.949,12.407 10.345,11.727 C12.614,14.512 16.006,16.343 19.830,16.537 C19.751,16.199 19.712,15.849 19.712,15.487 C19.712,12.946 21.772,10.885 24.314,10.885 C25.637,10.885 26.833,11.444 27.672,12.338 C28.721,12.132 29.706,11.750 30.596,11.221 C30.251,12.296 29.522,13.198 28.571,13.768 C29.503,13.657 30.390,13.410 31.214,13.044 C30.599,13.965 29.818,14.776 28.919,15.423 Z"/>
</svg>
