<svg xmlns="http://www.w3.org/2000/svg" width="48" height="48" viewBox="0 0 41 41"><path fill-rule="evenodd" fill="#FFF" d="M19.999.004C8.974.004.005 8.974.005 19.999s8.969 19.995 19.994 19.995 19.995-8.97 19.995-19.995S31.024.004 19.999.004zm8.92 15.419c.009.198.013.398.013.597 0 6.082-4.628 13.094-13.094 13.094-2.599 0-5.019-.761-7.055-2.068a9.237 9.237 0 0 0 6.814-1.905 4.606 4.606 0 0 1-4.299-3.197 4.623 4.623 0 0 0 2.078-.078 4.604 4.604 0 0 1-3.692-4.512l.001-.058c.62.344 1.33.552 2.084.575a4.598 4.598 0 0 1-2.047-3.829c0-.844.227-1.635.623-2.315a13.07 13.07 0 0 0 9.485 4.81 4.599 4.599 0 0 1-.118-1.05 4.602 4.602 0 0 1 7.96-3.149 9.177 9.177 0 0 0 2.924-1.117 4.623 4.623 0 0 1-2.025 2.547 9.17 9.17 0 0 0 2.643-.724 9.303 9.303 0 0 1-2.295 2.379z"/></svg>