<svg 
 xmlns="http://www.w3.org/2000/svg"
 xmlns:xlink="http://www.w3.org/1999/xlink"
 width="0.556in" height="0.556in">
<path fill-rule="evenodd"  fill="rgb(255, 255, 255)"
 d="M20.000,39.999 C8.956,39.999 0.001,31.046 0.001,20.000 C0.001,8.955 8.956,0.001 20.000,0.001 C31.045,0.001 39.999,8.955 39.999,20.000 C39.999,31.046 31.045,39.999 20.000,39.999 ZM30.599,14.575 C30.318,13.354 29.318,12.454 28.113,12.320 C25.263,12.002 22.377,12.000 19.504,12.002 C16.631,12.000 13.745,12.002 10.894,12.320 C9.690,12.454 8.691,13.355 8.410,14.575 C8.009,16.313 8.004,18.211 8.004,20.000 C8.004,21.790 8.004,23.687 8.405,25.426 C8.686,26.646 9.686,27.546 10.889,27.680 C13.741,27.999 16.626,28.000 19.500,27.999 C22.373,28.000 25.258,27.999 28.109,27.680 C29.312,27.546 30.312,26.646 30.594,25.426 C30.995,23.687 30.996,21.790 30.996,20.000 C30.996,18.211 31.000,16.314 30.599,14.575 ZM16.533,15.973 C18.970,17.242 21.391,18.503 23.843,19.780 C21.399,21.045 18.977,22.298 16.533,23.563 C16.533,21.024 16.533,18.512 16.533,15.973 Z"/>
</svg>