<svg id="Bridge" xmlns="http://www.w3.org/2000/svg" width="72" height="72" viewBox="0 0 72 72"><defs><style>.cls-1{fill:#00a9e0;fill-opacity:0;stroke:#007da7;stroke-linejoin:round;stroke-width:2px}.cls-2{fill:#1989af;fill-rule:evenodd}</style></defs><circle id="Circle" class="cls-1" cx="36" cy="36" r="35"/><path id="Forma_1" data-name="Forma 1" class="cls-2" d="M212.265 1709.8h-.554v-.8a.717.717 0 0 0-.731-.71h-1.08a.717.717 0 0 0-.731.71v.8h-.554a.716.716 0 0 0-.73.71v4.5a9.842 9.842 0 0 0-1.156-2.71 12.852 12.852 0 0 0-3.762-3.86 22.532 22.532 0 0 0-23.932 0 12.967 12.967 0 0 0-3.762 3.86 9.715 9.715 0 0 0-1.156 2.71v-4.5a.716.716 0 0 0-.73-.71h-.555v-.8a.716.716 0 0 0-.73-.71h-1.086a.716.716 0 0 0-.73.71v.8h-.556a.716.716 0 0 0-.73.71v9.78a.722.722 0 0 0 .73.71h3.661a.722.722 0 0 0 .73-.71v-1.52h33.758v1.52a.722.722 0 0 0 .73.71h3.661a.722.722 0 0 0 .73-.71v-9.78a.72.72 0 0 0-.735-.71zm-12.354 6.16v-6.04l2.413 6.04h-2.413zm-5.874 0v-7.12l2.842 7.12h-2.842zm-5.875 0v-6.84l2.764 6.84h-2.764zm-5.874 0v-5.76l2.3 5.76h-2.3zm23.164 0h-1.58l-2.1-5.27a8.8 8.8 0 0 1 3.68 5.27zm-7.69-7.35v5.68l-2.542-6.37a18.636 18.636 0 0 1 2.542.69zM191 1707.5c.3 0 .6 0 .892.02v6.97l-2.791-6.91c.619-.05 1.257-.08 1.899-.08zm-4.982.58v7.56l-2.671-6.68a17.629 17.629 0 0 1 2.666-.88zm-5.874 2.67v4.5l-1.336-3.34a11.458 11.458 0 0 1 1.331-1.16zm-2.385 2.42l1.114 2.79h-2.33a7.332 7.332 0 0 1 1.211-2.79z" transform="translate(-154 -1678)"/></svg>