<svg xmlns="http://www.w3.org/2000/svg" width="48" height="48" viewBox="0 0 48 48"><path fill-rule="evenodd" fill="#FFF" d="M19.999 39.994C8.974 39.994.005 31.024.005 19.999S8.974.004 19.999.004s19.995 8.97 19.995 19.995-8.97 19.995-19.995 19.995zM31.37 17.666v-4.642a4.399 4.399 0 0 0-4.395-4.395H13.023a4.399 4.399 0 0 0-4.395 4.395v13.952a4.4 4.4 0 0 0 4.395 4.396h13.952a4.4 4.4 0 0 0 4.395-4.396v-9.31zm-4.396 11.488H13.022a2.179 2.179 0 0 1-2.179-2.178v-9.31h3.394a6.179 6.179 0 0 0-.457 2.333 6.226 6.226 0 0 0 6.219 6.22 6.226 6.226 0 0 0 6.219-6.22c0-.825-.166-1.613-.46-2.333h3.395v9.31a2.179 2.179 0 0 1-2.179 2.178zM24.883 11.26l3.354-.011.502-.001v3.854l-3.842.013-.014-3.855zm-4.885 12.742a4.009 4.009 0 0 1-4.003-4.004 3.983 3.983 0 0 1 .758-2.333 4 4 0 0 1 3.246-1.669c1.335 0 2.518.662 3.246 1.67.473.657.758 1.462.758 2.333a4.01 4.01 0 0 1-4.005 4.003z"/></svg>