<?xml version="1.0" encoding="utf-8"?>
<!-- Generator: Adobe Illustrator 20.1.0, SVG Export Plug-In . SVG Version: 6.00 Build 0)  -->
<svg version="1.1" id="Layer_1" xmlns="http://www.w3.org/2000/svg" xmlns:xlink="http://www.w3.org/1999/xlink" x="0px" y="0px"
	 viewBox="0 0 572 78.7" style="enable-background:new 0 0 572 78.7;" xml:space="preserve">
<style type="text/css">
	.st0{fill:#F58259;}
	.st1{fill:#FFFFFF;stroke:#2F3068;stroke-width:0.3376;stroke-miterlimit:10;}
	.st2{fill:#FFFFFF;}
	.st3{fill:#2F3068;}
	.st4{fill:#FF7F5F;}
	.st5{fill:#223468;stroke:#223468;stroke-width:0.5;stroke-miterlimit:10;}
	.st6{fill:#FFFFFF;stroke:#223468;stroke-width:9.835035e-02;stroke-miterlimit:10;}
	.st7{fill:#223468;}
	.st8{fill:#F58259;stroke:#F58259;stroke-width:0.1968;stroke-miterlimit:10;}
	.st9{fill:#223468;stroke:#223468;stroke-width:9.835035e-02;stroke-miterlimit:10;}
	.st10{fill:#223468;stroke:#2F3068;stroke-width:9.835035e-02;stroke-miterlimit:10;}
</style>
<g>
	<g>
		<g>
			<g>
				<path class="st0" d="M29.3,30.8v-5.4c0,0,0,0,0-0.1l-0.3,0l0.3,0c-1.6-4.4-3.2-8.9-4.8-13.2c-0.3-0.9-0.8-1.7-1.1-1.8
					c-7.5-1.6-15-3.1-22.5-4.5C0.7,5.7,0.5,5.8,0,5.9c1.6,2.8,2.9,5.3,4.1,7.4c0.6,1,1.2,1.7,1.8,2c6,3.3,11.9,6.5,17.9,9.7
					c0.9,0.5,1.8,1.1,2.7,1.6c0,0,0.1,0,0.1,0.7c-6.5-2.7-13.1-5.5-19.6-8.2c0,0.3,0,0.7,0.1,1c1.5,1.6,3,4.2,4.4,4.7
					c2.9,1.2,5.6,1.3,8.4,1.8c2.7,0.5,5.4,1.1,8.1,1.6c0,0.2,0.1,0.4,0.1,0.6c-4.9-0.1-9.8-0.1-14.7-0.2c1.3,1.3,2.4,2,3.6,3
					c1.5,1.2,2.9,1.5,4.2,0.9c2.5-1.2,5.1-2,7.6-2.9c0,0.2,0.1,0.3,0.1,0.5c-2.4,1.5-4.9,3.1-7.3,4.6c1.1,0.9,2.1,1.8,3,1.6
					c0.9-0.2,1.6-1.2,2.4-2.1c0.7-0.8,1.4-1.9,2.1-2.9"/>
				<path class="st6" d="M29.3,1.4c0-0.4,0.1-0.7,0.3-0.9c0.2-0.2,0.5-0.4,0.9-0.4h18c1.3,0,2.5,0.2,3.7,0.5
					c1.1,0.4,2.2,0.9,3.2,1.5c1,0.6,1.8,1.4,2.6,2.3s1.4,1.8,2,2.8c0.5,1,0.9,2.1,1.2,3.2s0.4,2.3,0.4,3.4c0,1.7-0.3,3.3-0.9,5
					c-0.6,1.6-1.5,3.1-2.6,4.3c-1.1,1.3-2.5,2.3-4.1,3.1c-1.6,0.8-3.3,1.2-5.2,1.2h-8.5v13.4c0,0.8-0.4,1.2-1.3,1.2h-8.4
					c-0.4,0-0.7-0.1-0.9-0.3c-0.2-0.2-0.3-0.5-0.3-0.9V1.4z M50.5,13.7c0-0.6-0.1-1.1-0.3-1.7c-0.2-0.6-0.5-1.1-0.9-1.5
					C49,10.1,48.6,9.7,48,9.5C47.5,9.2,46.9,9,46.2,9h-6v9.4h6c0.7,0,1.3-0.1,1.8-0.4c0.5-0.3,1-0.6,1.4-1.1
					c0.4-0.4,0.6-0.9,0.8-1.5C50.4,14.9,50.5,14.3,50.5,13.7z"/>
			</g>
			<path class="st6" d="M75.8,1.2c0-0.1,0.1-0.2,0.2-0.4c0.1-0.1,0.2-0.3,0.4-0.4c0.1-0.1,0.3-0.2,0.5-0.3c0.2-0.1,0.3-0.1,0.5-0.1
				h7.2c0.3,0,0.6,0.1,0.8,0.3c0.2,0.2,0.4,0.4,0.5,0.5l0.7,1.6l14.8,38.2c0.1,0.4,0.1,0.7-0.1,0.9c-0.2,0.2-0.6,0.4-1.1,0.4h-8.1
				c-0.4,0-0.8-0.1-1-0.2s-0.4-0.4-0.5-0.8c-0.4-1-0.7-1.9-1.1-2.9c-0.4-0.9-0.7-1.9-1.1-2.9h-15c-0.4,1-0.7,1.9-1.1,2.9
				c-0.4,0.9-0.7,1.9-1.1,2.9c-0.2,0.7-0.7,1-1.4,1h-8.3c-0.4,0-0.7-0.1-0.9-0.3c-0.2-0.2-0.3-0.5-0.1-0.8L75.8,1.2z M80.9,13.3
				c-0.4,1-0.7,2-1.1,3.1c-0.4,1.1-0.7,2.2-1.1,3.4c-0.4,1.1-0.7,2.2-1.1,3.3c-0.4,1.1-0.7,2.1-1.1,3.1h8.7L80.9,13.3z"/>
			<path class="st6" d="M113.8,41.4c-0.2-0.3-0.4-0.6-0.5-1c-0.2-0.3-0.3-0.7-0.5-1c-2.4-6.4-4.8-12.7-7.2-19
				c-2.4-6.3-4.8-12.6-7.2-19c0-0.1,0-0.2,0-0.3c0-0.1,0-0.2,0-0.2c0-0.5,0.3-0.8,1-0.8h9.1c0.7,0,1.2,0.4,1.5,1.1l8.6,25.7l8-25.7
				c0.3-0.7,0.8-1.1,1.5-1.1h9.2c0.4,0,0.7,0.1,0.9,0.2c0.2,0.2,0.3,0.4,0.3,0.6c0,0.2,0,0.3,0,0.3v0.1l-5,14.4l3.8,11.1l9.1-25.6
				c0.3-0.7,0.8-1.1,1.5-1.1h8.9c0.4,0,0.7,0.1,0.9,0.2c0.2,0.2,0.3,0.4,0.3,0.6c0,0.2,0,0.3,0,0.3v0.1c-1.3,3.3-2.6,6.6-3.9,9.9
				c-1.3,3.3-2.7,6.6-4,9.9c-1.3,3.3-2.7,6.6-4,9.9c-1.3,3.3-2.6,6.6-3.9,9.9c-0.1,0.2-0.2,0.4-0.5,0.7c-0.3,0.3-0.6,0.4-1,0.4h-0.1
				h-6.8c-0.4,0-0.7-0.1-0.9-0.2c-0.2-0.2-0.4-0.4-0.5-0.6l-4.5-11.7c-0.6,1.7-1.3,3.4-1.9,5c-0.6,1.6-1.2,3.3-1.9,5
				c-0.1,0.3-0.2,0.5-0.3,0.8c-0.1,0.3-0.3,0.6-0.4,0.8c-0.2,0.3-0.4,0.5-0.6,0.6c-0.2,0.2-0.5,0.3-0.7,0.3h-0.1H115
				C114.4,41.9,114,41.8,113.8,41.4z"/>
			<path class="st6" d="M170.2,1.2c0-0.1,0.1-0.2,0.2-0.4c0.1-0.1,0.2-0.3,0.4-0.4c0.1-0.1,0.3-0.2,0.5-0.3c0.2-0.1,0.3-0.1,0.5-0.1
				h7.2c0.3,0,0.6,0.1,0.8,0.3c0.2,0.2,0.4,0.4,0.5,0.5l0.7,1.6l14.8,38.2c0.1,0.4,0.1,0.7-0.1,0.9c-0.2,0.2-0.6,0.4-1.1,0.4h-8.1
				c-0.4,0-0.8-0.1-1-0.2s-0.4-0.4-0.5-0.8c-0.4-1-0.7-1.9-1.1-2.9c-0.4-0.9-0.7-1.9-1.1-2.9h-15c-0.4,1-0.7,1.9-1.1,2.9
				c-0.4,0.9-0.7,1.9-1.1,2.9c-0.2,0.7-0.7,1-1.4,1h-8.3c-0.4,0-0.7-0.1-0.9-0.3c-0.2-0.2-0.3-0.5-0.1-0.8L170.2,1.2z M175.3,13.3
				c-0.4,1-0.7,2-1.1,3.1c-0.4,1.1-0.7,2.2-1.1,3.4c-0.4,1.1-0.7,2.2-1.1,3.3c-0.4,1.1-0.7,2.1-1.1,3.1h8.7L175.3,13.3z"/>
			<path class="st6" d="M201.4,1.4c0-0.4,0.1-0.7,0.3-0.9c0.2-0.2,0.5-0.4,0.9-0.4h18.2c1.9,0,3.7,0.4,5.4,1.1
				c1.7,0.7,3.2,1.7,4.4,2.9c1.3,1.2,2.2,2.7,3,4.4c0.7,1.7,1.1,3.4,1.1,5.3c0,1.3-0.2,2.5-0.5,3.6c-0.3,1.2-0.8,2.2-1.5,3.2
				c-0.6,1-1.4,1.9-2.2,2.7c-0.9,0.8-1.8,1.5-2.8,2.1l7.2,13.6c0.1,0.3,0.3,0.6,0.5,0.9c0.2,0.4,0.3,0.7,0.3,0.9
				c0,0.3-0.1,0.5-0.3,0.7s-0.5,0.2-0.8,0.2h-9.7c-0.3,0-0.6-0.1-0.9-0.3c-0.3-0.2-0.4-0.4-0.5-0.8L216.9,28h-4.6v12.7
				c0,0.8-0.4,1.2-1.3,1.2h-8.4c-0.4,0-0.7-0.1-0.9-0.3c-0.2-0.2-0.3-0.5-0.3-0.9V1.4z M223.5,13.9c0-0.6-0.1-1.1-0.3-1.7
				c-0.2-0.6-0.5-1.1-0.9-1.5c-0.4-0.5-0.8-0.9-1.4-1.2c-0.5-0.3-1.1-0.5-1.7-0.6c-0.5,0-1-0.1-1.5-0.1c-0.5,0-1,0-1.5,0h-3.9v10.3
				h5.2c0.3,0,0.6,0,0.9,0c0.3,0,0.6,0,0.9-0.1c0.7-0.1,1.2-0.3,1.8-0.6s1-0.7,1.3-1.2c0.4-0.5,0.6-1,0.8-1.5
				C223.4,15.1,223.5,14.5,223.5,13.9z"/>
		</g>
		<g>
			<g>
				<g>
					<g>
						<path class="st2" d="M314.1,42c-11.7,0-20.8-9.2-20.8-21c0-11.6,9.3-20.9,20.8-20.9c6.3,0,11.5,2.4,15.6,7.2
							c0.2,0.2,0.2,0.4,0.2,0.7c0,0.2-0.1,0.5-0.3,0.6l-5.9,5.1c-0.2,0.1-0.4,0.2-0.6,0.2c-0.3,0-0.5-0.1-0.7-0.3
							c-2.6-2.7-5.5-4.1-8.4-4.1c-6.1,0-10.9,5-10.9,11.5c0,6.6,4.7,11.5,10.9,11.5c3.1,0,5.9-1.5,8.6-4.3c0.2-0.2,0.4-0.3,0.7-0.3
							c0.2,0,0.4,0.1,0.6,0.2L330,33c0.2,0.2,0.3,0.4,0.3,0.6c0,0.3,0,0.5-0.2,0.7C325.9,39.4,320.5,42,314.1,42z"/>
						<path class="st7" d="M314.1,0.1c6.2,0,11.5,2.4,15.6,7.2c0.3,0.4,0.3,0.9-0.1,1.2l-5.9,5.1c-0.2,0.1-0.4,0.2-0.6,0.2
							c-0.2,0-0.5-0.1-0.6-0.3c-2.6-2.7-5.5-4.1-8.5-4.1c-6.1,0-10.9,5.1-10.9,11.5c0,6.6,4.7,11.6,10.9,11.6c3.1,0,6-1.5,8.6-4.3
							c0.2-0.2,0.4-0.3,0.6-0.3c0.2,0,0.4,0.1,0.5,0.2L330,33c0.2,0.1,0.3,0.4,0.3,0.6c0,0.2,0,0.5-0.2,0.6c-4.3,5.1-9.7,7.7-16,7.7
							c-11.6,0-20.7-9.2-20.7-20.9C293.4,9.5,302.7,0.1,314.1,0.1 M314.1,0c-11.5,0-20.8,9.4-20.8,21c0,11.8,9.1,21,20.8,21
							c6.4,0,11.8-2.6,16.1-7.7c0.2-0.2,0.3-0.5,0.2-0.7c0-0.3-0.2-0.5-0.4-0.7l-6.1-4.9c-0.2-0.1-0.4-0.2-0.6-0.2
							c-0.3,0-0.5,0.1-0.7,0.3c-2.6,2.9-5.5,4.3-8.5,4.3c-6.2,0-10.8-4.9-10.8-11.5c0-6.4,4.7-11.4,10.8-11.4c3,0,5.8,1.4,8.4,4.1
							c0.2,0.2,0.4,0.3,0.7,0.3c0.2,0,0.5-0.1,0.6-0.2l5.9-5.1c0.2-0.2,0.3-0.4,0.3-0.7c0-0.3-0.1-0.5-0.2-0.7
							C325.6,2.4,320.3,0,314.1,0L314.1,0z"/>
					</g>
				</g>
			</g>
			<g>
				<g>
					<g>
						<path class="st2" d="M355.5,42c-11.6,0-21-9.4-21-21c0-11.6,9.4-21,21-21c11.5,0,20.9,9.4,20.9,21C376.4,32.6,367,42,355.5,42
							z M355.5,9.4c-6.3,0-10.9,4.9-10.9,11.6c0,6.8,4.6,11.7,10.9,11.7c6.3,0,10.9-4.9,10.9-11.7C366.3,14.3,361.8,9.4,355.5,9.4z"
							/>
						<path class="st7" d="M355.5,0.1c11.5,0,20.9,9.4,20.9,20.9c0,11.6-9.4,20.9-20.9,20.9c-11.6,0-21-9.4-21-20.9
							C334.5,9.5,343.9,0.1,355.5,0.1 M355.5,32.7c6.3,0,10.9-4.9,10.9-11.7c0-6.8-4.6-11.7-10.9-11.7c-6.3,0-11,4.9-11,11.7
							C344.5,27.8,349.1,32.7,355.5,32.7 M355.5,0c-11.6,0-21.1,9.4-21.1,21c0,11.6,9.4,21,21.1,21c11.6,0,21-9.4,21-21
							C376.5,9.4,367.1,0,355.5,0L355.5,0z M355.5,32.6c-6.3,0-10.9-4.9-10.9-11.6c0-6.7,4.6-11.6,10.9-11.6
							c6.3,0,10.8,4.9,10.8,11.6C366.3,27.7,361.7,32.6,355.5,32.6L355.5,32.6z"/>
					</g>
				</g>
			</g>
			<g>
				<g>
					<g>
						<path class="st2" d="M385.1,41.4c-0.5,0-0.9-0.4-0.9-0.9V1.5c0-0.5,0.4-0.9,0.9-0.9h7.9c0.5,0,0.9,0.4,0.9,0.9v30.9l12.9,0
							c0.5,0,0.9,0.4,0.9,0.9v7c0,0.6-0.5,1.1-1.2,1.1H385.1z"/>
						<path class="st7" d="M393,0.6c0.5,0,0.9,0.4,0.9,0.9v30.9h12.9c0.5,0,0.9,0.4,0.9,0.9v7c0,0.6-0.5,1.1-1.1,1.1h-21.5
							c-0.5,0-0.9-0.4-0.9-0.9V1.5c0-0.5,0.4-0.9,0.9-0.9H393 M393,0.5h-7.9c-0.5,0-1,0.4-1,1v39.1c0,0.5,0.4,1,1,1h21.5
							c0.7,0,1.2-0.5,1.2-1.2v-7c0-0.5-0.4-1-1-1H394V1.5C394,0.9,393.5,0.5,393,0.5L393,0.5z"/>
					</g>
				</g>
			</g>
			<g>
				<g>
					<g>
						<path class="st2" d="M415.1,41.4c-0.6,0-1.2-0.5-1.2-1.1V1.7c0-0.6,0.5-1.2,1.2-1.2h23.3c0.6,0,1.2,0.5,1.2,1.2v6.6
							c0,0.6-0.5,1.2-1.2,1.2h-14.7l0,6l10,0c0.6,0,1.2,0.5,1.2,1.2v6.6c0,0.6-0.5,1.2-1.2,1.2h-10l0,8.2l14.7,0
							c0.6,0,1.2,0.5,1.2,1.2v6.6c0,0.6-0.5,1.1-1.2,1.1H415.1z"/>
						<path class="st7" d="M438.4,0.6c0.6,0,1.1,0.5,1.1,1.1v6.6c0,0.6-0.5,1.1-1.1,1.1h-14.7v6.1h10c0.6,0,1.1,0.5,1.1,1.1v6.6
							c0,0.6-0.5,1.1-1.1,1.1h-10v8.3h14.7c0.6,0,1.1,0.5,1.1,1.1v6.6c0,0.6-0.5,1.1-1.1,1.1h-23.3c-0.6,0-1.1-0.5-1.1-1.1V1.7
							c0-0.6,0.5-1.1,1.1-1.1H438.4 M438.4,0.5h-23.3c-0.7,0-1.2,0.5-1.2,1.2v38.6c0,0.7,0.5,1.2,1.2,1.2h23.3
							c0.7,0,1.2-0.5,1.2-1.2v-6.6c0-0.7-0.5-1.2-1.2-1.2h-14.6v-8.1h9.9c0.7,0,1.2-0.5,1.2-1.2v-6.6c0-0.7-0.5-1.2-1.2-1.2h-9.9
							V9.5h14.6c0.7,0,1.2-0.5,1.2-1.2V1.7C439.6,1,439.1,0.5,438.4,0.5L438.4,0.5z"/>
					</g>
				</g>
			</g>
			<g>
				<g>
					<g>
						<path class="st2" d="M486,41.4c-0.6,0-1.1-0.4-1.1-1l-2.5-22l-7.2,22.2c-0.2,0.5-0.6,0.8-1.1,0.8h-6.6c-0.5,0-0.9-0.3-1.1-0.8
							l-7.2-22l-2.4,21.8c-0.1,0.6-0.6,1-1.1,1h-8.1c-0.3,0-0.6-0.1-0.9-0.4c-0.2-0.2-0.3-0.6-0.3-0.9l5.3-38.6c0.1-0.6,0.6-1,1.1-1
							h9.4c0.5,0,0.9,0.3,1.1,0.8l7.3,23.2l7.3-23.2c0.2-0.5,0.6-0.8,1.1-0.8h9.4c0.6,0,1.1,0.4,1.1,1l5.3,38.6
							c0,0.3-0.1,0.7-0.3,0.9c-0.2,0.3-0.5,0.4-0.9,0.4H486z"/>
						<path class="st7" d="M488.7,0.6c0.5,0,1,0.4,1.1,1l5.3,38.6c0,0.3-0.1,0.6-0.3,0.9c-0.2,0.2-0.5,0.4-0.8,0.4H486
							c-0.6,0-1-0.4-1.1-1l-2.4-21.8c0-0.1,0-0.3-0.1-0.4c0,0,0,0.1,0,0.1l0,0.2c0,0,0,0,0,0.1l-7.1,22.1c-0.2,0.5-0.6,0.8-1.1,0.8
							h-6.6c-0.5,0-0.9-0.3-1-0.8l-7.2-22c0-0.1,0-0.2-0.1-0.2c0,0.1,0,0.1,0,0.2l-2.4,21.8c-0.1,0.6-0.5,1-1.1,1h-8.1
							c-0.3,0-0.6-0.1-0.8-0.4c-0.2-0.2-0.3-0.6-0.3-0.9l5.3-38.6c0.1-0.5,0.5-1,1.1-1h9.4c0.5,0,0.9,0.3,1.1,0.8l7.3,23.2l7.4-23.2
							c0.2-0.5,0.6-0.8,1.1-0.8H488.7 M488.7,0.5h-9.4c-0.5,0-1,0.3-1.1,0.8l-7.3,22.9l-7.2-22.9c-0.2-0.5-0.6-0.8-1.1-0.8H453
							c-0.6,0-1.1,0.4-1.2,1l-5.3,38.6c0,0.3,0.1,0.7,0.3,0.9c0.2,0.3,0.6,0.4,0.9,0.4h8.1c0.6,0,1.1-0.5,1.2-1.1l2.4-21.6l7.1,21.8
							c0.2,0.5,0.6,0.8,1.1,0.8h6.6c0.5,0,1-0.3,1.1-0.8l7.1-22l2.4,21.8c0.1,0.6,0.6,1.1,1.2,1.1h8.1c0.4,0,0.7-0.2,0.9-0.4
							c0.2-0.3,0.3-0.6,0.3-0.9l-5.3-38.6C489.8,0.9,489.3,0.5,488.7,0.5L488.7,0.5z"/>
					</g>
				</g>
			</g>
			<g>
				<g>
					<g>
						<path class="st2" d="M515.6,24.4L515.6,24.4c-0.1-0.1-0.1-0.1-0.1-0.2l0.9-3.2c0.7-2.4,1.5-5.1,2.1-7.5c0-0.1,0.1-0.1,0.1-0.1
							s0.1,0,0.1,0.1c0.4,1.6,0.9,3.5,1.4,5.2c0.2,0.8,0.4,1.6,0.6,2.3l0.9,3.2l0,0.1c0,0-0.1,0.1-0.1,0.1H515.6z M518.6,13.7
							c-0.6,2.4-1.4,5.1-2,7.4l-0.9,3.2l5.9-0.1l-0.9-3.1c-0.2-0.8-0.4-1.5-0.6-2.3C519.5,17,519.1,15.3,518.6,13.7z"/>
						<path class="st7" d="M518.6,13.4C518.7,13.4,518.7,13.4,518.6,13.4c0.5,1.7,1,3.6,1.5,5.3c0.2,0.8,0.4,1.6,0.6,2.3l0.9,3.2
							c0,0,0,0.1,0,0.1c0,0-0.1,0-0.1,0h-6c0,0-0.1,0-0.1,0c0,0,0-0.1,0-0.1l0.9-3.2C517.2,18.7,518,15.9,518.6,13.4
							C518.6,13.4,518.6,13.4,518.6,13.4 M515.6,24.2h6l-0.9-3.2c-0.2-0.8-0.4-1.5-0.6-2.3c-0.5-1.8-1-3.6-1.4-5.2
							c-0.6,2.4-1.3,5-2.1,7.6L515.6,24.2 M518.6,13.3c-0.1,0-0.2,0.1-0.2,0.2c-0.6,2.4-1.3,5-2.1,7.5l-0.9,3.2c0,0.1,0,0.1,0,0.2
							c0,0,0.1,0.1,0.2,0.1h6c0.1,0,0.1,0,0.2-0.1c0-0.1,0.1-0.1,0-0.2l-0.9-3.2c-0.2-0.8-0.4-1.5-0.6-2.3c-0.5-1.6-1-3.6-1.4-5.2
							C518.8,13.4,518.7,13.3,518.6,13.3L518.6,13.3z M515.8,24.1l0.9-3.1c0.7-2.3,1.4-4.8,2-7.2c0.4,1.5,0.9,3.2,1.3,4.9
							c0.2,0.8,0.4,1.6,0.6,2.3l0.9,3.1H515.8L515.8,24.1z"/>
					</g>
					<g>
						<path class="st2" d="M515.6,24.4L515.6,24.4l-0.1-0.2l0.9-3.2c0.7-2.4,1.5-5.1,2.1-7.5c0-0.1,0.1-0.1,0.1-0.1s0.1,0,0.1,0.1
							c0.4,1.6,0.9,3.5,1.4,5.2c0.2,0.8,0.4,1.6,0.6,2.3l0.9,3.2v0l0,0.1c0,0-0.1,0.1-0.1,0.1H515.6z M521.5,24.1l-0.9-3
							c-0.2-0.8-0.4-1.5-0.6-2.3c-0.5-1.6-0.9-3.3-1.3-4.9c-0.5,2.4-1.2,4.9-1.9,7.2l-0.9,3H521.5z"/>
						<path class="st7" d="M518.6,13.4C518.7,13.4,518.7,13.4,518.6,13.4c0.5,1.7,1,3.6,1.5,5.3c0.2,0.8,0.4,1.6,0.6,2.3l0.9,3.2
							c0,0,0,0,0,0c0,0,0,0,0,0l-0.9-3.2c-0.2-0.8-0.4-1.5-0.6-2.3C519.7,17,519.2,15.1,518.6,13.4
							C518.7,13.4,518.7,13.4,518.6,13.4C518.6,13.4,518.6,13.4,518.6,13.4c-0.7,2.5-1.5,5.3-2.2,7.6l-0.9,3.2c0,0,0,0,0,0
							c0,0,0,0,0,0l0.9-3.2C517.2,18.7,518,15.9,518.6,13.4C518.6,13.4,518.6,13.4,518.6,13.4 M518.6,13.4
							C518.7,13.4,518.7,13.4,518.6,13.4c0.5,1.7,1,3.6,1.5,5.3c0.2,0.8,0.4,1.6,0.6,2.3l0.9,3.2c0,0,0,0,0,0c0,0,0,0,0,0.1
							c0,0-0.1,0-0.1,0h-6c0,0-0.1,0-0.1,0c0,0,0,0,0-0.1c0,0,0,0,0,0l0.9-3.2C517.2,18.7,518,15.9,518.6,13.4
							C518.6,13.4,518.6,13.4,518.6,13.4 M515.8,24.1h5.7l-0.9-3.1c-0.2-0.8-0.4-1.5-0.6-2.3c-0.5-1.6-0.9-3.3-1.3-4.8
							c-0.6,2.4-1.3,4.9-2,7.2L515.8,24.1 M518.7,13.9c0.4,1.5,0.9,3.2,1.3,4.8c0.2,0.8,0.4,1.6,0.6,2.3l0.9,3.1l-0.9-3.1
							c-0.2-0.8-0.4-1.5-0.6-2.3C519.5,17.1,519.1,15.4,518.7,13.9c-0.6,2.4-1.3,4.9-2,7.2l-0.9,3.1l0.9-3.1
							C517.3,18.8,518.1,16.3,518.7,13.9 M521.5,24.1h-5.7H521.5 M515.5,24.2C515.5,24.3,515.5,24.3,515.5,24.2
							c0,0.1,0.1,0.1,0.1,0.1h6c0,0,0.1,0,0.1,0c0,0,0,0,0-0.1c0,0,0,0,0,0.1c0,0-0.1,0-0.1,0h-6C515.6,24.3,515.6,24.3,515.5,24.2
							C515.5,24.3,515.5,24.3,515.5,24.2 M518.6,13.3c-0.1,0-0.2,0.1-0.2,0.2c-0.6,2.4-1.3,5-2.1,7.5l-0.9,3.2c0,0,0,0,0,0.1v0l0,0
							c0,0,0,0.1,0,0.1c0,0,0,0,0,0c0,0,0.1,0.1,0.2,0.1h6c0.1,0,0.1,0,0.2-0.1c0,0,0-0.1,0-0.1l0,0c0,0,0,0,0,0c0,0,0,0,0-0.1
							l-0.9-3.2c-0.2-0.8-0.4-1.5-0.6-2.3c-0.5-1.6-1-3.6-1.4-5.2C518.8,13.4,518.7,13.3,518.6,13.3L518.6,13.3z M515.9,24l0.9-2.9
							c0.6-2.1,1.3-4.6,1.9-6.8c0.3,1.2,0.7,2.7,1.2,4.5c0.2,0.8,0.4,1.6,0.6,2.3l0.8,3H515.9L515.9,24z"/>
					</g>
					<g>
						<path class="st2" d="M527.3,41.4c-0.5,0-1-0.3-1.1-0.8l-2.4-8.5l-10.4,0l-2.5,8.4c-0.1,0.5-0.6,0.8-1.1,0.8h-8
							c-0.4,0-0.7-0.2-0.9-0.5c-0.2-0.3-0.3-0.7-0.2-1l12.5-38.6c0.2-0.5,0.6-0.8,1.1-0.8h8.5c0.5,0,0.9,0.3,1.1,0.8l12.5,38.6
							c0.1,0.4,0.1,0.7-0.2,1c-0.2,0.3-0.6,0.5-0.9,0.5H527.3z M518.6,13.4C518.6,13.4,518.6,13.5,518.6,13.4
							c-0.6,2.5-1.4,5.2-2.1,7.6l-0.9,3.2l6,0.1l-0.9-3.3c-0.2-0.8-0.4-1.5-0.6-2.3C519.6,17,519.1,15.1,518.6,13.4L518.6,13.4z"/>
						<path class="st7" d="M522.8,0.6c0.5,0,0.9,0.3,1.1,0.8L536.4,40c0.1,0.3,0.1,0.7-0.2,1c-0.2,0.3-0.5,0.5-0.9,0.5h-8
							c-0.5,0-0.9-0.3-1.1-0.8l-2.4-8.5h-10.4l-2.5,8.5c-0.1,0.5-0.6,0.8-1.1,0.8h-8c-0.4,0-0.7-0.2-0.9-0.5c-0.2-0.3-0.3-0.6-0.2-1
							l12.5-38.6c0.2-0.5,0.6-0.8,1.1-0.8H522.8 M515.6,24.3h6c0,0,0.1,0,0.1,0s0-0.1,0-0.1l-0.9-3.2c-0.2-0.8-0.4-1.5-0.6-2.3
							c-0.5-1.8-1-3.6-1.4-5.2c0,0-0.1-0.1-0.1-0.1c0,0-0.1,0-0.1,0.1c-0.6,2.4-1.4,5.2-2.1,7.5l-0.9,3.2
							C515.5,24.2,515.5,24.3,515.6,24.3C515.6,24.3,515.6,24.3,515.6,24.3 M522.8,0.5h-8.5c-0.5,0-1,0.3-1.1,0.8l-12.5,38.6
							c-0.1,0.4-0.1,0.8,0.2,1.1c0.2,0.3,0.6,0.5,1,0.5h8c0.5,0,1-0.4,1.2-0.9l2.5-8.4h10.3l2.4,8.4c0.1,0.5,0.6,0.9,1.2,0.9h8
							c0.4,0,0.7-0.2,1-0.5c0.2-0.3,0.3-0.7,0.2-1.1L524,1.3C523.8,0.8,523.4,0.5,522.8,0.5L522.8,0.5z M515.6,24.2l0.9-3.2
							c0.7-2.5,1.5-5.2,2.1-7.6c0.4,1.7,1,3.6,1.4,5.2c0.2,0.8,0.4,1.6,0.6,2.3l0.9,3.2L515.6,24.2L515.6,24.2L515.6,24.2z"/>
					</g>
				</g>
			</g>
			<g>
				<g>
					<g>
						<path class="st2" d="M563.8,41.4c-0.6,0-1.2-0.5-1.2-1.1v-8l-10.9-14.9l0,22.9c0,0.6-0.5,1.1-1.2,1.1h-6.9
							c-0.6,0-1.2-0.5-1.2-1.1V1.7c0-0.6,0.5-1.2,1.2-1.2h7c0.4,0,0.7,0.2,0.9,0.5l11.1,15.9l-0.1-15.2c0-0.6,0.5-1.2,1.2-1.2h7.1
							c0.6,0,1.2,0.5,1.2,1.2v38.6c0,0.6-0.5,1.1-1.2,1.1H563.8z"/>
						<path class="st7" d="M570.8,0.6c0.6,0,1.1,0.5,1.1,1.1v38.6c0,0.6-0.5,1.1-1.1,1.1h-7.1c-0.6,0-1.1-0.5-1.1-1.1v-8l-10.9-14.9
							c0,0,0,0,0-0.1v23c0,0.6-0.5,1.1-1.1,1.1h-6.9c-0.6,0-1.1-0.5-1.1-1.1V1.7c0-0.6,0.5-1.1,1.1-1.1h7c0.4,0,0.7,0.2,0.9,0.5
							l11.1,15.9V1.7c0-0.6,0.5-1.1,1.1-1.1H570.8 M570.8,0.5h-7.1c-0.7,0-1.2,0.5-1.2,1.2v14.9L551.7,1c-0.2-0.3-0.6-0.5-1-0.5h-7
							c-0.7,0-1.2,0.5-1.2,1.2v38.6c0,0.7,0.5,1.2,1.2,1.2h6.9c0.7,0,1.2-0.5,1.2-1.2V17.6l10.7,14.7v8c0,0.7,0.5,1.2,1.2,1.2h7.1
							c0.7,0,1.2-0.5,1.2-1.2V1.7C572,1,571.5,0.5,570.8,0.5L570.8,0.5z"/>
					</g>
				</g>
			</g>
		</g>
		<g>
			<path class="st8" d="M277.1,30.2l4.9,6c0.4,0.4,0.3,1.1-0.2,1.4l-4.9,3.8c-0.4,0.3-1.1,0.3-1.4-0.2l-3.6-4.5
				c-3,3-6.5,5.2-10.5,5.2c-7,0-13.3-4.6-13.3-12.3c0-5.8,4.2-9.2,8.7-11.7l-0.1-0.2c-2-2.5-3-5.5-3-8.3c0-4.8,3.4-9.3,10.2-9.3
				c6.3,0,9.5,4.5,9.5,8.9c0,4.4-2.7,7.1-6,9.4l4.7,5.8c0.4-1.6,0.8-3.5,1-5.5c0.1-0.5,0.5-0.9,1-0.9h5.5c0.6,0,1.1,0.5,1,1.2
				C280.3,22.4,279.1,26.4,277.1,30.2z M268,31.7l-7.3-9.1c-2.5,1.8-4.4,3.8-4.4,6.7c0,3.2,2.6,5.1,5.4,5.1
				C263.9,34.5,265.9,33.7,268,31.7z M263.8,13.8c1.4-1.3,2.2-2.8,2.2-4.6c0-1.3-0.6-2.3-2-2.3c-1.4,0-2.2,1-2.2,2.3
				C261.7,10.5,262.6,12.2,263.8,13.8z"/>
		</g>
	</g>
	<g>
		<path class="st4" d="M115.8,58.8c0-0.1,0-0.1,0.1-0.2c0.1-0.1,0.1-0.1,0.2-0.2c0.1-0.1,0.1-0.1,0.2-0.1c0.1,0,0.2,0,0.2,0h3.5
			c0.2,0,0.3,0,0.4,0.1c0.1,0.1,0.2,0.2,0.2,0.3l0.3,0.8l7.1,18.4c0.1,0.2,0.1,0.3,0,0.4c-0.1,0.1-0.3,0.2-0.5,0.2h-3.9
			c-0.2,0-0.4,0-0.5-0.1c-0.1-0.1-0.2-0.2-0.3-0.4c-0.2-0.5-0.4-0.9-0.5-1.4c-0.2-0.5-0.3-0.9-0.5-1.4h-7.2
			c-0.2,0.5-0.3,0.9-0.5,1.4c-0.2,0.5-0.4,0.9-0.5,1.4c-0.1,0.3-0.3,0.5-0.7,0.5h-4c-0.2,0-0.3,0-0.4-0.1c-0.1-0.1-0.1-0.2-0.1-0.4
			L115.8,58.8z M118.3,64.6c-0.2,0.5-0.3,1-0.5,1.5c-0.2,0.5-0.4,1.1-0.5,1.6c-0.2,0.5-0.3,1.1-0.5,1.6c-0.2,0.5-0.4,1-0.5,1.5h4.2
			L118.3,64.6z"/>
		<path class="st4" d="M139.5,58.8c0-0.2,0-0.3,0.1-0.4c0.1-0.1,0.2-0.2,0.4-0.2h4.4c0.1,0,0.3,0,0.4,0.1c0.1,0.1,0.3,0.2,0.4,0.3
			c1.2,1.9,2.3,3.7,3.4,5.5s2.3,3.6,3.4,5.5V58.7c0-0.2,0.1-0.3,0.2-0.4c0.1-0.1,0.2-0.1,0.4-0.1h3.9c0.2,0,0.3,0.1,0.5,0.2
			c0.1,0.1,0.2,0.3,0.2,0.4v19.1c0,0.2-0.1,0.3-0.2,0.4s-0.3,0.1-0.4,0.1h-4.3c-0.1,0-0.2,0-0.3-0.1s-0.2-0.2-0.3-0.3
			c-1.2-2-2.4-4-3.6-5.9c-1.2-1.9-2.4-3.9-3.6-5.9v11.7c0,0.2,0,0.3-0.1,0.4c-0.1,0.1-0.3,0.1-0.5,0.1h-3.9c-0.2,0-0.4-0.1-0.5-0.2
			s-0.1-0.3-0.1-0.4V58.8z"/>
		<path class="st4" d="M161.7,58.8c0-0.2,0.1-0.3,0.2-0.5c0.1-0.1,0.3-0.2,0.4-0.2h13.5c0.2,0,0.4,0.1,0.5,0.2
			c0.1,0.1,0.2,0.3,0.2,0.5v3.4c0,0.2-0.1,0.3-0.2,0.4c-0.1,0.1-0.3,0.2-0.5,0.2H167v3.4h6.8c0.2,0,0.3,0,0.4,0.1
			c0.1,0.1,0.2,0.2,0.2,0.4v2.9c0,0.1,0,0.2-0.1,0.4s-0.2,0.2-0.4,0.2H167v3.5h9.1c0.4,0,0.6,0.2,0.6,0.6v3.4c0,0.1,0,0.2-0.1,0.2
			c0,0.3-0.2,0.4-0.6,0.4h-13.7c-0.2,0-0.3,0-0.4-0.1c-0.1-0.1-0.2-0.2-0.2-0.4V58.8z"/>
		<path class="st4" d="M185.6,78.1c-0.1-0.2-0.2-0.3-0.3-0.5c-0.1-0.2-0.2-0.3-0.2-0.5c-1.2-3.1-2.3-6.1-3.5-9.2
			c-1.2-3-2.3-6.1-3.5-9.2c0,0,0-0.1,0-0.1c0,0,0-0.1,0-0.1c0-0.3,0.2-0.4,0.5-0.4h4.4c0.3,0,0.6,0.2,0.7,0.5l4.2,12.4l3.8-12.4
			c0.1-0.3,0.4-0.5,0.7-0.5h4.4c0.2,0,0.4,0,0.4,0.1c0.1,0.1,0.1,0.2,0.1,0.3c0,0.1,0,0.1,0,0.1v0l-2.4,6.9l1.8,5.3l4.4-12.4
			c0.1-0.3,0.4-0.5,0.7-0.5h4.3c0.2,0,0.4,0,0.4,0.1c0.1,0.1,0.1,0.2,0.1,0.3c0,0.1,0,0.1,0,0.1v0c-0.6,1.6-1.2,3.2-1.9,4.8
			c-0.6,1.6-1.3,3.2-1.9,4.8c-0.6,1.6-1.3,3.2-1.9,4.8c-0.6,1.6-1.3,3.2-1.9,4.8c0,0.1-0.1,0.2-0.2,0.3c-0.1,0.1-0.3,0.2-0.5,0.2h0
			h-3.3c-0.2,0-0.4,0-0.5-0.1c-0.1-0.1-0.2-0.2-0.2-0.3l-2.1-5.7c-0.3,0.8-0.6,1.6-0.9,2.4c-0.3,0.8-0.6,1.6-0.9,2.4
			c0,0.1-0.1,0.3-0.2,0.4c-0.1,0.1-0.1,0.3-0.2,0.4s-0.2,0.2-0.3,0.3c-0.1,0.1-0.2,0.1-0.4,0.1h0h-3.3
			C185.9,78.4,185.7,78.3,185.6,78.1z"/>
		<path class="st4" d="M235.4,68.3c0,1-0.1,1.9-0.4,2.7c-0.2,0.9-0.6,1.7-1,2.4c-0.5,0.7-1,1.4-1.6,2c-0.6,0.6-1.3,1.1-2.1,1.6
			s-1.6,0.8-2.5,1c-0.9,0.2-1.8,0.3-2.8,0.3h-6.7c-0.2,0-0.3,0-0.4-0.1c-0.1-0.1-0.2-0.2-0.2-0.5v-19c0-0.2,0.1-0.3,0.2-0.5
			c0.1-0.1,0.3-0.2,0.5-0.2h6.7c1,0,1.9,0.1,2.8,0.4c0.9,0.2,1.7,0.6,2.5,1c0.8,0.4,1.5,1,2.1,1.6c0.6,0.6,1.2,1.3,1.6,2
			c0.4,0.8,0.8,1.6,1,2.4C235.3,66.5,235.4,67.4,235.4,68.3z M222.9,63.1v10.5h1.1c0.2,0,0.4,0,0.6,0c0.2,0,0.4,0,0.6,0
			c0.7-0.1,1.3-0.2,1.9-0.5c0.6-0.3,1.1-0.6,1.5-1.1c0.4-0.4,0.8-1,1-1.6c0.2-0.6,0.4-1.3,0.4-2c0-0.8-0.1-1.5-0.4-2.1
			c-0.3-0.6-0.7-1.2-1.2-1.7c-0.5-0.5-1.1-0.8-1.7-1.1s-1.4-0.4-2.1-0.4H222.9z"/>
		<path class="st4" d="M238.9,58.8c0-0.2,0.1-0.3,0.2-0.5c0.1-0.1,0.3-0.2,0.4-0.2H253c0.2,0,0.4,0.1,0.5,0.2s0.2,0.3,0.2,0.5v3.4
			c0,0.2-0.1,0.3-0.2,0.4c-0.1,0.1-0.3,0.2-0.5,0.2h-8.8v3.4h6.8c0.2,0,0.3,0,0.4,0.1c0.1,0.1,0.2,0.2,0.2,0.4v2.9
			c0,0.1,0,0.2-0.1,0.4c-0.1,0.1-0.2,0.2-0.4,0.2h-6.8v3.5h9.1c0.4,0,0.6,0.2,0.6,0.6v3.4c0,0.1,0,0.2-0.1,0.2
			c0,0.3-0.2,0.4-0.6,0.4h-13.7c-0.2,0-0.3,0-0.4-0.1c-0.1-0.1-0.2-0.2-0.2-0.4V58.8z"/>
		<path class="st4" d="M263.1,58.8c0-0.1,0-0.1,0.1-0.2c0.1-0.1,0.1-0.1,0.2-0.2c0.1-0.1,0.1-0.1,0.2-0.1c0.1,0,0.2,0,0.2,0h3.5
			c0.2,0,0.3,0,0.4,0.1c0.1,0.1,0.2,0.2,0.2,0.3l0.3,0.8l7.1,18.4c0.1,0.2,0.1,0.3,0,0.4c-0.1,0.1-0.3,0.2-0.5,0.2h-3.9
			c-0.2,0-0.4,0-0.5-0.1c-0.1-0.1-0.2-0.2-0.3-0.4c-0.2-0.5-0.4-0.9-0.5-1.4c-0.2-0.5-0.3-0.9-0.5-1.4h-7.2
			c-0.2,0.5-0.3,0.9-0.5,1.4c-0.2,0.5-0.4,0.9-0.5,1.4c-0.1,0.3-0.3,0.5-0.7,0.5h-4c-0.2,0-0.3,0-0.4-0.1c-0.1-0.1-0.1-0.2-0.1-0.4
			L263.1,58.8z M265.5,64.6c-0.2,0.5-0.3,1-0.5,1.5c-0.2,0.5-0.4,1.1-0.5,1.6c-0.2,0.5-0.3,1.1-0.5,1.6c-0.2,0.5-0.4,1-0.5,1.5h4.2
			L265.5,64.6z"/>
		<path class="st4" d="M277.6,58.8c0-0.2,0.1-0.3,0.2-0.4c0.1-0.1,0.3-0.2,0.4-0.2h4c0.2,0,0.3,0.1,0.4,0.2c0.1,0.1,0.2,0.3,0.2,0.4
			v14.8h7.5c0.2,0,0.3,0.1,0.4,0.2c0.1,0.1,0.2,0.3,0.2,0.4v3.6c0,0.2-0.1,0.3-0.2,0.4c-0.1,0.1-0.3,0.2-0.4,0.2h-12.1
			c-0.4,0-0.6-0.2-0.6-0.6V58.8z"/>
		<path class="st4" d="M302.8,58.8c0-0.2,0.1-0.3,0.2-0.4c0.1-0.1,0.2-0.2,0.4-0.2h13c0.2,0,0.4,0.1,0.5,0.2
			c0.1,0.1,0.2,0.3,0.2,0.5v3.4c0,0.2-0.1,0.3-0.2,0.4c-0.1,0.1-0.3,0.2-0.5,0.2H308v4.2h6.1c0.2,0,0.3,0,0.4,0.1
			c0.1,0.1,0.2,0.2,0.2,0.5v3.3c0,0.2-0.1,0.3-0.2,0.4c-0.1,0.1-0.2,0.2-0.4,0.2H308v6.2c0,0.4-0.2,0.6-0.6,0.6h-4.1
			c-0.3,0-0.5-0.2-0.5-0.6V58.8z"/>
		<path class="st4" d="M319.4,68.3c0-1,0.1-1.9,0.4-2.8c0.2-0.9,0.6-1.7,1-2.5s1-1.5,1.6-2.1c0.6-0.6,1.3-1.2,2.1-1.6
			c0.8-0.4,1.6-0.8,2.5-1c0.9-0.2,1.8-0.4,2.8-0.4c1,0,1.9,0.1,2.8,0.4c0.9,0.2,1.7,0.6,2.5,1c0.8,0.4,1.5,1,2.1,1.6
			c0.6,0.6,1.2,1.3,1.6,2.1c0.4,0.8,0.8,1.6,1,2.5c0.2,0.9,0.4,1.8,0.4,2.8c0,1-0.1,1.9-0.4,2.8c-0.2,0.9-0.6,1.7-1,2.5
			c-0.5,0.8-1,1.5-1.6,2.1c-0.6,0.6-1.3,1.2-2.1,1.6c-0.8,0.5-1.6,0.8-2.5,1c-0.9,0.2-1.8,0.4-2.8,0.4c-1,0-1.9-0.1-2.8-0.4
			c-0.9-0.2-1.7-0.6-2.5-1c-0.8-0.5-1.5-1-2.1-1.6c-0.6-0.6-1.2-1.3-1.6-2.1s-0.8-1.6-1-2.5C319.5,70.2,319.4,69.3,319.4,68.3z
			 M324.6,68.3c0,0.8,0.1,1.5,0.4,2.1c0.3,0.7,0.6,1.2,1.1,1.7s1,0.9,1.6,1.1c0.6,0.3,1.3,0.4,2.1,0.4s1.4-0.1,2.1-0.4
			c0.6-0.3,1.2-0.7,1.6-1.1s0.8-1.1,1.1-1.7c0.3-0.7,0.4-1.4,0.4-2.1c0-0.7-0.1-1.4-0.4-2.1c-0.3-0.7-0.6-1.2-1.1-1.7
			c-0.5-0.5-1-0.9-1.6-1.2c-0.6-0.3-1.3-0.4-2.1-0.4s-1.4,0.1-2.1,0.4c-0.6,0.3-1.2,0.7-1.6,1.2c-0.5,0.5-0.8,1.1-1.1,1.7
			C324.8,66.9,324.6,67.6,324.6,68.3z"/>
		<path class="st4" d="M343.5,58.8c0-0.2,0-0.3,0.1-0.5c0.1-0.1,0.2-0.2,0.4-0.2h8.8c0.9,0,1.8,0.2,2.6,0.5c0.8,0.3,1.5,0.8,2.1,1.4
			c0.6,0.6,1.1,1.3,1.4,2.1c0.3,0.8,0.5,1.7,0.5,2.6c0,0.6-0.1,1.2-0.3,1.8c-0.2,0.6-0.4,1.1-0.7,1.6c-0.3,0.5-0.7,0.9-1.1,1.3
			c-0.4,0.4-0.9,0.7-1.4,1l3.5,6.6c0.1,0.1,0.1,0.3,0.2,0.4c0.1,0.2,0.1,0.3,0.1,0.4c0,0.1,0,0.3-0.1,0.3c-0.1,0.1-0.2,0.1-0.4,0.1
			h-4.7c-0.2,0-0.3,0-0.4-0.1c-0.1-0.1-0.2-0.2-0.2-0.4l-3.3-6.2h-2.2v6.1c0,0.4-0.2,0.6-0.6,0.6h-4c-0.2,0-0.3,0-0.4-0.1
			s-0.2-0.2-0.2-0.4V58.8z M354.2,64.9c0-0.3-0.1-0.5-0.2-0.8c-0.1-0.3-0.2-0.5-0.4-0.7c-0.2-0.2-0.4-0.4-0.7-0.6
			c-0.3-0.2-0.5-0.3-0.8-0.3c-0.3,0-0.5,0-0.7,0c-0.2,0-0.5,0-0.7,0h-1.9v5h2.5c0.2,0,0.3,0,0.4,0c0.1,0,0.3,0,0.4,0
			c0.3,0,0.6-0.1,0.9-0.3c0.3-0.1,0.5-0.3,0.6-0.6c0.2-0.2,0.3-0.5,0.4-0.7C354.1,65.5,354.2,65.2,354.2,64.9z"/>
		<path class="st4" d="M371.2,58.8c0-0.2,0-0.3,0.1-0.4c0.1-0.1,0.2-0.2,0.4-0.2h4c0.1,0,0.3,0.1,0.4,0.2c0.2,0.1,0.2,0.3,0.2,0.4
			v19c0,0.4-0.2,0.6-0.7,0.6h-4c-0.4,0-0.6-0.2-0.6-0.6V58.8z"/>
		<path class="st4" d="M380.4,58.8c0-0.2,0.1-0.3,0.2-0.4c0.1-0.1,0.3-0.2,0.4-0.2h4c0.2,0,0.3,0.1,0.4,0.2c0.1,0.1,0.2,0.3,0.2,0.4
			v14.8h7.5c0.2,0,0.3,0.1,0.4,0.2c0.1,0.1,0.2,0.3,0.2,0.4v3.6c0,0.2-0.1,0.3-0.2,0.4c-0.1,0.1-0.3,0.2-0.4,0.2H381
			c-0.4,0-0.6-0.2-0.6-0.6V58.8z"/>
		<path class="st4" d="M396.4,58.8c0-0.2,0.1-0.3,0.2-0.4c0.1-0.1,0.3-0.2,0.4-0.2h4c0.2,0,0.3,0.1,0.4,0.2c0.1,0.1,0.2,0.3,0.2,0.4
			v14.8h7.5c0.2,0,0.3,0.1,0.4,0.2c0.1,0.1,0.2,0.3,0.2,0.4v3.6c0,0.2-0.1,0.3-0.2,0.4c-0.1,0.1-0.3,0.2-0.4,0.2H397
			c-0.4,0-0.6-0.2-0.6-0.6V58.8z"/>
		<path class="st4" d="M413,58.8c0-0.2,0-0.3,0.1-0.4c0.1-0.1,0.2-0.2,0.4-0.2h4c0.1,0,0.3,0.1,0.4,0.2c0.2,0.1,0.2,0.3,0.2,0.4v19
			c0,0.4-0.2,0.6-0.7,0.6h-4c-0.4,0-0.6-0.2-0.6-0.6V58.8z"/>
		<path class="st4" d="M422.7,58.8c0-0.2,0-0.3,0.1-0.4c0.1-0.1,0.2-0.2,0.4-0.2h4.4c0.1,0,0.3,0,0.4,0.1c0.1,0.1,0.3,0.2,0.4,0.3
			c1.2,1.9,2.3,3.7,3.4,5.5s2.3,3.6,3.4,5.5V58.7c0-0.2,0.1-0.3,0.2-0.4c0.1-0.1,0.2-0.1,0.4-0.1h3.9c0.2,0,0.3,0.1,0.5,0.2
			c0.1,0.1,0.2,0.3,0.2,0.4v19.1c0,0.2-0.1,0.3-0.2,0.4s-0.3,0.1-0.4,0.1h-4.3c-0.1,0-0.2,0-0.3-0.1s-0.2-0.2-0.3-0.3
			c-1.2-2-2.4-4-3.6-5.9c-1.2-1.9-2.4-3.9-3.6-5.9v11.7c0,0.2,0,0.3-0.1,0.4c-0.1,0.1-0.3,0.1-0.5,0.1h-3.9c-0.2,0-0.4-0.1-0.5-0.2
			c-0.1-0.1-0.1-0.3-0.1-0.4V58.8z"/>
		<path class="st4" d="M444,68.3c0-1,0.1-1.9,0.4-2.8c0.2-0.9,0.6-1.7,1-2.5c0.5-0.8,1-1.5,1.6-2.1c0.6-0.6,1.3-1.2,2.1-1.6
			c0.8-0.4,1.6-0.8,2.5-1c0.9-0.2,1.8-0.4,2.8-0.4c1,0,1.9,0.1,2.8,0.4c0.9,0.2,1.7,0.6,2.5,1c0.8,0.4,1.5,1,2.1,1.6
			c0.6,0.6,1.2,1.3,1.6,2.1c0.4,0.8,0.8,1.6,1,2.5c0.2,0.9,0.4,1.8,0.4,2.8c0,1-0.1,1.9-0.4,2.8c-0.2,0.9-0.6,1.7-1,2.5
			c-0.5,0.8-1,1.5-1.6,2.1c-0.6,0.6-1.3,1.2-2.1,1.6c-0.8,0.5-1.6,0.8-2.5,1c-0.9,0.2-1.8,0.4-2.8,0.4c-1,0-1.9-0.1-2.8-0.4
			c-0.9-0.2-1.7-0.6-2.5-1c-0.8-0.5-1.5-1-2.1-1.6c-0.6-0.6-1.2-1.3-1.6-2.1c-0.5-0.8-0.8-1.6-1-2.5S444,69.3,444,68.3z M449.2,68.3
			c0,0.8,0.1,1.5,0.4,2.1c0.3,0.7,0.6,1.2,1.1,1.7s1,0.9,1.6,1.1c0.6,0.3,1.3,0.4,2.1,0.4c0.8,0,1.4-0.1,2.1-0.4
			c0.6-0.3,1.2-0.7,1.6-1.1s0.8-1.1,1.1-1.7c0.3-0.7,0.4-1.4,0.4-2.1c0-0.7-0.1-1.4-0.4-2.1c-0.3-0.7-0.6-1.2-1.1-1.7
			c-0.5-0.5-1-0.9-1.6-1.2c-0.6-0.3-1.3-0.4-2.1-0.4c-0.8,0-1.4,0.1-2.1,0.4c-0.6,0.3-1.2,0.7-1.6,1.2c-0.5,0.5-0.8,1.1-1.1,1.7
			C449.3,66.9,449.2,67.6,449.2,68.3z"/>
		<path class="st4" d="M468.1,58.8c0-0.2,0-0.3,0.1-0.4c0.1-0.1,0.2-0.2,0.4-0.2h4c0.1,0,0.3,0.1,0.4,0.2c0.2,0.1,0.2,0.3,0.2,0.4
			v19c0,0.4-0.2,0.6-0.7,0.6h-4c-0.4,0-0.6-0.2-0.6-0.6V58.8z"/>
		<path class="st4" d="M480.3,71.9c0.2,0.1,0.4,0.3,0.6,0.5c0.2,0.2,0.5,0.4,0.8,0.6c0.5,0.3,0.9,0.5,1.4,0.7
			c0.5,0.2,0.9,0.3,1.4,0.3c0.5,0,0.8-0.1,1.2-0.2c0.3-0.1,0.6-0.2,0.7-0.4s0.3-0.4,0.4-0.6c0.1-0.2,0.1-0.5,0.1-0.7
			c0-0.3-0.1-0.5-0.3-0.8c-0.2-0.2-0.5-0.4-0.8-0.6c-0.3-0.2-0.6-0.3-1-0.4c-0.3-0.1-0.6-0.2-0.9-0.3c-1.1-0.4-2-0.8-2.9-1.2
			c-0.8-0.4-1.5-0.9-2-1.5c-0.5-0.5-1-1.1-1.2-1.8c-0.3-0.6-0.4-1.4-0.4-2.2c0-0.8,0.2-1.6,0.5-2.3c0.3-0.7,0.8-1.3,1.5-1.8
			c0.6-0.5,1.4-0.9,2.3-1.1c0.9-0.3,1.9-0.4,3-0.4c0.8,0,1.6,0.1,2.4,0.3c0.8,0.2,1.5,0.5,2.2,0.9c0.3,0.2,0.6,0.4,0.9,0.6
			c0.3,0.2,0.5,0.4,0.7,0.6c0.2,0.2,0.4,0.4,0.5,0.5c0.1,0.2,0.2,0.3,0.2,0.4c0,0.1,0,0.2-0.1,0.3c-0.1,0.1-0.1,0.2-0.3,0.3
			l-2.1,2.2c-0.2,0.2-0.3,0.2-0.5,0.2c-0.1,0-0.2,0-0.3-0.1c-0.1-0.1-0.2-0.2-0.3-0.3l-0.1-0.1c-0.2-0.2-0.4-0.3-0.6-0.5
			c-0.2-0.2-0.5-0.3-0.7-0.4c-0.3-0.1-0.5-0.2-0.8-0.3c-0.3-0.1-0.6-0.1-0.9-0.1c-0.3,0-0.6,0-0.8,0.1s-0.5,0.1-0.7,0.2
			c-0.2,0.1-0.4,0.3-0.5,0.4s-0.2,0.4-0.2,0.6s0.1,0.5,0.2,0.7c0.1,0.2,0.3,0.4,0.6,0.5c0.3,0.2,0.6,0.3,0.9,0.4
			c0.4,0.1,0.8,0.3,1.3,0.5c1,0.3,1.8,0.7,2.7,1c0.8,0.3,1.5,0.8,2.1,1.2c0.6,0.5,1,1,1.4,1.7c0.3,0.7,0.5,1.5,0.5,2.4
			c0,1-0.2,1.9-0.6,2.7c-0.4,0.8-1,1.5-1.7,2.1c-0.7,0.6-1.5,1-2.5,1.3c-1,0.3-2,0.5-3.1,0.5c-1,0-2.1-0.2-3.1-0.6
			c-1-0.4-1.9-0.9-2.8-1.5c-0.4-0.3-0.7-0.5-0.9-0.8c-0.3-0.3-0.4-0.5-0.6-0.6l0,0c0,0,0,0,0,0c0,0,0,0,0,0c0,0,0,0,0,0c0,0,0,0,0,0
			c-0.2-0.2-0.3-0.4-0.3-0.5c0-0.2,0.1-0.3,0.3-0.5l2.4-2.2c0.2-0.1,0.3-0.2,0.5-0.2c0.1,0,0.2,0,0.3,0.1
			C480.1,71.7,480.2,71.8,480.3,71.9z"/>
	</g>
</g>
</svg>
