<svg id="Layer_1" data-name="Layer 1" xmlns="http://www.w3.org/2000/svg" viewBox="0 0 561.98 80.32"><defs><style>.cls-1{fill:#fff;}.cls-2{fill:#ff7f5f;}.cls-3{fill:#f47e61;stroke:#f47e61;stroke-miterlimit:10;stroke-width:0.6px;}</style></defs><title>Pawar2018_Logo_Espanol_01</title><path class="cls-1" d="M788.88,9.78a0.92,0.92,0,0,1,.21-0.41,2.38,2.38,0,0,1,1-.71,1.49,1.49,0,0,1,.54-0.11h8.12a1.35,1.35,0,0,1,.92.33,4.11,4.11,0,0,1,.57.59L801,11.27l16.66,43a0.93,0.93,0,0,1-.1,1,1.54,1.54,0,0,1-1.21.4h-9.11a2,2,0,0,1-1.13-.27,1.74,1.74,0,0,1-.62-0.9q-0.64-1.62-1.24-3.22L803.06,48H786.21q-0.6,1.62-1.22,3.22t-1.22,3.22a1.59,1.59,0,0,1-1.62,1.17h-9.36a1.55,1.55,0,0,1-1-.32,0.75,0.75,0,0,1-.14-1Zm5.77,13.58Q794,25,793.43,26.85t-1.22,3.78q-0.6,1.9-1.22,3.76t-1.22,3.47h9.74Z" transform="translate(-702.65)"/><path class="cls-1" d="M827.06,9.94a1.68,1.68,0,0,1,.44-1,1.39,1.39,0,0,1,1.08-.41h11a1.48,1.48,0,0,1,1.52,1.21l8.63,28.81,8.69-28.81A1.63,1.63,0,0,1,860,8.54h10.85a1.54,1.54,0,0,1,1,.4,1.48,1.48,0,0,1,.52,1q1.11,11.17,2.27,22.16T877,54.26v0.16a1.17,1.17,0,0,1-1.4,1.24h-9a1.33,1.33,0,0,1-1.52-1.4l-2.76-24.53-7.14,24.68a1.79,1.79,0,0,1-.46.76,1.09,1.09,0,0,1-.78.44h-8.34a1.2,1.2,0,0,1-.81-0.43,1.37,1.37,0,0,1-.46-0.78L837.18,29.8l-2.76,24.46a1.34,1.34,0,0,1-1.56,1.4h-9a1.22,1.22,0,0,1-1.36-1.4Z" transform="translate(-702.65)"/><path class="cls-1" d="M885.11,10a1.51,1.51,0,0,1,.36-1.06,1.33,1.33,0,0,1,1-.4H918a1.4,1.4,0,0,1,1.08.41,1.57,1.57,0,0,1,.38,1.11V17.9a1.66,1.66,0,0,1-.38,1,1.32,1.32,0,0,1-1.11.49H897.39v7.87h15.86a1.67,1.67,0,0,1,1,.29,1.09,1.09,0,0,1,.4,1v6.85a1.32,1.32,0,0,1-.35.86,1.26,1.26,0,0,1-1,.41h-15.9v8.12h21.32a1.27,1.27,0,0,1,1.43,1.46v8a0.78,0.78,0,0,1-.25.57,1.09,1.09,0,0,1-1.3.89H886.5a1.48,1.48,0,0,1-1-.33,1.3,1.3,0,0,1-.38-1V10Z" transform="translate(-702.65)"/><path class="cls-1" d="M946.49,25.93l7.66-16.4A4.39,4.39,0,0,1,954.47,9a1,1,0,0,1,.25-0.25,0.65,0.65,0,0,1,.27-0.1,1.62,1.62,0,0,0,.33-0.08h12.22a0.5,0.5,0,0,1,.37.14A0.46,0.46,0,0,1,968,9a1.23,1.23,0,0,1-.44.79l-15,26.62V54.17a1.3,1.3,0,0,1-1.46,1.49h-9.49a1.23,1.23,0,0,1-1-.4,1.6,1.6,0,0,1-.35-1.09V36.37l-15-26.56A1.16,1.16,0,0,1,924.86,9,0.48,0.48,0,0,1,925,8.68a0.44,0.44,0,0,1,.35-0.14h12.22l0.35,0.08a0.64,0.64,0,0,1,.25.1,1,1,0,0,1,.25.25q0.13,0.17.35,0.56Z" transform="translate(-702.65)"/><path class="cls-1" d="M979.57,9.78a0.92,0.92,0,0,1,.21-0.41,2.38,2.38,0,0,1,1-.71,1.49,1.49,0,0,1,.54-0.11h8.12a1.35,1.35,0,0,1,.92.33,4.11,4.11,0,0,1,.57.59l0.79,1.81,16.66,43a0.93,0.93,0,0,1-.1,1,1.54,1.54,0,0,1-1.21.4h-9.11a2,2,0,0,1-1.13-.27,1.74,1.74,0,0,1-.62-0.9q-0.64-1.62-1.24-3.22L993.75,48H976.9q-0.6,1.62-1.22,3.22t-1.22,3.22a1.59,1.59,0,0,1-1.62,1.17h-9.36a1.55,1.55,0,0,1-1-.32,0.75,0.75,0,0,1-.14-1Zm5.77,13.58q-0.6,1.62-1.22,3.49t-1.22,3.78q-0.6,1.9-1.22,3.76t-1.22,3.47h9.74Z" transform="translate(-702.65)"/><path class="cls-1" d="M1035.18,10a1.55,1.55,0,0,1,.35-1.06,1.32,1.32,0,0,1,1-.4h20.27a13.8,13.8,0,0,1,4.12.6,14,14,0,0,1,3.55,1.67,14.47,14.47,0,0,1,2.92,2.54,16.36,16.36,0,0,1,2.21,3.19,16.17,16.17,0,0,1,1.38,3.6,15.62,15.62,0,0,1-.56,9.41,15.33,15.33,0,0,1-2.93,4.85,15,15,0,0,1-4.57,3.44,13.43,13.43,0,0,1-5.9,1.35h-9.61v15.1a1.25,1.25,0,0,1-1.46,1.36h-9.42a1.49,1.49,0,0,1-1-.33,1.3,1.3,0,0,1-.38-1V10Zm23.89,13.9a5.74,5.74,0,0,0-.33-1.9,5.27,5.27,0,0,0-1-1.7,5.14,5.14,0,0,0-1.54-1.22,4.33,4.33,0,0,0-2-.48h-6.73V29.2h6.73a4.55,4.55,0,0,0,2.06-.46,4.82,4.82,0,0,0,1.54-1.19,5.25,5.25,0,0,0,1-1.68A5.92,5.92,0,0,0,1059.08,23.9Z" transform="translate(-702.65)"/><path class="cls-1" d="M1086.51,9.78a0.92,0.92,0,0,1,.21-0.41,2.38,2.38,0,0,1,1-.71,1.49,1.49,0,0,1,.54-0.11h8.12a1.35,1.35,0,0,1,.92.33,4.11,4.11,0,0,1,.57.59l0.79,1.81,16.66,43a0.93,0.93,0,0,1-.1,1,1.54,1.54,0,0,1-1.21.4h-9.11a2,2,0,0,1-1.13-.27,1.74,1.74,0,0,1-.62-0.9q-0.64-1.62-1.24-3.22L1100.69,48h-16.85q-0.6,1.62-1.22,3.22t-1.22,3.22a1.59,1.59,0,0,1-1.62,1.17h-9.36a1.55,1.55,0,0,1-1-.32,0.75,0.75,0,0,1-.14-1Zm5.77,13.58q-0.6,1.62-1.22,3.49t-1.22,3.78q-0.6,1.9-1.22,3.76t-1.22,3.47h9.74Z" transform="translate(-702.65)"/><path class="cls-1" d="M1127.28,55q-0.32-.54-0.6-1.11t-0.51-1.14Q1122.07,42,1118,31.35T1109.86,10a0.83,0.83,0,0,0,0-.29,0.71,0.71,0,0,1,0-.25q0-.89,1.17-0.89h10.22a1.65,1.65,0,0,1,1.65,1.21l9.71,28.9,9-28.9a1.71,1.71,0,0,1,1.75-1.21h10.31a1.55,1.55,0,0,1,1,.27,0.91,0.91,0,0,1,.3.71,1.27,1.27,0,0,1,0,.35V10l-5.65,16.18,4.25,12.47,10.28-28.87a1.71,1.71,0,0,1,1.75-1.21h10a1.55,1.55,0,0,1,1,.27,0.91,0.91,0,0,1,.3.71,1.34,1.34,0,0,1,0,.35V10q-2.16,5.58-4.41,11.14t-4.52,11.1q-2.27,5.55-4.51,11.12T1159,54.45a2.21,2.21,0,0,1-.57.78,1.5,1.5,0,0,1-1.08.43h-7.77a1.77,1.77,0,0,1-1.06-.27,1.49,1.49,0,0,1-.52-0.71l-5-13.2-2.13,5.66q-1,2.78-2.09,5.66-0.16.44-.36,0.94a5.42,5.42,0,0,1-.49.92,3,3,0,0,1-.65.71,1.32,1.32,0,0,1-.84.29h-7.77A1.32,1.32,0,0,1,1127.28,55Z" transform="translate(-702.65)"/><path class="cls-1" d="M1187.77,9.78a0.92,0.92,0,0,1,.21-0.41,2.38,2.38,0,0,1,1-.71,1.49,1.49,0,0,1,.54-0.11h8.12a1.35,1.35,0,0,1,.92.33,4.11,4.11,0,0,1,.57.59l0.79,1.81,16.66,43a0.93,0.93,0,0,1-.1,1,1.54,1.54,0,0,1-1.21.4h-9.11a2,2,0,0,1-1.13-.27,1.74,1.74,0,0,1-.62-0.9q-0.64-1.62-1.24-3.22L1201.95,48H1185.1q-0.6,1.62-1.22,3.22t-1.22,3.22a1.59,1.59,0,0,1-1.62,1.17h-9.36a1.55,1.55,0,0,1-1-.32,0.75,0.75,0,0,1-.14-1Zm5.77,13.58q-0.6,1.62-1.22,3.49t-1.22,3.78q-0.6,1.9-1.22,3.76t-1.22,3.47h9.74Z" transform="translate(-702.65)"/><path class="cls-1" d="M1222.92,10a1.55,1.55,0,0,1,.35-1.06,1.32,1.32,0,0,1,1-.4h20.5a15.42,15.42,0,0,1,6.12,1.22,16,16,0,0,1,5,3.32,15.49,15.49,0,0,1,3.35,4.9,14.85,14.85,0,0,1,1.22,6,14.22,14.22,0,0,1-.59,4.11,15.35,15.35,0,0,1-1.63,3.65,15.51,15.51,0,0,1-2.49,3.08,16.27,16.27,0,0,1-3.16,2.36l8.16,15.36q0.22,0.45.57,1a2.17,2.17,0,0,1,.35,1,0.94,0.94,0,0,1-.33.78,1.39,1.39,0,0,1-.9.27h-10.88a1.58,1.58,0,0,1-1-.32,1.44,1.44,0,0,1-.56-0.86L1240.34,40h-5.14V54.29a1.25,1.25,0,0,1-1.46,1.36h-9.42a1.49,1.49,0,0,1-1-.33,1.3,1.3,0,0,1-.38-1V10Zm24.84,14.09a5.49,5.49,0,0,0-.35-1.9,6.18,6.18,0,0,0-1-1.75,5.77,5.77,0,0,0-1.52-1.33,5.22,5.22,0,0,0-2-.7l-1.67-.11q-0.78,0-1.7,0h-4.38V29.89H1241c0.38,0,.72,0,1,0l1-.09a5,5,0,0,0,2-.65,5.2,5.2,0,0,0,1.49-1.3,5.75,5.75,0,0,0,.92-1.75A6.35,6.35,0,0,0,1247.76,24.09Z" transform="translate(-702.65)"/><path class="cls-2" d="M758.18,46.11l1.06-1.9a8.62,8.62,0,0,0,.35-4.14c-0.25-1.06-1.41-3.93-1.41-3.93l0-.1-0.49.07,0.49-.07c-3-8.15-6-16.35-9.1-24.33-0.63-1.66-1.55-3.2-2.15-3.33C732.7,5.47,718.54,2.75,704.37,0a6.49,6.49,0,0,0-1.72.22c3,5.23,5.42,9.69,7.86,13.65a10.84,10.84,0,0,0,3.32,3.77c11.32,6.07,22.62,11.92,33.93,17.86,1.73,0.91,3.47,2,5.2,3,0,0,.12,0,0.12,1.28L716,24.64l0.09,1.91c2.79,3,5.76,7.73,8.32,8.74,5.43,2.14,10.64,2.35,15.95,3.36,5.1,1,10.2,2,15.3,3l0.15,1.09-27.93-.36c2.37,2.46,4.59,3.69,6.86,5.45,2.88,2.24,5.49,2.79,8,1.59,4.71-2.29,9.58-3.66,14.38-5.42l0.16,0.85-13.85,8.49c2,1.74,3.93,3.24,5.59,2.92s3.09-2.27,4.54-3.87,2.7-3.56,4-5.36" transform="translate(-702.65)"/><path class="cls-3" d="M954.68,77a2,2,0,0,0,1.68.78A2,2,0,0,0,958,77a3.32,3.32,0,0,0,.62-2.12V68.71h2.5V75a5,5,0,0,1-1.34,3.74,5.19,5.19,0,0,1-6.89,0A5,5,0,0,1,951.56,75V68.71h2.5v6.18A3.29,3.29,0,0,0,954.68,77Z" transform="translate(-702.65)"/><path class="cls-3" d="M972,68.71h2.5V79.9H972l-5.33-7v7h-2.5V68.71h2.34l5.49,7.2v-7.2Z" transform="translate(-702.65)"/><path class="cls-3" d="M990.29,68.71h2.5V79.9h-2.5l-5.33-7v7h-2.5V68.71h2.34l5.49,7.2v-7.2Z" transform="translate(-702.65)"/><path class="cls-3" d="M999,77a2.2,2.2,0,0,0,3.35,0,3.32,3.32,0,0,0,.62-2.12V68.71h2.5V75a5,5,0,0,1-1.34,3.74,5.19,5.19,0,0,1-6.89,0A5,5,0,0,1,995.86,75V68.71h2.5v6.18A3.29,3.29,0,0,0,999,77Z" transform="translate(-702.65)"/><path class="cls-3" d="M1016.58,68.71v2.22H1011v2.3h5v2.13h-5v2.32h5.74V79.9h-8.24V68.71h8.06Z" transform="translate(-702.65)"/><path class="cls-3" d="M1023.59,75.83l2.85-7.12h2.7l-4.5,11.18h-2.11L1018,68.71h2.7Z" transform="translate(-702.65)"/><path class="cls-3" d="M1040.1,78.35a6.09,6.09,0,0,1-8.35,0,5.85,5.85,0,0,1,0-8.24,6.09,6.09,0,0,1,8.35,0A5.85,5.85,0,0,1,1040.1,78.35Zm-0.85-4.11a3.66,3.66,0,0,0-1-2.55,3.16,3.16,0,0,0-4.72,0,3.86,3.86,0,0,0,0,5.1,3.18,3.18,0,0,0,4.72,0A3.63,3.63,0,0,0,1039.25,74.24Z" transform="translate(-702.65)"/><path class="cls-3" d="M1057.06,79.9l-1-2.42h-4.69l-1,2.42h-2.66l4.83-11.18h2.42l4.83,11.18h-2.66ZM1053.68,72l-1.41,3.25h2.8Z" transform="translate(-702.65)"/><path class="cls-3" d="M1066.63,77.69a3.68,3.68,0,0,0,3-1.46l1.6,1.65a6,6,0,0,1-8.74.51,5.91,5.91,0,0,1,0-8.27,5.74,5.74,0,0,1,4.17-1.66,5.91,5.91,0,0,1,4.61,2.1l-1.55,1.76a3.64,3.64,0,0,0-2.94-1.47,3.43,3.43,0,0,0-2.41.92,3.21,3.21,0,0,0-1,2.48,3.39,3.39,0,0,0,.94,2.5A3.12,3.12,0,0,0,1066.63,77.69Z" transform="translate(-702.65)"/><path class="cls-3" d="M1076.64,77a2.2,2.2,0,0,0,3.35,0,3.32,3.32,0,0,0,.62-2.12V68.71h2.5V75a5,5,0,0,1-1.34,3.74,5.19,5.19,0,0,1-6.89,0,5,5,0,0,1-1.35-3.73V68.71h2.5v6.18A3.29,3.29,0,0,0,1076.64,77Z" transform="translate(-702.65)"/><path class="cls-3" d="M1094.24,68.71v2.22h-5.57v2.3h5v2.13h-5v2.32h5.74V79.9h-8.24V68.71h8.06Z" transform="translate(-702.65)"/><path class="cls-3" d="M1106.2,72.42a3.29,3.29,0,0,1-2.13,3.47l2.83,4h-3.07l-2.48-3.57h-1.73V79.9h-2.5V68.71h4.24a6.08,6.08,0,0,1,3.72.88A3.4,3.4,0,0,1,1106.2,72.42Zm-3,1.33a1.69,1.69,0,0,0,.46-1.32,1.41,1.41,0,0,0-.48-1.24,3.07,3.07,0,0,0-1.68-.34h-1.87v3.31h1.82A2.69,2.69,0,0,0,1103.19,73.75Z" transform="translate(-702.65)"/><path class="cls-3" d="M1117.78,70.18a5.24,5.24,0,0,1,1.6,4.07,5.5,5.5,0,0,1-1.56,4.13,6.58,6.58,0,0,1-4.76,1.52h-3.82V68.71h4A6.57,6.57,0,0,1,1117.78,70.18Zm-1.83,6.65a3.28,3.28,0,0,0,.92-2.51,3.36,3.36,0,0,0-.92-2.54,3.93,3.93,0,0,0-2.82-.89h-1.39v6.8h1.58A3.7,3.7,0,0,0,1115.95,76.82Z" transform="translate(-702.65)"/><path class="cls-3" d="M1131.43,78.35a6.09,6.09,0,0,1-8.35,0,5.85,5.85,0,0,1,0-8.24,6.09,6.09,0,0,1,8.35,0A5.85,5.85,0,0,1,1131.43,78.35Zm-0.85-4.11a3.66,3.66,0,0,0-1-2.55,3.16,3.16,0,0,0-4.72,0,3.86,3.86,0,0,0,0,5.1,3.18,3.18,0,0,0,4.72,0A3.63,3.63,0,0,0,1130.58,74.24Z" transform="translate(-702.65)"/><path class="cls-3" d="M1148.12,69.71a3.81,3.81,0,0,1,1.18,3.07,3.64,3.64,0,0,1-1.21,3,5.87,5.87,0,0,1-3.69,1h-1.49V79.9h-2.5V68.71h4A5.74,5.74,0,0,1,1148.12,69.71Zm-1.83,4.4a2.15,2.15,0,0,0,.45-1.47,1.56,1.56,0,0,0-.58-1.38,3.21,3.21,0,0,0-1.82-.41h-1.42v3.76h1.68A2.23,2.23,0,0,0,1146.29,74.11Z" transform="translate(-702.65)"/><path class="cls-3" d="M1159,79.9l-1-2.42h-4.69l-1,2.42h-2.66l4.83-11.18h2.42l4.83,11.18H1159ZM1155.67,72l-1.41,3.25h2.8Z" transform="translate(-702.65)"/><path class="cls-3" d="M1172.55,72.42a3.29,3.29,0,0,1-2.13,3.47l2.83,4h-3.07l-2.48-3.57H1166V79.9h-2.5V68.71h4.24a6.08,6.08,0,0,1,3.72.88A3.4,3.4,0,0,1,1172.55,72.42Zm-3,1.33a1.69,1.69,0,0,0,.46-1.32,1.41,1.41,0,0,0-.48-1.24,3.07,3.07,0,0,0-1.68-.34H1166v3.31h1.82A2.69,2.69,0,0,0,1169.54,73.75Z" transform="translate(-702.65)"/><path class="cls-3" d="M1183.55,79.9l-1-2.42h-4.69l-1,2.42h-2.66L1179,68.71h2.42l4.83,11.18h-2.66ZM1180.18,72l-1.41,3.25h2.8Z" transform="translate(-702.65)"/><path class="cls-3" d="M1192.69,68.71h2.5V79.9h-2.5V68.71Z" transform="translate(-702.65)"/><path class="cls-3" d="M1198.42,79.9V68.71h2.5v9h4.77V79.9h-7.26Z" transform="translate(-702.65)"/><path class="cls-3" d="M1208,79.9V68.71h2.5v9h4.77V79.9H1208Z" transform="translate(-702.65)"/><path class="cls-3" d="M1217.55,68.71h2.5V79.9h-2.5V68.71Z" transform="translate(-702.65)"/><path class="cls-3" d="M1231.11,68.71h2.5V79.9h-2.5l-5.33-7v7h-2.5V68.71h2.34l5.49,7.2v-7.2Z" transform="translate(-702.65)"/><path class="cls-3" d="M1246.24,78.35a6.09,6.09,0,0,1-8.35,0,5.85,5.85,0,0,1,0-8.24,6.09,6.09,0,0,1,8.35,0A5.85,5.85,0,0,1,1246.24,78.35Zm-0.85-4.11a3.66,3.66,0,0,0-1-2.55,3.16,3.16,0,0,0-4.72,0,3.86,3.86,0,0,0,0,5.1,3.18,3.18,0,0,0,4.72,0A3.63,3.63,0,0,0,1245.39,74.24Z" transform="translate(-702.65)"/><path class="cls-3" d="M1250.53,68.71h2.5V79.9h-2.5V68.71Z" transform="translate(-702.65)"/><path class="cls-3" d="M1258.87,70.94a1,1,0,0,0-.36.78,0.88,0.88,0,0,0,.44.78,8,8,0,0,0,2,.68,5.72,5.72,0,0,1,2.47,1.18,2.91,2.91,0,0,1,.88,2.29,3,3,0,0,1-1.13,2.44,4.5,4.5,0,0,1-3,.94,6.87,6.87,0,0,1-4.78-2l1.49-1.82a5.29,5.29,0,0,0,3.34,1.58,1.76,1.76,0,0,0,1.08-.3,1,1,0,0,0,.39-0.8,0.93,0.93,0,0,0-.42-0.8,5.44,5.44,0,0,0-1.65-.6,7.16,7.16,0,0,1-2.86-1.21,2.85,2.85,0,0,1-.9-2.34,2.9,2.9,0,0,1,1.14-2.46,4.6,4.6,0,0,1,2.86-.86,6.87,6.87,0,0,1,2.24.38,6,6,0,0,1,2,1.09l-1.26,1.82a4.93,4.93,0,0,0-3-1.1A1.5,1.5,0,0,0,1258.87,70.94Z" transform="translate(-702.65)"/></svg>
