<?xml version="1.0" encoding="utf-8"?>
<!-- Generator: Adobe Illustrator 21.0.0, SVG Export Plug-In . SVG Version: 6.00 Build 0)  -->
<svg version="1.1" id="Layer_1" xmlns="http://www.w3.org/2000/svg" xmlns:xlink="http://www.w3.org/1999/xlink" x="0px" y="0px" width="559.4" height="70.3"
	 viewBox="0 0 559.4 70.3" style="enable-background:new 0 0 559.4 70.3;" xml:space="preserve">
<style type="text/css">
	.st0{fill:#FFFFFF;stroke:#FFFFFF;stroke-width:0.5;stroke-miterlimit:10;}
	.st1{fill:#FF7F5F;}
</style>
<title>Asset 3</title>
<path class="st0" d="M86.3,1.5c0-0.2,0.1-0.3,0.2-0.4c0.1-0.2,0.3-0.3,0.4-0.4c0.2-0.1,0.3-0.2,0.5-0.3c0.2-0.1,0.4-0.1,0.5-0.1h8.1
	c0.3,0,0.7,0.1,0.9,0.3c0.2,0.2,0.4,0.4,0.6,0.6L98.5,3l16.7,43c0.2,0.3,0.1,0.7-0.1,1c-0.3,0.3-0.8,0.4-1.2,0.4h-9.1
	c-0.4,0-0.8-0.1-1.1-0.3c-0.3-0.2-0.5-0.5-0.6-0.9c-0.4-1.1-0.8-2.2-1.2-3.2l-1.2-3.2H83.7c-0.4,1.1-0.8,2.2-1.2,3.2
	c-0.4,1.1-0.8,2.1-1.2,3.2c-0.2,0.7-0.9,1.2-1.6,1.2h-9.4c-0.4,0-0.7-0.1-1-0.3c-0.3-0.2-0.4-0.7-0.1-1L86.3,1.5z M92.1,15.1
	c-0.4,1.1-0.8,2.2-1.2,3.5s-0.8,2.5-1.2,3.8c-0.4,1.3-0.8,2.5-1.2,3.8c-0.4,1.2-0.8,2.4-1.2,3.5H97L92.1,15.1z"/>
<path class="st0" d="M121.5,1.6c0-0.4,0.2-0.7,0.4-1c0.3-0.3,0.7-0.4,1.1-0.4h11c0.7,0,1.4,0.5,1.5,1.2l8.6,28.8l8.7-28.8
	c0.2-0.7,0.9-1.2,1.6-1.2h10.9c0.4,0,0.7,0.2,1,0.4c0.3,0.3,0.5,0.6,0.5,1c0.7,7.4,1.5,14.8,2.3,22.2s1.5,14.7,2.3,22.2v0.2
	c0,0.8-0.5,1.2-1.4,1.2h-9c-0.7,0.1-1.4-0.4-1.5-1.1c0-0.1,0-0.2,0-0.3l-2.8-24.5l-7.1,24.7c-0.1,0.3-0.2,0.5-0.5,0.8
	c-0.2,0.3-0.5,0.4-0.8,0.4h-8.3c-0.3,0-0.6-0.2-0.8-0.4c-0.2-0.2-0.4-0.5-0.5-0.8l-7.1-24.6L128.9,46c0,0.9-0.6,1.4-1.6,1.4h-9
	c-0.7,0.1-1.3-0.4-1.3-1.1c0-0.1,0-0.2,0-0.3L121.5,1.6z"/>
<path class="st0" d="M178.6,1.7c0-0.4,0.1-0.8,0.4-1.1c0.3-0.3,0.6-0.4,1-0.4h31.5c0.4,0,0.8,0.1,1.1,0.4c0.3,0.3,0.4,0.7,0.4,1.1
	v7.8c0,0.4-0.1,0.7-0.4,1c-0.3,0.3-0.7,0.5-1.1,0.5h-20.5V19h15.9c0.4,0,0.7,0.1,1,0.3c0.3,0.2,0.5,0.6,0.4,1v6.9
	c0,0.3-0.1,0.6-0.4,0.9c-0.3,0.3-0.6,0.4-1,0.4h-15.9v8.1h21.3c0.7-0.1,1.3,0.4,1.4,1.1c0,0.1,0,0.3,0,0.4v8c0,0.2-0.1,0.4-0.2,0.6
	c-0.1,0.6-0.5,0.9-1.3,0.9H180c-0.4,0-0.7-0.1-1-0.3c-0.3-0.3-0.4-0.6-0.4-1L178.6,1.7z"/>
<path class="st0" d="M240,17.6l7.7-16.4c0.1-0.2,0.2-0.4,0.3-0.6c0.1-0.1,0.2-0.2,0.2-0.2c0.1-0.1,0.2-0.1,0.3-0.1
	c0.1,0,0.2,0,0.3-0.1H261c0.1,0,0.3,0,0.4,0.1c0.1,0.1,0.1,0.2,0.1,0.3c0,0.3-0.2,0.6-0.4,0.8L246,28.1v17.7
	c0.1,0.7-0.4,1.4-1.1,1.5c-0.1,0-0.3,0-0.4,0H235c-0.4,0-0.7-0.1-1-0.4c-0.2-0.3-0.4-0.7-0.4-1.1V28.1l-15-26.6
	c-0.2-0.2-0.4-0.5-0.4-0.8c0-0.1,0-0.2,0.1-0.3c0.1-0.1,0.2-0.1,0.4-0.1H231l0.4,0.1c0.1,0,0.2,0,0.2,0.1c0.1,0.1,0.2,0.2,0.2,0.3
	c0.1,0.1,0.2,0.3,0.4,0.6L240,17.6z"/>
<path class="st0" d="M271,1.5c0-0.2,0.1-0.3,0.2-0.4c0.1-0.2,0.3-0.3,0.4-0.4c0.2-0.1,0.3-0.2,0.5-0.3c0.2-0.1,0.4-0.1,0.5-0.1h8.1
	c0.3,0,0.7,0.1,0.9,0.3c0.2,0.2,0.4,0.4,0.6,0.6l0.8,1.8l16.7,43c0.2,0.3,0.1,0.7-0.1,1c-0.3,0.3-0.8,0.4-1.2,0.4h-9.1
	c-0.4,0-0.8-0.1-1.1-0.3c-0.3-0.2-0.5-0.5-0.6-0.9c-0.4-1.1-0.8-2.2-1.2-3.2l-1.2-3.2h-16.8c-0.4,1.1-0.8,2.2-1.2,3.2
	s-0.8,2.1-1.2,3.2c-0.2,0.7-0.9,1.2-1.6,1.2H255c-0.4,0-0.7-0.1-1-0.3c-0.3-0.2-0.4-0.7-0.1-1L271,1.5z M276.8,15.1
	c-0.4,1.1-0.8,2.2-1.2,3.5s-0.8,2.5-1.2,3.8c-0.4,1.3-0.8,2.5-1.2,3.8c-0.4,1.2-0.8,2.4-1.2,3.5h9.7L276.8,15.1z"/>
<path class="st0" d="M326.7,1.7c0-0.4,0.1-0.8,0.3-1.1c0.3-0.3,0.6-0.4,1-0.4h20.3c1.4,0,2.8,0.2,4.1,0.6c1.3,0.4,2.5,0.9,3.6,1.7
	c1.1,0.7,2.1,1.6,2.9,2.5c0.9,1,1.6,2,2.2,3.2c0.6,1.1,1.1,2.3,1.4,3.6c0.8,3.1,0.6,6.4-0.6,9.4c-0.7,1.8-1.7,3.4-3,4.9
	c-1.3,1.4-2.8,2.6-4.6,3.4c-1.8,0.9-3.9,1.4-5.9,1.4h-9.6V46c0,0.9-0.5,1.4-1.5,1.4H328c-0.4,0-0.7-0.1-1-0.3
	c-0.3-0.3-0.4-0.6-0.4-1V1.7z M350.5,15.6c0-0.6-0.1-1.3-0.3-1.9c-0.2-0.6-0.6-1.2-1-1.7c-0.4-0.5-1-0.9-1.5-1.2
	c-0.6-0.3-1.3-0.5-2-0.5h-6.7v10.6h6.7c0.7,0,1.4-0.1,2.1-0.5c0.6-0.3,1.1-0.7,1.5-1.2c0.4-0.5,0.8-1.1,1-1.7
	C350.5,16.9,350.6,16.3,350.5,15.6z"/>
<path class="st0" d="M379,1.5c0-0.2,0.1-0.3,0.2-0.4c0.1-0.2,0.3-0.3,0.4-0.4c0.2-0.1,0.3-0.2,0.5-0.3c0.2-0.1,0.4-0.1,0.5-0.1h8.1
	c0.3,0,0.7,0.1,0.9,0.3c0.2,0.2,0.4,0.4,0.6,0.6l0.8,1.8l16.7,43c0.2,0.3,0.1,0.7-0.1,1c-0.3,0.3-0.8,0.4-1.2,0.4h-9.1
	c-0.4,0-0.8-0.1-1.1-0.3c-0.3-0.2-0.5-0.5-0.6-0.9c-0.4-1.1-0.8-2.2-1.2-3.2l-1.2-3.2h-16.8c-0.4,1.1-0.8,2.2-1.2,3.2
	s-0.8,2.1-1.2,3.2c-0.2,0.7-0.9,1.2-1.6,1.2h-9.4c-0.4,0-0.7-0.1-1-0.3c-0.3-0.2-0.4-0.7-0.1-1L379,1.5z M384.8,15.1
	c-0.4,1.1-0.8,2.2-1.2,3.5c-0.4,1.2-0.8,2.5-1.2,3.8c-0.4,1.3-0.8,2.5-1.2,3.8c-0.4,1.2-0.8,2.4-1.2,3.5h9.7L384.8,15.1z"/>
<path class="st0" d="M421.8,46.7c-0.2-0.4-0.4-0.7-0.6-1.1c-0.2-0.4-0.4-0.8-0.5-1.1c-2.7-7.2-5.4-14.3-8.2-21.4s-5.4-14.2-8.1-21.4
	c0-0.1,0-0.2,0-0.3c0-0.1,0-0.2,0-0.2c0-0.6,0.4-0.9,1.2-0.9h10.2c0.8,0,1.4,0.5,1.6,1.2l9.6,28.9l9-28.9c0.2-0.7,0.9-1.2,1.7-1.2
	H448c0.4,0,0.7,0.1,1,0.3c0.2,0.2,0.3,0.4,0.3,0.7c0,0.1,0,0.2,0,0.4v0.1l-5.6,16.2l4.2,12.5l10.3-28.9c0.2-0.8,1-1.3,1.8-1.2h10
	c0.4,0,0.7,0.1,1,0.3c0.2,0.2,0.3,0.4,0.3,0.7c0,0.1,0,0.2,0,0.4v0.1c-1.4,3.7-2.9,7.4-4.4,11.1s-3,7.4-4.5,11.1
	c-1.5,3.7-3,7.4-4.5,11.1s-2.9,7.4-4.4,11.1c-0.1,0.3-0.3,0.6-0.6,0.8c-0.3,0.3-0.7,0.4-1.1,0.4H444c-0.4,0-0.7-0.1-1-0.3
	c-0.2-0.2-0.4-0.4-0.5-0.7l-5-13.2l-2.1,5.7c-0.7,1.9-1.4,3.7-2.1,5.7c-0.1,0.3-0.2,0.6-0.4,0.9c-0.1,0.3-0.3,0.6-0.5,0.9
	c-0.2,0.3-0.4,0.5-0.6,0.7c-0.2,0.2-0.5,0.3-0.8,0.3h-7.8C422.6,47.5,422,47.2,421.8,46.7z"/>
<path class="st0" d="M485.2,1.5c0-0.2,0.1-0.3,0.2-0.4c0.1-0.2,0.3-0.3,0.4-0.4c0.2-0.1,0.3-0.2,0.5-0.3c0.2-0.1,0.4-0.1,0.6-0.1
	h8.1c0.3,0,0.7,0.1,0.9,0.3c0.2,0.2,0.4,0.4,0.6,0.6l0.7,1.8L514,46c0.2,0.3,0.1,0.7-0.1,1c-0.3,0.3-0.8,0.4-1.2,0.4h-9.1
	c-0.4,0-0.8-0.1-1.1-0.3c-0.3-0.2-0.5-0.5-0.6-0.9c-0.4-1.1-0.8-2.2-1.2-3.2l-1.2-3.2h-16.8c-0.4,1.1-0.8,2.2-1.2,3.2
	c-0.4,1.1-0.8,2.1-1.2,3.2c-0.2,0.7-0.9,1.2-1.6,1.2h-9.4c-0.4,0-0.7-0.1-1-0.3c-0.3-0.2-0.4-0.7-0.1-1L485.2,1.5z M491,15.1
	c-0.4,1.1-0.8,2.2-1.2,3.5s-0.8,2.5-1.2,3.8c-0.4,1.3-0.8,2.5-1.2,3.8c-0.4,1.2-0.8,2.4-1.2,3.5h9.7L491,15.1z"/>
<path class="st0" d="M520.4,1.7c0-0.4,0.1-0.8,0.3-1.1c0.3-0.3,0.6-0.4,1-0.4h20.5c2.1,0,4.2,0.4,6.1,1.2c1.9,0.8,3.6,1.9,5,3.3
	c1.4,1.4,2.6,3.1,3.3,4.9c0.8,1.9,1.2,3.9,1.2,6c0,1.4-0.2,2.8-0.6,4.1c-0.4,1.3-0.9,2.5-1.6,3.6c-0.7,1.1-1.5,2.2-2.5,3.1
	c-1,0.9-2,1.7-3.2,2.4l8.2,15.4c0.1,0.3,0.3,0.6,0.6,1c0.2,0.3,0.3,0.6,0.3,1c0,0.3-0.1,0.6-0.3,0.8c-0.3,0.2-0.6,0.3-0.9,0.3H547
	c-0.4,0-0.7-0.1-1-0.3c-0.3-0.2-0.5-0.5-0.6-0.9l-7.7-14.5h-5.1V46c0,0.9-0.5,1.4-1.5,1.4h-9.4c-0.4,0-0.7-0.1-1-0.3
	c-0.3-0.3-0.4-0.6-0.4-1L520.4,1.7z M545.2,15.8c0-0.6-0.1-1.3-0.3-1.9c-0.2-0.6-0.6-1.2-1-1.8c-0.4-0.5-0.9-1-1.5-1.3
	c-0.6-0.4-1.3-0.6-2-0.7l-1.6-0.1c-0.5,0-1.1,0-1.7,0h-4.4v11.6h5.8c0.4,0,0.7,0,1,0l1-0.1c0.7-0.1,1.4-0.3,2-0.6
	c0.6-0.3,1.1-0.8,1.5-1.3c0.4-0.5,0.7-1.1,0.9-1.8C545.1,17.2,545.2,16.5,545.2,15.8z"/>
<path class="st1" d="M331.2,58.2c0,0,0-0.1,0-0.1l0.1-0.1l0.1-0.1h0.1h2.1c0.1,0,0.2,0,0.2,0.1c0.1,0,0.1,0.1,0.1,0.2l0.2,0.5
	l4.3,11.1c0.1,0.1,0.1,0.2,0,0.3c-0.1,0.1-0.2,0.1-0.3,0.1H336c-0.1,0-0.2,0-0.3-0.1c-0.1-0.1-0.1-0.1-0.2-0.2l-0.3-0.8l-0.3-0.8
	h-4.4l-0.3,0.8l-0.3,0.8c-0.1,0.2-0.2,0.3-0.4,0.3H327c-0.1,0-0.2,0-0.3-0.1c-0.1-0.1-0.1-0.2,0-0.2L331.2,58.2z M332.7,61.8
	c-0.1,0.3-0.2,0.6-0.3,0.9l-0.3,1l-0.3,1c-0.1,0.3-0.2,0.6-0.3,0.9h2.5L332.7,61.8z"/>
<path class="st1" d="M345.5,58.3c0-0.1,0-0.2,0.1-0.3c0.1-0.1,0.2-0.1,0.3-0.1h2.7c0.1,0,0.2,0,0.2,0.1c0.1,0,0.2,0.1,0.2,0.2l2,3.3
	l2.1,3.3v-6.6c0-0.1,0.1-0.2,0.1-0.2c0.1-0.1,0.1-0.1,0.2-0.1h2.4c0.1,0,0.2,0,0.3,0.1c0.1,0.1,0.1,0.2,0.1,0.3v11.5
	c0,0.1,0,0.2-0.1,0.2c-0.1,0.1-0.2,0.1-0.3,0.1h-2.6c-0.1,0-0.1,0-0.2-0.1c-0.1-0.1-0.1-0.1-0.2-0.2l-2.2-3.6l-2.2-3.6v7.1
	c0,0.2-0.1,0.3-0.3,0.4c0,0-0.1,0-0.1,0h-2.3c-0.1,0-0.2,0-0.3-0.1c-0.1-0.1-0.1-0.2-0.1-0.2L345.5,58.3z"/>
<path class="st1" d="M358.9,58.3c0-0.1,0-0.2,0.1-0.3c0.1-0.1,0.2-0.1,0.3-0.1h8.2c0.1,0,0.2,0,0.3,0.1c0.1,0.1,0.1,0.2,0.1,0.3v2
	c0,0.1,0,0.2-0.1,0.3c-0.1,0.1-0.2,0.1-0.3,0.1h-5.3v2h4.1c0.1,0,0.2,0,0.3,0.1c0.1,0.1,0.1,0.2,0.1,0.2v1.9c0,0.1,0,0.2-0.1,0.2
	c-0.1,0.1-0.2,0.1-0.3,0.1h-4.1v2.1h5.5c0.2,0,0.3,0.1,0.4,0.3c0,0,0,0.1,0,0.1v2.1c0,0.1,0,0.1-0.1,0.2c0,0.2-0.1,0.2-0.3,0.2h-8.3
	c-0.1,0-0.2,0-0.3-0.1c-0.1-0.1-0.1-0.2-0.1-0.3L358.9,58.3z"/>
<path class="st1" d="M373.4,70l-0.2-0.3c0-0.1-0.1-0.2-0.1-0.3c-0.7-1.9-1.4-3.7-2.1-5.5l-2.1-5.5c0,0,0,0,0-0.1c0,0,0,0,0-0.1
	c0-0.2,0.1-0.2,0.3-0.2h2.6c0.2,0,0.4,0.1,0.4,0.3l2.5,7.5l2.3-7.5c0.1-0.2,0.2-0.3,0.5-0.3h2.7c0.1,0,0.2,0,0.3,0.1
	c0.1,0,0.1,0.1,0.1,0.2c0,0,0,0.1,0,0.1l0,0l-1.5,4.2l1.1,3.2l2.7-7.5c0.1-0.2,0.2-0.3,0.5-0.3h2.6c0.1,0,0.2,0,0.3,0.1
	c0.1,0,0.1,0.1,0.1,0.2c0,0,0,0.1,0,0.1l0,0c-0.4,1-0.8,1.9-1.1,2.9L384,64l-1.2,3c-0.4,1-0.8,1.9-1.1,2.9c0,0.1-0.1,0.1-0.1,0.2
	c-0.1,0.1-0.2,0.1-0.3,0.1h-2c-0.1,0-0.2,0-0.3-0.1c-0.1,0-0.1-0.1-0.1-0.2l-1.3-3.4l-0.5,1.5c-0.2,0.5-0.4,1-0.5,1.5l-0.1,0.2
	c0,0.1-0.1,0.2-0.1,0.2c0,0.1-0.1,0.1-0.2,0.2c-0.1,0-0.1,0.1-0.2,0.1h-2C373.6,70.2,373.5,70.1,373.4,70z"/>
<path class="st1" d="M403.5,64.1c0,0.6-0.1,1.1-0.2,1.7c-0.1,0.5-0.4,1-0.6,1.5c-0.5,0.9-1.3,1.7-2.2,2.2c-0.5,0.3-1,0.5-1.5,0.6
	c-0.5,0.1-1.1,0.2-1.7,0.2h-4.1c-0.1,0-0.2,0-0.3-0.1c-0.1-0.1-0.1-0.2-0.1-0.3V58.3c0-0.1,0-0.2,0.1-0.3c0.1-0.1,0.2-0.1,0.3-0.1
	h4.1c0.6,0,1.1,0.1,1.7,0.2c0.5,0.1,1,0.3,1.5,0.6c0.5,0.3,0.9,0.6,1.3,1c0.4,0.4,0.7,0.8,1,1.2c0.3,0.5,0.5,1,0.6,1.5
	C403.5,62.9,403.5,63.5,403.5,64.1z M396,60.9v6.3h1.1h0.4c0.4,0,0.8-0.1,1.1-0.3c0.3-0.2,0.7-0.4,0.9-0.7c0.3-0.3,0.5-0.6,0.6-1
	c0.2-0.4,0.2-0.8,0.2-1.2c0-0.4-0.1-0.9-0.3-1.3c-0.3-0.8-1-1.4-1.8-1.7c-0.4-0.2-0.8-0.2-1.3-0.2L396,60.9z"/>
<path class="st1" d="M405.7,58.3c0-0.1,0-0.2,0.1-0.3c0.1-0.1,0.2-0.1,0.3-0.1h8.2c0.1,0,0.2,0,0.3,0.1c0.1,0.1,0.1,0.2,0.1,0.3v2
	c0,0.1,0,0.2-0.1,0.3c-0.1,0.1-0.2,0.1-0.3,0.1h-5.3v2h4.1c0.1,0,0.2,0,0.3,0.1c0.1,0.1,0.1,0.2,0.1,0.2v1.8c0,0.1,0,0.2-0.1,0.2
	c-0.1,0.1-0.2,0.1-0.3,0.1h-4.1v2.1h5.5c0.2,0,0.3,0.1,0.4,0.3c0,0,0,0.1,0,0.1v2.1c0,0.1,0,0.1-0.1,0.2c0,0.2-0.1,0.2-0.3,0.2H406
	c-0.1,0-0.2,0-0.3-0.1c-0.1-0.1-0.1-0.2-0.1-0.3L405.7,58.3z"/>
<path class="st1" d="M420.3,58.2c0,0,0-0.1,0-0.1l0.1-0.1l0.1-0.1h0.1h2.1c0.1,0,0.2,0,0.2,0.1c0.1,0,0.1,0.1,0.1,0.2l0.2,0.5
	l4.3,11.1c0.1,0.1,0.1,0.2,0,0.3c-0.1,0.1-0.2,0.1-0.3,0.1h-2.4c-0.1,0-0.2,0-0.3-0.1c-0.1-0.1-0.1-0.1-0.2-0.2l-0.4-0.9l-0.3-0.8
	h-4.4l-0.3,0.8l-0.3,0.8c-0.1,0.2-0.2,0.3-0.4,0.3h-2.4c-0.1,0-0.2,0-0.3-0.1c-0.1-0.1-0.1-0.2,0-0.2L420.3,58.2z M421.8,61.8
	c-0.1,0.3-0.2,0.6-0.3,0.9l-0.3,1l-0.3,1c-0.1,0.3-0.2,0.6-0.3,0.9h2.5L421.8,61.8z"/>
<path class="st1" d="M429.1,58.3c0-0.1,0-0.2,0.1-0.3c0.1-0.1,0.2-0.1,0.3-0.1h2.4c0.1,0,0.2,0,0.3,0.1c0.1,0.1,0.1,0.2,0.1,0.3v9
	h4.5c0.1,0,0.2,0,0.3,0.1c0.1,0.1,0.1,0.2,0.1,0.3v2.2c0,0.1,0,0.2-0.1,0.3c-0.1,0.1-0.2,0.1-0.3,0.1h-7.4c-0.2,0-0.3-0.1-0.4-0.3
	c0,0,0-0.1,0-0.1L429.1,58.3z"/>
<path class="st1" d="M444.4,58.3c0-0.1,0-0.2,0.1-0.3c0.1-0.1,0.1-0.1,0.2-0.1h7.9c0.1,0,0.2,0,0.3,0.1c0.1,0.1,0.1,0.2,0.1,0.3v2
	c0,0.1,0,0.2-0.1,0.3c-0.1,0.1-0.2,0.1-0.3,0.1h-5v2.5h3.7c0.1,0,0.2,0,0.3,0.1c0.1,0.1,0.1,0.2,0.1,0.3v2c0,0.1,0,0.2-0.1,0.3
	c-0.1,0.1-0.2,0.1-0.3,0.1h-3.7v3.8c0,0.2-0.1,0.3-0.4,0.3h-2.5c-0.2,0-0.3-0.1-0.3-0.3c0,0,0,0,0,0V58.3z"/>
<path class="st1" d="M454.4,64.1c0-1.1,0.3-2.2,0.9-3.2c0.3-0.5,0.6-0.9,1-1.3c0.4-0.4,0.8-0.7,1.3-1c0.5-0.3,1-0.5,1.5-0.6
	c1.1-0.3,2.3-0.3,3.4,0c0.5,0.1,1,0.4,1.5,0.6c0.9,0.5,1.7,1.3,2.3,2.3c0.3,0.5,0.5,1,0.6,1.5c0.3,1.1,0.3,2.3,0,3.4
	c-0.1,0.5-0.4,1-0.6,1.5c-0.3,0.5-0.6,0.9-1,1.3c-0.4,0.4-0.8,0.7-1.3,1c-0.5,0.3-1,0.5-1.5,0.6c-2.2,0.6-4.5,0-6.1-1.6
	c-0.4-0.4-0.7-0.8-1-1.3c-0.3-0.5-0.5-1-0.6-1.5C454.4,65.2,454.4,64.6,454.4,64.1z M457.6,64.1c0,0.4,0.1,0.9,0.2,1.3
	c0.2,0.4,0.4,0.7,0.6,1c0.3,0.3,0.6,0.5,1,0.7c0.8,0.3,1.7,0.3,2.5,0c0.4-0.2,0.7-0.4,1-0.7c0.3-0.3,0.5-0.6,0.6-1
	c0.3-0.8,0.3-1.7,0-2.5c-0.2-0.4-0.4-0.7-0.6-1c-0.3-0.3-0.6-0.5-1-0.7c-1.2-0.5-2.6-0.3-3.5,0.7c-0.3,0.3-0.5,0.6-0.6,1
	C457.7,63.2,457.6,63.6,457.6,64.1L457.6,64.1z"/>
<path class="st1" d="M469,58.3c0-0.1,0-0.2,0.1-0.3c0.1-0.1,0.2-0.1,0.3-0.1h5.3c0.5,0,1.1,0.1,1.6,0.3c0.5,0.2,0.9,0.5,1.3,0.9
	c0.4,0.4,0.7,0.8,0.9,1.3c0.2,0.5,0.3,1,0.3,1.5c0,0.4,0,0.7-0.1,1.1c-0.1,0.3-0.2,0.7-0.4,1c-0.2,0.3-0.4,0.6-0.6,0.8
	c-0.2,0.2-0.5,0.4-0.8,0.6l2.1,4l0.1,0.3c0.1,0.1,0.1,0.2,0.1,0.3c0,0.1,0,0.2-0.1,0.2c-0.1,0-0.1,0.1-0.2,0.1h-2.8
	c-0.1,0-0.2,0-0.2-0.1c-0.1-0.1-0.1-0.1-0.1-0.2l-2-3.8h-1.3v3.7c0,0.2-0.1,0.3-0.4,0.3h-2.5c-0.1,0-0.2,0-0.3-0.1
	c-0.1-0.1-0.1-0.2-0.1-0.3L469,58.3z M475.5,62c0-0.2,0-0.3-0.1-0.5c-0.1-0.2-0.1-0.3-0.3-0.5c-0.1-0.1-0.2-0.3-0.4-0.3
	c-0.2-0.1-0.3-0.2-0.5-0.2h-0.4h-1.6v3h1.8h0.3c0.2,0,0.4-0.1,0.5-0.2c0.2-0.1,0.3-0.2,0.4-0.3c0.1-0.1,0.2-0.3,0.2-0.5
	C475.5,62.4,475.5,62.2,475.5,62z"/>
<path class="st1" d="M485.8,58.3c0-0.1,0-0.2,0.1-0.3c0.1-0.1,0.2-0.1,0.3-0.1h2.4c0.1,0,0.2,0,0.3,0.1c0.1,0.1,0.1,0.2,0.1,0.3
	v11.5c0,0.2-0.1,0.4-0.4,0.4h-2.4c-0.2,0-0.3-0.1-0.4-0.3c0,0,0-0.1,0-0.1L485.8,58.3z"/>
<path class="st1" d="M491.3,58.3c0-0.1,0-0.2,0.1-0.3c0.1-0.1,0.2-0.1,0.3-0.1h2.4c0.1,0,0.2,0,0.3,0.1c0.1,0.1,0.1,0.2,0.1,0.3v9
	h4.5c0.1,0,0.2,0,0.3,0.1c0.1,0.1,0.1,0.2,0.1,0.3v2.2c0,0.1,0,0.2-0.1,0.3c-0.1,0.1-0.2,0.1-0.3,0.1h-7.4c-0.2,0-0.3-0.1-0.4-0.3
	c0,0,0-0.1,0-0.1L491.3,58.3z"/>
<path class="st1" d="M501,58.3c0-0.1,0-0.2,0.1-0.3c0.1-0.1,0.2-0.1,0.3-0.1h2.4c0.1,0,0.2,0,0.3,0.1c0.1,0.1,0.1,0.2,0.1,0.3v9h4.5
	c0.1,0,0.2,0,0.3,0.1c0.1,0.1,0.1,0.2,0.1,0.3v2.2c0,0.1,0,0.1-0.1,0.2c-0.1,0.1-0.2,0.1-0.3,0.1h-7.4c-0.2,0-0.3-0.1-0.4-0.3
	c0,0,0-0.1,0-0.1L501,58.3z"/>
<path class="st1" d="M511.1,58.3c0-0.1,0-0.2,0.1-0.3c0.1-0.1,0.2-0.1,0.3-0.1h2.4c0.1,0,0.2,0,0.3,0.1c0.1,0.1,0.1,0.2,0.1,0.3
	v11.5c0,0.2-0.1,0.4-0.4,0.4h-2.4c-0.2,0-0.3-0.1-0.4-0.3c0,0,0-0.1,0-0.1L511.1,58.3z"/>
<path class="st1" d="M516.9,58.3c0-0.1,0-0.2,0.1-0.3c0.1-0.1,0.2-0.1,0.3-0.1h2.7c0.1,0,0.2,0,0.2,0.1c0.1,0,0.2,0.1,0.2,0.2
	l2.1,3.3l2.1,3.3v-6.6c0-0.1,0.1-0.2,0.1-0.2c0.1-0.1,0.1-0.1,0.2-0.1h2.3c0.1,0,0.2,0,0.3,0.1c0.1,0.1,0.1,0.2,0.1,0.3v11.6
	c0,0.1,0,0.2-0.1,0.2c-0.1,0.1-0.2,0.1-0.3,0.1h-2.6c-0.1,0-0.1,0-0.2-0.1c-0.1-0.1-0.1-0.1-0.2-0.2l-2.2-3.6l-2.2-3.6v7.1
	c0,0.2-0.1,0.3-0.3,0.4c0,0-0.1,0-0.1,0h-2.3c-0.1,0-0.2,0-0.3-0.1c-0.1-0.1-0.1-0.2-0.1-0.2L516.9,58.3z"/>
<path class="st1" d="M529.8,64.1c0-1.1,0.3-2.2,0.9-3.2c0.3-0.5,0.6-0.9,1-1.3c0.4-0.4,0.8-0.7,1.3-1c0.5-0.3,1-0.5,1.5-0.6
	c1.1-0.3,2.3-0.3,3.3,0c0.5,0.1,1,0.4,1.5,0.6c0.9,0.5,1.7,1.3,2.3,2.3c0.3,0.5,0.5,1,0.6,1.5c0.3,1.1,0.3,2.3,0,3.3
	c-0.1,0.5-0.4,1-0.6,1.5c-0.3,0.5-0.6,0.9-1,1.3c-0.4,0.4-0.8,0.7-1.3,1c-0.5,0.3-1,0.5-1.5,0.6c-2.2,0.6-4.5,0-6.1-1.6
	c-0.4-0.4-0.7-0.8-1-1.3c-0.3-0.5-0.5-1-0.6-1.5C529.9,65.2,529.8,64.6,529.8,64.1z M533,64c0,0.4,0.1,0.9,0.2,1.3
	c0.2,0.4,0.4,0.7,0.7,1c0.3,0.3,0.6,0.5,1,0.7c0.8,0.3,1.7,0.3,2.5,0c0.4-0.2,0.7-0.4,1-0.7c0.3-0.3,0.5-0.6,0.7-1
	c0.3-0.8,0.3-1.7,0-2.5c-0.2-0.4-0.4-0.7-0.7-1c-0.3-0.3-0.6-0.5-1-0.7c-1.2-0.5-2.6-0.3-3.5,0.7c-0.3,0.3-0.5,0.6-0.7,1
	C533.1,63.1,533,63.6,533,64z"/>
<path class="st1" d="M544.5,58.3c0-0.1,0-0.2,0.1-0.3c0.1-0.1,0.2-0.1,0.3-0.1h2.4c0.1,0,0.2,0,0.3,0.1c0.1,0.1,0.1,0.2,0.1,0.3
	v11.5c0,0.2-0.1,0.4-0.4,0.4h-2.4c-0.2,0-0.3-0.1-0.4-0.3c0,0,0-0.1,0-0.1L544.5,58.3z"/>
<path class="st1" d="M551.9,66.2l0.4,0.3c0.2,0.1,0.3,0.3,0.5,0.4c0.3,0.2,0.5,0.3,0.8,0.4c0.3,0.1,0.6,0.2,0.9,0.2
	c0.2,0,0.5,0,0.7-0.1c0.2,0,0.3-0.1,0.5-0.2c0.1-0.1,0.2-0.2,0.2-0.4c0-0.1,0.1-0.3,0.1-0.4c0-0.2-0.1-0.3-0.2-0.5
	c-0.1-0.1-0.3-0.3-0.5-0.4c-0.2-0.1-0.4-0.2-0.6-0.3l-0.5-0.2c-0.6-0.2-1.2-0.4-1.7-0.7c-0.5-0.2-0.9-0.5-1.2-0.9
	c-0.3-0.3-0.6-0.7-0.7-1.1c-0.2-0.4-0.3-0.9-0.2-1.3c0-0.5,0.1-1,0.3-1.4c0.2-0.4,0.5-0.8,0.9-1.1c0.4-0.3,0.9-0.5,1.4-0.7
	c0.6-0.2,1.2-0.2,1.8-0.2c0.5,0,1,0.1,1.4,0.2c0.5,0.1,0.9,0.3,1.3,0.5c0.2,0.1,0.4,0.2,0.5,0.3c0.2,0.1,0.3,0.2,0.4,0.3
	c0.1,0.1,0.2,0.2,0.3,0.3c0.1,0.1,0.1,0.2,0.1,0.3c0,0.1,0,0.1,0,0.2c0,0.1-0.1,0.1-0.2,0.2l-1.3,1.3c-0.1,0.1-0.2,0.1-0.3,0.1
	c-0.1,0-0.1,0-0.2-0.1l-0.2-0.2l-0.1-0.1l-0.4-0.3c-0.1-0.1-0.3-0.2-0.4-0.3c-0.2-0.1-0.3-0.1-0.5-0.2c-0.2-0.1-0.3-0.1-0.5-0.1
	c-0.2,0-0.3,0-0.5,0c-0.1,0-0.3,0.1-0.4,0.1c-0.1,0.1-0.2,0.2-0.3,0.3c-0.1,0.2-0.1,0.5,0,0.8c0.1,0.1,0.2,0.2,0.3,0.3
	c0.2,0.1,0.4,0.2,0.6,0.3l0.8,0.3c0.6,0.2,1.1,0.4,1.6,0.6c0.5,0.2,0.9,0.4,1.3,0.8c0.3,0.3,0.6,0.6,0.8,1c0.2,0.5,0.3,1,0.3,1.5
	c0,0.6-0.1,1.1-0.4,1.6c-0.2,0.5-0.6,0.9-1,1.3c-0.5,0.4-1,0.6-1.5,0.8c-0.6,0.2-1.2,0.3-1.9,0.3c-0.6,0-1.3-0.1-1.9-0.3
	c-0.6-0.2-1.2-0.5-1.7-0.9c-0.2-0.1-0.4-0.3-0.6-0.5l-0.4-0.4l0,0l0,0l0,0l0,0l0,0c-0.1-0.1-0.2-0.2-0.2-0.3c0-0.1,0.1-0.2,0.2-0.3
	l1.4-1.4c0.1-0.1,0.2-0.1,0.3-0.1c0.1,0,0.1,0,0.2,0L551.9,66.2z"/>
<path class="st1" d="M45.2,38.8v-8.3v-0.1l-0.4,0.1l0.4-0.1c-2.5-6.8-4.9-13.7-7.4-20.4c-0.5-1.4-1.3-2.7-1.8-2.8
	c-11.5-2.4-23.1-4.7-34.6-7C0.9,0.3,0.5,0.3,0,0.4c2.4,4.4,4.4,8.1,6.4,11.4C7,13.1,8,14.2,9.1,15c9.2,5.1,18.4,10,27.6,15
	c1.4,0.8,2.8,1.7,4.2,2.5c0,0,0.1,0,0.1,1.1L10.9,20.9l0.1,1.6c2.3,2.5,4.7,6.5,6.8,7.3c4.4,1.8,8.7,2,13,2.8
	c4.2,0.8,8.3,1.7,12.5,2.5l0.1,0.9l-22.8-0.3c1.7,1.7,3.6,3.2,5.6,4.6c2.4,1.9,4.5,2.3,6.5,1.3c3.8-1.9,7.8-3.1,11.7-4.5l0.1,0.7
	l-11.3,7.1c1.6,1.5,3.2,2.7,4.6,2.5s2.5-1.9,3.7-3.2s2.2-3,3.3-4.5"/>
</svg>
