<svg id="Layer_1" data-name="Layer 1" xmlns="http://www.w3.org/2000/svg" viewBox="0 0 562.02 80.24"><defs><style>.cls-1{fill:#fff;}.cls-2{fill:#ff7f5f;}</style></defs><title>Pawar2018_Logo_English</title><path class="cls-1" d="M86.22,9.78a0.92,0.92,0,0,1,.21-0.41,2.38,2.38,0,0,1,1-.71,1.49,1.49,0,0,1,.54-0.11h8.12a1.35,1.35,0,0,1,.92.33,4.11,4.11,0,0,1,.57.59l0.79,1.81,16.66,43a0.93,0.93,0,0,1-.1,1,1.54,1.54,0,0,1-1.21.4h-9.11a2,2,0,0,1-1.13-.27,1.74,1.74,0,0,1-.62-0.9q-0.64-1.62-1.24-3.22L100.4,48H83.56q-0.6,1.62-1.22,3.22t-1.22,3.22a1.59,1.59,0,0,1-1.62,1.17H70.13a1.55,1.55,0,0,1-1-.32,0.75,0.75,0,0,1-.14-1ZM92,23.36q-0.6,1.62-1.22,3.49t-1.22,3.78q-0.6,1.9-1.22,3.76t-1.22,3.47h9.74Z"/><path class="cls-1" d="M124.41,9.94a1.68,1.68,0,0,1,.44-1,1.39,1.39,0,0,1,1.08-.41h11a1.48,1.48,0,0,1,1.52,1.21l8.63,28.81,8.69-28.81a1.63,1.63,0,0,1,1.62-1.21h10.85a1.54,1.54,0,0,1,1,.4,1.48,1.48,0,0,1,.52,1Q170.89,21.11,172,32.1t2.27,22.16v0.16a1.17,1.17,0,0,1-1.4,1.24h-9a1.33,1.33,0,0,1-1.52-1.4l-2.76-24.53-7.14,24.68a1.79,1.79,0,0,1-.46.76,1.09,1.09,0,0,1-.78.44h-8.34a1.2,1.2,0,0,1-.81-0.43,1.37,1.37,0,0,1-.46-0.78L134.53,29.8l-2.76,24.46a1.34,1.34,0,0,1-1.56,1.4h-9a1.22,1.22,0,0,1-1.36-1.4Z"/><path class="cls-1" d="M182.46,10a1.51,1.51,0,0,1,.36-1.06,1.33,1.33,0,0,1,1-.4h31.48A1.4,1.4,0,0,1,216.4,9a1.57,1.57,0,0,1,.38,1.11V17.9a1.66,1.66,0,0,1-.38,1,1.32,1.32,0,0,1-1.11.49H194.73v7.87H210.6a1.67,1.67,0,0,1,1,.29,1.09,1.09,0,0,1,.4,1v6.85a1.32,1.32,0,0,1-.35.86,1.26,1.26,0,0,1-1,.41h-15.9v8.12h21.32a1.27,1.27,0,0,1,1.43,1.46v8a0.78,0.78,0,0,1-.25.57,1.09,1.09,0,0,1-1.3.89H183.85a1.48,1.48,0,0,1-1-.33,1.3,1.3,0,0,1-.38-1V10Z"/><path class="cls-1" d="M243.83,25.93l7.66-16.4A4.39,4.39,0,0,1,251.81,9a1,1,0,0,1,.25-0.25,0.65,0.65,0,0,1,.27-0.1,1.62,1.62,0,0,0,.33-0.08h12.22a0.5,0.5,0,0,1,.37.14,0.46,0.46,0,0,1,.14.33,1.23,1.23,0,0,1-.44.79l-15,26.62V54.17a1.3,1.3,0,0,1-1.46,1.49H239a1.23,1.23,0,0,1-1-.4,1.6,1.6,0,0,1-.35-1.09V36.37l-15-26.56A1.16,1.16,0,0,1,222.21,9a0.48,0.48,0,0,1,.13-0.33,0.44,0.44,0,0,1,.35-0.14H234.9l0.35,0.08a0.64,0.64,0,0,1,.25.1,1,1,0,0,1,.25.25q0.13,0.17.35,0.56Z"/><path class="cls-1" d="M276.91,9.78a0.92,0.92,0,0,1,.21-0.41,2.38,2.38,0,0,1,1-.71,1.49,1.49,0,0,1,.54-0.11h8.12a1.35,1.35,0,0,1,.92.33,4.11,4.11,0,0,1,.57.59L289,11.27l16.66,43a0.93,0.93,0,0,1-.1,1,1.54,1.54,0,0,1-1.21.4h-9.11a2,2,0,0,1-1.13-.27,1.74,1.74,0,0,1-.62-0.9q-0.64-1.62-1.24-3.22L291.09,48H274.25q-0.6,1.62-1.22,3.22t-1.22,3.22a1.59,1.59,0,0,1-1.62,1.17h-9.36a1.55,1.55,0,0,1-1-.32,0.75,0.75,0,0,1-.14-1Zm5.77,13.58q-0.6,1.62-1.22,3.49t-1.22,3.78q-0.6,1.9-1.22,3.76t-1.22,3.47h9.74Z"/><path class="cls-1" d="M332.53,10a1.55,1.55,0,0,1,.35-1.06,1.32,1.32,0,0,1,1-.4H354.2a13.8,13.8,0,0,1,4.12.6,14,14,0,0,1,3.55,1.67,14.47,14.47,0,0,1,2.92,2.54A16.36,16.36,0,0,1,367,16.54a16.17,16.17,0,0,1,1.38,3.6,15.62,15.62,0,0,1-.56,9.41,15.33,15.33,0,0,1-2.93,4.85,15,15,0,0,1-4.57,3.44,13.43,13.43,0,0,1-5.9,1.35h-9.61v15.1a1.25,1.25,0,0,1-1.46,1.36h-9.42a1.49,1.49,0,0,1-1-.33,1.3,1.3,0,0,1-.38-1V10Zm23.89,13.9a5.74,5.74,0,0,0-.33-1.9,5.27,5.27,0,0,0-1-1.7,5.14,5.14,0,0,0-1.54-1.22,4.33,4.33,0,0,0-2-.48h-6.73V29.2h6.73a4.55,4.55,0,0,0,2.06-.46,4.82,4.82,0,0,0,1.54-1.19,5.25,5.25,0,0,0,1-1.68A5.92,5.92,0,0,0,356.42,23.9Z"/><path class="cls-1" d="M383.86,9.78a0.92,0.92,0,0,1,.21-0.41,2.38,2.38,0,0,1,1-.71,1.49,1.49,0,0,1,.54-0.11h8.12a1.35,1.35,0,0,1,.92.33,4.11,4.11,0,0,1,.57.59L396,11.27l16.66,43a0.93,0.93,0,0,1-.1,1,1.54,1.54,0,0,1-1.21.4h-9.11a2,2,0,0,1-1.13-.27,1.74,1.74,0,0,1-.62-0.9q-0.64-1.62-1.24-3.22L398,48H381.19q-0.6,1.62-1.22,3.22t-1.22,3.22a1.59,1.59,0,0,1-1.62,1.17h-9.36a1.55,1.55,0,0,1-1-.32,0.75,0.75,0,0,1-.14-1Zm5.77,13.58Q389,25,388.41,26.85t-1.22,3.78q-0.6,1.9-1.22,3.76t-1.22,3.47h9.74Z"/><path class="cls-1" d="M424.63,55q-0.32-.54-0.6-1.11t-0.51-1.14Q419.42,42,415.36,31.35T407.21,10a0.83,0.83,0,0,0,0-.29,0.71,0.71,0,0,1,0-.25q0-.89,1.17-0.89H418.5a1.65,1.65,0,0,1,1.65,1.21l9.71,28.9,9-28.9a1.71,1.71,0,0,1,1.75-1.21H450.9a1.55,1.55,0,0,1,1,.27,0.91,0.91,0,0,1,.3.71,1.27,1.27,0,0,1,0,.35V10l-5.65,16.18,4.25,12.47L461.08,9.75a1.71,1.71,0,0,1,1.75-1.21h10a1.55,1.55,0,0,1,1,.27,0.91,0.91,0,0,1,.3.71,1.34,1.34,0,0,1,0,.35V10Q472,15.55,469.71,21.1t-4.52,11.1q-2.27,5.55-4.51,11.12t-4.36,11.12a2.21,2.21,0,0,1-.57.78,1.5,1.5,0,0,1-1.08.43H446.9a1.77,1.77,0,0,1-1.06-.27,1.49,1.49,0,0,1-.52-0.71l-5-13.2-2.13,5.66q-1,2.78-2.09,5.66-0.16.44-.36,0.94a5.42,5.42,0,0,1-.49.92,3,3,0,0,1-.65.71,1.32,1.32,0,0,1-.84.29H426A1.32,1.32,0,0,1,424.63,55Z"/><path class="cls-1" d="M485.11,9.78a0.92,0.92,0,0,1,.21-0.41,2.38,2.38,0,0,1,1-.71,1.49,1.49,0,0,1,.54-0.11h8.12a1.35,1.35,0,0,1,.92.33,4.11,4.11,0,0,1,.57.59l0.79,1.81,16.66,43a0.93,0.93,0,0,1-.1,1,1.54,1.54,0,0,1-1.21.4h-9.11a2,2,0,0,1-1.13-.27,1.74,1.74,0,0,1-.62-0.9q-0.64-1.62-1.24-3.22L499.3,48H482.45q-0.6,1.62-1.22,3.22T480,54.48a1.59,1.59,0,0,1-1.62,1.17H469a1.55,1.55,0,0,1-1-.32,0.75,0.75,0,0,1-.14-1Zm5.77,13.58q-0.6,1.62-1.22,3.49t-1.22,3.78q-0.6,1.9-1.22,3.76T486,37.86h9.74Z"/><path class="cls-1" d="M520.27,10a1.55,1.55,0,0,1,.35-1.06,1.32,1.32,0,0,1,1-.4h20.5a15.42,15.42,0,0,1,6.12,1.22,16,16,0,0,1,5,3.32,15.49,15.49,0,0,1,3.35,4.9,14.85,14.85,0,0,1,1.22,6,14.22,14.22,0,0,1-.59,4.11,15.35,15.35,0,0,1-1.63,3.65,15.51,15.51,0,0,1-2.49,3.08A16.27,16.27,0,0,1,550,37.16l8.16,15.36q0.22,0.45.57,1a2.17,2.17,0,0,1,.35,1,0.94,0.94,0,0,1-.33.78,1.39,1.39,0,0,1-.9.27H546.92a1.58,1.58,0,0,1-1-.32,1.44,1.44,0,0,1-.56-0.86L537.69,40h-5.14V54.29a1.25,1.25,0,0,1-1.46,1.36h-9.42a1.49,1.49,0,0,1-1-.33,1.3,1.3,0,0,1-.38-1V10Zm24.84,14.09a5.49,5.49,0,0,0-.35-1.9,6.18,6.18,0,0,0-1-1.75,5.77,5.77,0,0,0-1.52-1.33,5.22,5.22,0,0,0-2-.7l-1.67-.11q-0.78,0-1.7,0h-4.38V29.89h5.84c0.38,0,.72,0,1,0l1-.09a5,5,0,0,0,2-.65,5.2,5.2,0,0,0,1.49-1.3,5.75,5.75,0,0,0,.92-1.75A6.35,6.35,0,0,0,545.11,24.09Z"/><path class="cls-2" d="M334,68.16a0.25,0.25,0,0,1,.05-0.11l0.11-.11,0.14-.08,0.14,0h2.11a0.35,0.35,0,0,1,.24.09,1,1,0,0,1,.15.15l0.21,0.47,4.32,11.15a0.24,0.24,0,0,1,0,.27,0.4,0.4,0,0,1-.31.1H338.8A0.51,0.51,0,0,1,338.5,80a0.46,0.46,0,0,1-.16-0.23L338,78.92l-0.31-.84h-4.37l-0.32.84-0.32.84a0.41,0.41,0,0,1-.42.3h-2.43a0.4,0.4,0,0,1-.26-0.08,0.2,0.2,0,0,1,0-.25Zm1.5,3.52c-0.1.28-.21,0.58-0.32,0.91l-0.32,1-0.32,1q-0.16.48-.32,0.9h2.53Z"/><path class="cls-2" d="M348.33,68.2a0.38,0.38,0,0,1,.09-0.26,0.34,0.34,0,0,1,.27-0.11h2.69a0.57,0.57,0,0,1,.24.06,0.52,0.52,0,0,1,.21.2l2.08,3.33L356,74.74v-6.6a0.4,0.4,0,0,1,.13-0.23,0.35,0.35,0,0,1,.23-0.08h2.35a0.44,0.44,0,0,1,.29.09,0.33,0.33,0,0,1,.12.27V79.74a0.29,0.29,0,0,1-.1.24,0.43,0.43,0,0,1-.27.08h-2.63a0.28,0.28,0,0,1-.19-0.07,1.29,1.29,0,0,1-.17-0.2l-2.16-3.58-2.17-3.58V79.7a0.32,0.32,0,0,1-.38.36h-2.34a0.34,0.34,0,0,1-.28-0.1,0.38,0.38,0,0,1-.09-0.25V68.2Z"/><path class="cls-2" d="M361.79,68.21a0.39,0.39,0,0,1,.09-0.28,0.34,0.34,0,0,1,.27-0.1h8.17a0.36,0.36,0,0,1,.28.11,0.4,0.4,0,0,1,.1.29v2a0.43,0.43,0,0,1-.1.27,0.34,0.34,0,0,1-.29.13H365v2h4.12a0.43,0.43,0,0,1,.26.07,0.28,0.28,0,0,1,.1.25V74.8a0.34,0.34,0,0,1-.09.22,0.33,0.33,0,0,1-.26.11H365v2.11h5.53a0.33,0.33,0,0,1,.37.38v2.07a0.2,0.2,0,0,1-.07.15,0.28,0.28,0,0,1-.34.23h-8.33a0.38,0.38,0,0,1-.26-0.09,0.34,0.34,0,0,1-.1-0.27V68.21Z"/><path class="cls-2" d="M376.29,79.89l-0.16-.29c0-.1-0.09-0.2-0.13-0.3q-1.06-2.8-2.12-5.55l-2.12-5.55a0.21,0.21,0,0,0,0-.07,0.19,0.19,0,0,1,0-.07q0-.23.3-0.23h2.65a0.43,0.43,0,0,1,.43.31l2.52,7.5,2.33-7.5a0.44,0.44,0,0,1,.45-0.31h2.68a0.4,0.4,0,0,1,.27.07,0.24,0.24,0,0,1,.08.19,0.36,0.36,0,0,1,0,.09v0L382,72.41l1.1,3.24,2.67-7.49a0.44,0.44,0,0,1,.45-0.31h2.59a0.4,0.4,0,0,1,.27.07,0.24,0.24,0,0,1,.08.19,0.33,0.33,0,0,1,0,.09v0q-0.56,1.45-1.14,2.89L386.81,74l-1.17,2.89q-0.58,1.44-1.13,2.89a0.58,0.58,0,0,1-.15.2,0.39,0.39,0,0,1-.28.11h-2a0.45,0.45,0,0,1-.28-0.07,0.39,0.39,0,0,1-.14-0.18l-1.3-3.43-0.55,1.47q-0.27.72-.54,1.47l-0.09.24a1.48,1.48,0,0,1-.13.24,0.79,0.79,0,0,1-.17.18,0.35,0.35,0,0,1-.22.07h-2A0.34,0.34,0,0,1,376.29,79.89Z"/><path class="cls-2" d="M406.41,74a6.07,6.07,0,0,1-.22,1.66,5.91,5.91,0,0,1-.63,1.47,6.11,6.11,0,0,1-2.25,2.17,6.37,6.37,0,0,1-1.5.6,6.62,6.62,0,0,1-1.67.21h-4.06a0.51,0.51,0,0,1-.26-0.07,0.29,0.29,0,0,1-.12-0.28V68.21a0.4,0.4,0,0,1,.09-0.28,0.36,0.36,0,0,1,.28-0.11h4.06a6.42,6.42,0,0,1,1.67.21,6.3,6.3,0,0,1,1.5.61,6.43,6.43,0,0,1,1.27.95,5.83,5.83,0,0,1,1,1.24,6.19,6.19,0,0,1,.63,1.47A6,6,0,0,1,406.41,74Zm-7.53-3.18v6.33h1.06l0.36,0a3.3,3.3,0,0,0,1.15-.3,3.21,3.21,0,0,0,.93-0.66,3,3,0,0,0,.63-1,3.13,3.13,0,0,0,.23-1.2,3.08,3.08,0,0,0-.26-1.27A3.13,3.13,0,0,0,401.24,71a3.44,3.44,0,0,0-1.27-.24h-1.09Z"/><path class="cls-2" d="M408.56,68.21a0.39,0.39,0,0,1,.09-0.28,0.34,0.34,0,0,1,.27-0.1h8.17a0.36,0.36,0,0,1,.28.11,0.4,0.4,0,0,1,.1.29v2a0.43,0.43,0,0,1-.1.27,0.34,0.34,0,0,1-.29.13h-5.34v2h4.12a0.43,0.43,0,0,1,.26.07,0.28,0.28,0,0,1,.1.25V74.8a0.34,0.34,0,0,1-.09.22,0.33,0.33,0,0,1-.26.11h-4.13v2.11h5.53a0.33,0.33,0,0,1,.37.38v2.07a0.2,0.2,0,0,1-.07.15,0.28,0.28,0,0,1-.34.23h-8.33a0.38,0.38,0,0,1-.26-0.09,0.34,0.34,0,0,1-.1-0.27V68.21Z"/><path class="cls-2" d="M423.18,68.16a0.25,0.25,0,0,1,.05-0.11l0.11-.11,0.14-.08,0.14,0h2.11a0.35,0.35,0,0,1,.24.09,1,1,0,0,1,.15.15l0.21,0.47,4.32,11.15a0.24,0.24,0,0,1,0,.27,0.4,0.4,0,0,1-.31.1h-2.36a0.51,0.51,0,0,1-.29-0.07,0.46,0.46,0,0,1-.16-0.23l-0.32-.84-0.31-.84h-4.37l-0.32.84-0.32.84a0.41,0.41,0,0,1-.42.3H419a0.4,0.4,0,0,1-.26-0.08,0.2,0.2,0,0,1,0-.25Zm1.5,3.52c-0.1.28-.21,0.58-0.32,0.91l-0.32,1-0.32,1q-0.16.48-.32,0.9h2.53Z"/><path class="cls-2" d="M432,68.19a0.36,0.36,0,0,1,.1-0.26,0.35,0.35,0,0,1,.27-0.11h2.44a0.38,0.38,0,0,1,.26.1,0.35,0.35,0,0,1,.12.26v9h4.53a0.36,0.36,0,0,1,.26.1,0.35,0.35,0,0,1,.11.27v2.17a0.39,0.39,0,0,1-.09.26,0.35,0.35,0,0,1-.27.12h-7.35A0.32,0.32,0,0,1,432,79.7V68.19Z"/><path class="cls-2" d="M447.22,68.21a0.38,0.38,0,0,1,.09-0.27,0.33,0.33,0,0,1,.23-0.11h7.88a0.36,0.36,0,0,1,.28.11,0.42,0.42,0,0,1,.09.29v2a0.43,0.43,0,0,1-.1.27,0.34,0.34,0,0,1-.29.13h-5v2.55h3.7a0.41,0.41,0,0,1,.26.09,0.33,0.33,0,0,1,.11.28v2a0.44,0.44,0,0,1-.09.27,0.31,0.31,0,0,1-.26.13h-3.71v3.77a0.32,0.32,0,0,1-.38.35h-2.51a0.31,0.31,0,0,1-.3-0.35V68.21Z"/><path class="cls-2" d="M457.27,74a6.26,6.26,0,0,1,.86-3.18,6.39,6.39,0,0,1,1-1.28,6.15,6.15,0,0,1,1.27-1,6.47,6.47,0,0,1,1.5-.63,6.3,6.3,0,0,1,3.35,0,6.45,6.45,0,0,1,1.51.63A6.25,6.25,0,0,1,469,70.78a6.55,6.55,0,0,1,.63,1.51,6.31,6.31,0,0,1,0,3.35,6.39,6.39,0,0,1-.63,1.5,6.22,6.22,0,0,1-1,1.27,6.4,6.4,0,0,1-1.28,1,6.2,6.2,0,0,1-1.51.63,6.29,6.29,0,0,1-6.13-1.62,6.37,6.37,0,0,1-1-1.27,6.14,6.14,0,0,1-.63-1.5A6.26,6.26,0,0,1,457.27,74Zm3.19,0a3.5,3.5,0,0,0,.23,1.28,3.16,3.16,0,0,0,.65,1,3,3,0,0,0,1,.69,3.24,3.24,0,0,0,2.5,0,3,3,0,0,0,1-.69,3.15,3.15,0,0,0,.65-1,3.64,3.64,0,0,0,0-2.55,3.18,3.18,0,0,0-.65-1,3,3,0,0,0-1-.7,3.06,3.06,0,0,0-3.49.7,3.19,3.19,0,0,0-.65,1A3.52,3.52,0,0,0,460.45,74Z"/><path class="cls-2" d="M471.89,68.21a0.4,0.4,0,0,1,.09-0.28,0.34,0.34,0,0,1,.27-0.1h5.32a4,4,0,0,1,1.59.32,4.15,4.15,0,0,1,1.29.86,4,4,0,0,1,.87,1.27,3.86,3.86,0,0,1,.32,1.55,3.68,3.68,0,0,1-.15,1.07,4,4,0,0,1-.42.95,4,4,0,0,1-.65.8,4.19,4.19,0,0,1-.82.61l2.12,4,0.15,0.27a0.56,0.56,0,0,1,.09.27,0.24,0.24,0,0,1-.09.2,0.36,0.36,0,0,1-.23.07h-2.82a0.41,0.41,0,0,1-.25-0.08,0.38,0.38,0,0,1-.14-0.22l-2-3.76h-1.33v3.71a0.32,0.32,0,0,1-.38.35h-2.45A0.39,0.39,0,0,1,472,80a0.34,0.34,0,0,1-.1-0.27V68.21Zm6.45,3.66a1.42,1.42,0,0,0-.09-0.49,1.6,1.6,0,0,0-.26-0.45,1.5,1.5,0,0,0-.4-0.35,1.35,1.35,0,0,0-.51-0.18l-0.43,0h-1.58v3h1.78l0.26,0a1.31,1.31,0,0,0,.52-0.17,1.35,1.35,0,0,0,.39-0.34,1.48,1.48,0,0,0,.24-0.45A1.64,1.64,0,0,0,478.34,71.87Z"/><path class="cls-2" d="M488.66,68.2a0.38,0.38,0,0,1,.09-0.26,0.34,0.34,0,0,1,.27-0.11h2.42a0.46,0.46,0,0,1,.26.1,0.31,0.31,0,0,1,.14.26V79.7a0.34,0.34,0,0,1-.4.36H489a0.32,0.32,0,0,1-.36-0.36V68.2Z"/><path class="cls-2" d="M494.21,68.19a0.36,0.36,0,0,1,.1-0.26,0.35,0.35,0,0,1,.27-0.11H497a0.38,0.38,0,0,1,.26.1,0.35,0.35,0,0,1,.12.26v9h4.53a0.36,0.36,0,0,1,.26.1,0.35,0.35,0,0,1,.11.27v2.17a0.39,0.39,0,0,1-.09.26,0.35,0.35,0,0,1-.27.12h-7.35a0.32,0.32,0,0,1-.36-0.36V68.19Z"/><path class="cls-2" d="M503.91,68.19a0.36,0.36,0,0,1,.1-0.26,0.35,0.35,0,0,1,.27-0.11h2.44a0.38,0.38,0,0,1,.26.1,0.35,0.35,0,0,1,.12.26v9h4.53a0.36,0.36,0,0,1,.26.1,0.35,0.35,0,0,1,.11.27v2.17a0.39,0.39,0,0,1-.09.26,0.35,0.35,0,0,1-.27.12h-7.35a0.32,0.32,0,0,1-.36-0.36V68.19Z"/><path class="cls-2" d="M513.94,68.2a0.38,0.38,0,0,1,.09-0.26,0.34,0.34,0,0,1,.27-0.11h2.42a0.46,0.46,0,0,1,.26.1,0.31,0.31,0,0,1,.14.26V79.7a0.34,0.34,0,0,1-.4.36h-2.42a0.32,0.32,0,0,1-.36-0.36V68.2Z"/><path class="cls-2" d="M519.81,68.2a0.38,0.38,0,0,1,.09-0.26,0.34,0.34,0,0,1,.27-0.11h2.69a0.57,0.57,0,0,1,.24.06,0.52,0.52,0,0,1,.21.2l2.08,3.33,2.08,3.33v-6.6a0.4,0.4,0,0,1,.13-0.23,0.35,0.35,0,0,1,.23-0.08h2.35a0.44,0.44,0,0,1,.29.09,0.33,0.33,0,0,1,.12.27V79.74a0.29,0.29,0,0,1-.1.24,0.43,0.43,0,0,1-.27.08H527.6a0.28,0.28,0,0,1-.19-0.07,1.29,1.29,0,0,1-.17-0.2l-2.16-3.58-2.17-3.58V79.7a0.32,0.32,0,0,1-.38.36h-2.34a0.34,0.34,0,0,1-.28-0.1,0.38,0.38,0,0,1-.09-0.25V68.2Z"/><path class="cls-2" d="M532.71,74a6.26,6.26,0,0,1,.86-3.18,6.39,6.39,0,0,1,1-1.28,6.15,6.15,0,0,1,1.27-1,6.47,6.47,0,0,1,1.5-.63,6.3,6.3,0,0,1,3.35,0,6.45,6.45,0,0,1,1.51.63,6.25,6.25,0,0,1,2.26,2.26,6.55,6.55,0,0,1,.63,1.51,6.31,6.31,0,0,1,0,3.35,6.39,6.39,0,0,1-.63,1.5,6.22,6.22,0,0,1-1,1.27,6.4,6.4,0,0,1-1.28,1,6.2,6.2,0,0,1-1.51.63,6.29,6.29,0,0,1-6.13-1.62,6.37,6.37,0,0,1-1-1.27,6.14,6.14,0,0,1-.63-1.5A6.26,6.26,0,0,1,532.71,74Zm3.19,0a3.5,3.5,0,0,0,.23,1.28,3.16,3.16,0,0,0,.65,1,3,3,0,0,0,1,.69,3.24,3.24,0,0,0,2.5,0,3,3,0,0,0,1-.69,3.15,3.15,0,0,0,.65-1,3.64,3.64,0,0,0,0-2.55,3.18,3.18,0,0,0-.65-1,3,3,0,0,0-1-.7,3.06,3.06,0,0,0-3.49.7,3.19,3.19,0,0,0-.65,1A3.52,3.52,0,0,0,535.9,74Z"/><path class="cls-2" d="M547.35,68.2a0.38,0.38,0,0,1,.09-0.26,0.34,0.34,0,0,1,.27-0.11h2.42a0.46,0.46,0,0,1,.26.1,0.31,0.31,0,0,1,.14.26V79.7a0.34,0.34,0,0,1-.4.36h-2.42a0.32,0.32,0,0,1-.36-0.36V68.2Z"/><path class="cls-2" d="M554.73,76.11l0.36,0.31a4.77,4.77,0,0,0,.5.38,4.15,4.15,0,0,0,.83.44,2.41,2.41,0,0,0,.86.16,2.25,2.25,0,0,0,.7-0.09,1.19,1.19,0,0,0,.45-0.25,0.89,0.89,0,0,0,.24-0.36,1.35,1.35,0,0,0,.07-0.44,0.64,0.64,0,0,0-.19-0.46,2,2,0,0,0-.47-0.36,4,4,0,0,0-.58-0.27L557,75a12,12,0,0,1-1.73-.74,5.31,5.31,0,0,1-1.24-.89,3.32,3.32,0,0,1-.74-1.08A3.36,3.36,0,0,1,553,71a3.1,3.1,0,0,1,.31-1.39,3.05,3.05,0,0,1,.88-1.07,4.19,4.19,0,0,1,1.38-.69,6.24,6.24,0,0,1,1.8-.24,6,6,0,0,1,1.44.17,5.49,5.49,0,0,1,1.35.54q0.28,0.16.53,0.34T561.14,69a2.09,2.09,0,0,1,.3.31,0.46,0.46,0,0,1,.11.26,0.38,0.38,0,0,1-.05.2,1.32,1.32,0,0,1-.16.21l-1.26,1.34a0.4,0.4,0,0,1-.28.14,0.36,0.36,0,0,1-.21-0.07l-0.21-.16-0.07-.07-0.37-.29a3.26,3.26,0,0,0-.43-0.27,2.87,2.87,0,0,0-.49-0.2,1.76,1.76,0,0,0-.52-0.08,2.77,2.77,0,0,0-.51,0,1.41,1.41,0,0,0-.42.14,0.8,0.8,0,0,0-.29.26,0.76,0.76,0,0,0,0,.79,1.14,1.14,0,0,0,.35.31,3.18,3.18,0,0,0,.57.27L558,72.39q0.87,0.29,1.61.61a5.42,5.42,0,0,1,1.27.75,3.09,3.09,0,0,1,.84,1,3.23,3.23,0,0,1,.3,1.46,3.6,3.6,0,0,1-.37,1.64,3.75,3.75,0,0,1-1,1.26,4.75,4.75,0,0,1-1.52.8,6,6,0,0,1-1.88.28,5.31,5.31,0,0,1-1.86-.34,7.14,7.14,0,0,1-1.7-.91,4.38,4.38,0,0,1-.56-0.47l-0.36-.37,0,0,0,0h0l0,0h0a0.58,0.58,0,0,1-.19-0.33,0.47,0.47,0,0,1,.19-0.31L554.09,76a0.54,0.54,0,0,1,.28-0.12,0.3,0.3,0,0,1,.16,0Z"/><path class="cls-2" d="M55.53,46.11l1.06-1.9a8.62,8.62,0,0,0,.35-4.14c-0.25-1.06-1.41-3.93-1.41-3.93l0-.1L55,36.11,55.49,36c-3-8.15-6-16.35-9.1-24.33-0.63-1.66-1.55-3.2-2.15-3.33C30,5.47,15.88,2.75,1.72,0A6.49,6.49,0,0,0,0,.24C3,5.47,5.42,9.92,7.86,13.89a10.84,10.84,0,0,0,3.32,3.77C22.5,23.72,33.8,29.57,45.11,35.52c1.73,0.91,3.47,2,5.2,3,0,0,.12,0,0.12,1.28L13.36,24.64l0.09,1.91c2.79,3,5.76,7.73,8.32,8.74,5.43,2.14,10.64,2.35,15.95,3.36,5.1,1,10.2,2,15.3,3l0.15,1.09-27.93-.36c2.37,2.46,4.59,3.69,6.86,5.45,2.88,2.24,5.49,2.79,8,1.59,4.71-2.29,9.58-3.66,14.38-5.42l0.16,0.85L40.76,53.32c2,1.74,3.93,3.24,5.59,2.92s3.09-2.27,4.54-3.87,2.7-3.56,4-5.36"/></svg>
