<svg id="Layer_1" data-name="Layer 1" xmlns="http://www.w3.org/2000/svg" viewBox="0 0 562.01 80.29"><defs><style>.cls-1{fill:#f47e61;stroke:#f47e61;stroke-miterlimit:10;stroke-width:0.6px;}.cls-2{fill:#fff;}.cls-3{fill:#ff7f5f;}</style></defs><title>Pawar2018_Logo_Polish_White</title><path class="cls-1" d="M2602,206.49h2.5v11.18H2602l-5.33-7v7h-2.5V206.49h2.34l5.49,7.2v-7.2Z" transform="translate(-2242.19 -137.81)"/><path class="cls-1" d="M2617.11,216.13a6.09,6.09,0,0,1-8.35,0,5.85,5.85,0,0,1,0-8.24,6.09,6.09,0,0,1,8.35,0A5.85,5.85,0,0,1,2617.11,216.13Zm-0.85-4.11a3.66,3.66,0,0,0-1-2.55,3.16,3.16,0,0,0-4.72,0,3.86,3.86,0,0,0,0,5.1,3.18,3.18,0,0,0,4.72,0A3.63,3.63,0,0,0,2616.27,212Z" transform="translate(-2242.19 -137.81)"/><path class="cls-1" d="M2624.71,212.92l2-6.43h2.61l2,6.43,2.22-6.43h2.7l-3.9,11.18h-1.86L2628,209.9l-2.43,7.78h-1.86l-3.9-11.18h2.71Z" transform="translate(-2242.19 -137.81)"/><path class="cls-1" d="M2642.83,217.68h-2.5v-4.42l-3.87-6.77h2.71l2.42,4.16,2.42-4.16h2.7l-3.87,6.77v4.42Z" transform="translate(-2242.19 -137.81)"/><path class="cls-1" d="M2653.34,206.51h2.5v5l3.28-1v2.18l-3.28,1v1.78h4.77v2.22h-7.27v-3.22l-1.18.37v-2.16l1.18-.38v-5.78Z" transform="translate(-2242.19 -137.81)"/><path class="cls-1" d="M2670.87,217.68l-1-2.42h-4.69l-1,2.42h-2.66l4.83-11.18h2.42l4.83,11.18h-2.66Zm-3.37-7.86-1.41,3.25h2.8Z" transform="translate(-2242.19 -137.81)"/><path class="cls-1" d="M2683.85,208a5.24,5.24,0,0,1,1.6,4.07,5.5,5.5,0,0,1-1.56,4.13,6.58,6.58,0,0,1-4.76,1.52h-3.82V206.49h4A6.57,6.57,0,0,1,2683.85,208ZM2682,214.6a3.28,3.28,0,0,0,.92-2.51,3.36,3.36,0,0,0-.92-2.54,3.93,3.93,0,0,0-2.82-.89h-1.39v6.8h1.58A3.7,3.7,0,0,0,2682,214.6Z" transform="translate(-2242.19 -137.81)"/><path class="cls-1" d="M2701.34,208a5.24,5.24,0,0,1,1.6,4.07,5.49,5.49,0,0,1-1.56,4.13,6.58,6.58,0,0,1-4.76,1.52h-3.82V206.49h4A6.57,6.57,0,0,1,2701.34,208Zm-1.83,6.65a3.28,3.28,0,0,0,.92-2.51,3.36,3.36,0,0,0-.92-2.54,3.93,3.93,0,0,0-2.82-.89h-1.39v6.8h1.58A3.7,3.7,0,0,0,2699.5,214.6Z" transform="translate(-2242.19 -137.81)"/><path class="cls-1" d="M2705.57,217.68V206.49h2.5v9h4.77v2.22h-7.26Z" transform="translate(-2242.19 -137.81)"/><path class="cls-1" d="M2723.11,217.68l-1-2.42h-4.69l-1,2.42h-2.66l4.83-11.18h2.42l4.83,11.18h-2.66Zm-3.38-7.86-1.41,3.25h2.8Z" transform="translate(-2242.19 -137.81)"/><path class="cls-1" d="M2732.25,206.49h2.5v11.18h-2.5V206.49Z" transform="translate(-2242.19 -137.81)"/><path class="cls-1" d="M2738,217.68V206.49h2.5v9h4.77v2.22H2738Z" transform="translate(-2242.19 -137.81)"/><path class="cls-1" d="M2747.54,217.68V206.49h2.5v9h4.77v2.22h-7.26Z" transform="translate(-2242.19 -137.81)"/><path class="cls-1" d="M2757.11,206.49h2.5v11.18h-2.5V206.49Z" transform="translate(-2242.19 -137.81)"/><path class="cls-1" d="M2770.66,206.49h2.5v11.18h-2.5l-5.33-7v7h-2.5V206.49h2.34l5.49,7.2v-7.2Z" transform="translate(-2242.19 -137.81)"/><path class="cls-1" d="M2785.8,216.13a6.1,6.1,0,0,1-8.35,0,5.85,5.85,0,0,1,0-8.24,6.1,6.1,0,0,1,8.35,0A5.85,5.85,0,0,1,2785.8,216.13Zm-0.85-4.11a3.66,3.66,0,0,0-1-2.55,3.17,3.17,0,0,0-4.72,0,3.86,3.86,0,0,0,0,5.1,3.18,3.18,0,0,0,4.72,0A3.63,3.63,0,0,0,2784.95,212Z" transform="translate(-2242.19 -137.81)"/><path class="cls-1" d="M2790.09,206.49h2.5v11.18h-2.5V206.49Z" transform="translate(-2242.19 -137.81)"/><path class="cls-1" d="M2798.43,208.72a1,1,0,0,0-.36.78,0.89,0.89,0,0,0,.44.78,8,8,0,0,0,2,.68,5.71,5.71,0,0,1,2.47,1.18,2.91,2.91,0,0,1,.88,2.29,3,3,0,0,1-1.13,2.44,4.49,4.49,0,0,1-3,.94,6.87,6.87,0,0,1-4.79-2l1.49-1.82a5.29,5.29,0,0,0,3.34,1.58,1.76,1.76,0,0,0,1.08-.3,1,1,0,0,0,.39-0.8,0.93,0.93,0,0,0-.42-0.8,5.43,5.43,0,0,0-1.65-.6,7.16,7.16,0,0,1-2.86-1.21,2.85,2.85,0,0,1-.9-2.34,2.89,2.89,0,0,1,1.14-2.46,4.6,4.6,0,0,1,2.86-.86,6.88,6.88,0,0,1,2.24.38,6,6,0,0,1,2,1.09l-1.26,1.82a4.92,4.92,0,0,0-3-1.1A1.51,1.51,0,0,0,2798.43,208.72Z" transform="translate(-2242.19 -137.81)"/><path class="cls-2" d="M2328.41,147.59a0.92,0.92,0,0,1,.21-0.41,2.38,2.38,0,0,1,1-.71,1.49,1.49,0,0,1,.54-0.11h8.12a1.35,1.35,0,0,1,.92.33,4.11,4.11,0,0,1,.57.59l0.79,1.81,16.66,43a0.93,0.93,0,0,1-.1,1,1.54,1.54,0,0,1-1.21.4h-9.11a2,2,0,0,1-1.13-.27,1.74,1.74,0,0,1-.62-0.9q-0.64-1.62-1.24-3.22l-1.21-3.22h-16.85q-0.6,1.62-1.22,3.22t-1.22,3.22a1.59,1.59,0,0,1-1.62,1.17h-9.36a1.55,1.55,0,0,1-1-.32,0.75,0.75,0,0,1-.14-1Zm5.77,13.58q-0.6,1.62-1.22,3.49t-1.22,3.78q-0.6,1.9-1.22,3.76t-1.22,3.47H2339Z" transform="translate(-2242.19 -137.81)"/><path class="cls-2" d="M2366.59,147.75a1.68,1.68,0,0,1,.44-1,1.39,1.39,0,0,1,1.08-.41h11a1.48,1.48,0,0,1,1.52,1.21l8.63,28.81,8.69-28.81a1.63,1.63,0,0,1,1.62-1.21h10.85a1.54,1.54,0,0,1,1,.4,1.48,1.48,0,0,1,.52,1q1.11,11.17,2.27,22.16t2.27,22.16v0.16a1.17,1.17,0,0,1-1.4,1.24h-9a1.33,1.33,0,0,1-1.52-1.4l-2.76-24.53-7.14,24.68a1.79,1.79,0,0,1-.46.76,1.09,1.09,0,0,1-.78.44h-8.34a1.2,1.2,0,0,1-.81-0.43,1.37,1.37,0,0,1-.46-0.78l-7.14-24.62L2374,192.07a1.34,1.34,0,0,1-1.56,1.4h-9a1.22,1.22,0,0,1-1.36-1.4Z" transform="translate(-2242.19 -137.81)"/><path class="cls-2" d="M2424.64,147.81a1.51,1.51,0,0,1,.36-1.06,1.33,1.33,0,0,1,1-.4h31.48a1.4,1.4,0,0,1,1.08.41,1.57,1.57,0,0,1,.38,1.11v7.85a1.66,1.66,0,0,1-.38,1,1.32,1.32,0,0,1-1.11.49h-20.56v7.87h15.86a1.67,1.67,0,0,1,1,.29,1.09,1.09,0,0,1,.4,1v6.85a1.32,1.32,0,0,1-.35.86,1.26,1.26,0,0,1-1,.41h-15.9v8.12h21.32a1.27,1.27,0,0,1,1.43,1.46v8a0.78,0.78,0,0,1-.25.57,1.09,1.09,0,0,1-1.3.89H2426a1.48,1.48,0,0,1-1-.33,1.3,1.3,0,0,1-.38-1V147.81Z" transform="translate(-2242.19 -137.81)"/><path class="cls-2" d="M2486,163.74l7.66-16.4a4.39,4.39,0,0,1,.32-0.56,1,1,0,0,1,.25-0.25,0.65,0.65,0,0,1,.27-0.1,1.62,1.62,0,0,0,.33-0.08h12.22a0.5,0.5,0,0,1,.37.14,0.46,0.46,0,0,1,.14.33,1.23,1.23,0,0,1-.44.79l-15,26.62V192a1.3,1.3,0,0,1-1.46,1.49h-9.49a1.23,1.23,0,0,1-1-.4,1.6,1.6,0,0,1-.35-1.09v-17.8l-15-26.56a1.16,1.16,0,0,1-.41-0.79,0.48,0.48,0,0,1,.13-0.33,0.44,0.44,0,0,1,.35-0.14h12.22l0.35,0.08a0.64,0.64,0,0,1,.25.1,1,1,0,0,1,.25.25q0.13,0.17.35,0.56Z" transform="translate(-2242.19 -137.81)"/><path class="cls-2" d="M2519.1,147.59a0.92,0.92,0,0,1,.21-0.41,2.38,2.38,0,0,1,1-.71,1.49,1.49,0,0,1,.54-0.11h8.12a1.35,1.35,0,0,1,.92.33,4.11,4.11,0,0,1,.57.59l0.79,1.81,16.66,43a0.93,0.93,0,0,1-.1,1,1.54,1.54,0,0,1-1.21.4h-9.11a2,2,0,0,1-1.13-.27,1.74,1.74,0,0,1-.62-0.9q-0.64-1.62-1.24-3.22l-1.21-3.22h-16.85q-0.6,1.62-1.22,3.22t-1.22,3.22a1.59,1.59,0,0,1-1.62,1.17H2503a1.55,1.55,0,0,1-1-.32,0.75,0.75,0,0,1-.14-1Zm5.77,13.58q-0.6,1.62-1.22,3.49t-1.22,3.78q-0.6,1.9-1.22,3.76t-1.22,3.47h9.74Z" transform="translate(-2242.19 -137.81)"/><path class="cls-2" d="M2574.72,147.81a1.55,1.55,0,0,1,.35-1.06,1.32,1.32,0,0,1,1-.4h20.27a13.8,13.8,0,0,1,4.12.6,14,14,0,0,1,3.55,1.67,14.47,14.47,0,0,1,2.92,2.54,16.36,16.36,0,0,1,2.21,3.19,16.17,16.17,0,0,1,1.38,3.6,15.62,15.62,0,0,1-.56,9.41,15.33,15.33,0,0,1-2.93,4.85,15,15,0,0,1-4.57,3.44,13.43,13.43,0,0,1-5.9,1.35H2587v15.1a1.25,1.25,0,0,1-1.46,1.36h-9.42a1.49,1.49,0,0,1-1-.33,1.3,1.3,0,0,1-.38-1V147.81Zm23.89,13.9a5.74,5.74,0,0,0-.33-1.9,5.27,5.27,0,0,0-1-1.7,5.14,5.14,0,0,0-1.54-1.22,4.33,4.33,0,0,0-2-.48H2587V167h6.73a4.55,4.55,0,0,0,2.06-.46,4.82,4.82,0,0,0,1.54-1.19,5.25,5.25,0,0,0,1-1.68A5.92,5.92,0,0,0,2598.61,161.71Z" transform="translate(-2242.19 -137.81)"/><path class="cls-2" d="M2626,147.59a0.92,0.92,0,0,1,.21-0.41,2.38,2.38,0,0,1,1-.71,1.49,1.49,0,0,1,.54-0.11h8.12a1.35,1.35,0,0,1,.92.33,4.11,4.11,0,0,1,.57.59l0.79,1.81,16.66,43a0.93,0.93,0,0,1-.1,1,1.54,1.54,0,0,1-1.21.4h-9.11a2,2,0,0,1-1.13-.27,1.74,1.74,0,0,1-.62-0.9q-0.64-1.62-1.24-3.22l-1.21-3.22h-16.85q-0.6,1.62-1.22,3.22t-1.22,3.22a1.59,1.59,0,0,1-1.62,1.17H2610a1.55,1.55,0,0,1-1-.32,0.75,0.75,0,0,1-.14-1Zm5.77,13.58q-0.6,1.62-1.22,3.49t-1.22,3.78q-0.6,1.9-1.22,3.76t-1.22,3.47h9.74Z" transform="translate(-2242.19 -137.81)"/><path class="cls-2" d="M2666.81,192.8q-0.32-.54-0.6-1.11t-0.51-1.14q-4.09-10.79-8.16-21.39t-8.15-21.39a0.83,0.83,0,0,0,0-.29,0.71,0.71,0,0,1,0-.25q0-.89,1.17-0.89h10.22a1.65,1.65,0,0,1,1.65,1.21l9.71,28.9,9-28.9a1.71,1.71,0,0,1,1.75-1.21h10.31a1.55,1.55,0,0,1,1,.27,0.91,0.91,0,0,1,.3.71,1.27,1.27,0,0,1,0,.35v0.1L2688.73,164l4.25,12.47,10.28-28.87a1.71,1.71,0,0,1,1.75-1.21h10a1.55,1.55,0,0,1,1,.27,0.91,0.91,0,0,1,.3.71,1.34,1.34,0,0,1,0,.35v0.1q-2.16,5.58-4.41,11.14t-4.52,11.1q-2.27,5.55-4.51,11.12t-4.36,11.12a2.21,2.21,0,0,1-.57.78,1.5,1.5,0,0,1-1.08.43h-7.77a1.77,1.77,0,0,1-1.06-.27,1.49,1.49,0,0,1-.52-0.71l-5-13.2-2.13,5.66q-1,2.78-2.09,5.66-0.16.44-.36,0.94a5.42,5.42,0,0,1-.49.92,3,3,0,0,1-.65.71,1.32,1.32,0,0,1-.84.29h-7.77A1.32,1.32,0,0,1,2666.81,192.8Z" transform="translate(-2242.19 -137.81)"/><path class="cls-2" d="M2727.3,147.59a0.92,0.92,0,0,1,.21-0.41,2.38,2.38,0,0,1,1-.71,1.49,1.49,0,0,1,.54-0.11h8.12a1.35,1.35,0,0,1,.92.33,4.11,4.11,0,0,1,.57.59l0.79,1.81,16.66,43a0.93,0.93,0,0,1-.1,1,1.54,1.54,0,0,1-1.21.4h-9.11a2,2,0,0,1-1.13-.27,1.74,1.74,0,0,1-.62-0.9q-0.64-1.62-1.24-3.22l-1.21-3.22h-16.85q-0.6,1.62-1.22,3.22t-1.22,3.22a1.59,1.59,0,0,1-1.62,1.17h-9.36a1.55,1.55,0,0,1-1-.32,0.75,0.75,0,0,1-.14-1Zm5.77,13.58q-0.6,1.62-1.22,3.49t-1.22,3.78q-0.6,1.9-1.22,3.76t-1.22,3.47h9.74Z" transform="translate(-2242.19 -137.81)"/><path class="cls-2" d="M2762.45,147.81a1.55,1.55,0,0,1,.35-1.06,1.32,1.32,0,0,1,1-.4h20.5a15.42,15.42,0,0,1,6.12,1.22,16,16,0,0,1,5,3.32,15.49,15.49,0,0,1,3.35,4.9,14.85,14.85,0,0,1,1.22,6,14.22,14.22,0,0,1-.59,4.11,15.35,15.35,0,0,1-1.63,3.65,15.51,15.51,0,0,1-2.49,3.08,16.27,16.27,0,0,1-3.16,2.36l8.16,15.36q0.22,0.45.57,1a2.17,2.17,0,0,1,.35,1,0.94,0.94,0,0,1-.33.78,1.39,1.39,0,0,1-.9.27H2789.1a1.58,1.58,0,0,1-1-.32,1.44,1.44,0,0,1-.56-0.86l-7.71-14.5h-5.14V192.1a1.25,1.25,0,0,1-1.46,1.36h-9.42a1.49,1.49,0,0,1-1-.33,1.3,1.3,0,0,1-.38-1V147.81Zm24.84,14.09a5.49,5.49,0,0,0-.35-1.9,6.18,6.18,0,0,0-1-1.75,5.77,5.77,0,0,0-1.52-1.33,5.22,5.22,0,0,0-2-.7l-1.67-.11q-0.78,0-1.7,0h-4.38V167.7h5.84c0.38,0,.72,0,1,0l1-.09a5,5,0,0,0,2-.65,5.2,5.2,0,0,0,1.49-1.3,5.75,5.75,0,0,0,.92-1.75A6.35,6.35,0,0,0,2787.3,161.9Z" transform="translate(-2242.19 -137.81)"/><path class="cls-3" d="M2297.71,183.92l1.06-1.9a8.62,8.62,0,0,0,.35-4.14c-0.25-1.06-1.41-3.93-1.41-3.93l0-.1-0.49.07,0.49-.07c-3-8.15-6-16.35-9.1-24.33-0.63-1.66-1.55-3.2-2.15-3.33-14.19-2.92-28.35-5.63-42.52-8.36a6.49,6.49,0,0,0-1.72.22c3,5.23,5.42,9.69,7.86,13.65a10.84,10.84,0,0,0,3.32,3.77c11.32,6.07,22.62,11.92,33.93,17.86,1.73,0.91,3.47,2,5.2,3,0,0,.12,0,0.12,1.28l-37.08-15.16,0.09,1.91c2.79,3,5.76,7.73,8.32,8.74,5.43,2.14,10.64,2.35,15.95,3.36,5.1,1,10.2,2,15.3,3l0.15,1.09-27.93-.36c2.37,2.46,4.59,3.69,6.86,5.45,2.88,2.24,5.49,2.79,8,1.59,4.71-2.29,9.58-3.66,14.38-5.42l0.16,0.85-13.85,8.49c2,1.74,3.93,3.24,5.59,2.92s3.09-2.27,4.54-3.87,2.7-3.56,4-5.36" transform="translate(-2242.19 -137.81)"/></svg>