<svg id="Layer_1" data-name="Layer 1" xmlns="http://www.w3.org/2000/svg" viewBox="0 0 561.82 123.92"><defs><style>.cls-1{fill:#fff;}.cls-2{fill:#ff7f5f;}.cls-3{fill:#f47e61;stroke:#f47e61;stroke-miterlimit:10;stroke-width:0.6px;}</style></defs><title>Pawar2018_Logo_Espanol</title><path class="cls-1" d="M86.22,9.78a0.92,0.92,0,0,1,.21-0.41,2.38,2.38,0,0,1,1-.71,1.49,1.49,0,0,1,.54-0.11h8.12a1.35,1.35,0,0,1,.92.33,4.11,4.11,0,0,1,.57.59l0.79,1.81,16.66,43a0.93,0.93,0,0,1-.1,1,1.54,1.54,0,0,1-1.21.4h-9.11a2,2,0,0,1-1.13-.27,1.74,1.74,0,0,1-.62-0.9q-0.64-1.62-1.24-3.22L100.4,48H83.56q-0.6,1.62-1.22,3.22t-1.22,3.22a1.59,1.59,0,0,1-1.62,1.17H70.13a1.55,1.55,0,0,1-1-.32,0.75,0.75,0,0,1-.14-1ZM92,23.36q-0.6,1.62-1.22,3.49t-1.22,3.78q-0.6,1.9-1.22,3.76t-1.22,3.47h9.74Z"/><path class="cls-1" d="M124.41,9.94a1.68,1.68,0,0,1,.44-1,1.39,1.39,0,0,1,1.08-.41h11a1.48,1.48,0,0,1,1.52,1.21l8.63,28.81,8.69-28.81a1.63,1.63,0,0,1,1.62-1.21h10.85a1.54,1.54,0,0,1,1,.4,1.48,1.48,0,0,1,.52,1Q170.89,21.11,172,32.1t2.27,22.16v0.16a1.17,1.17,0,0,1-1.4,1.24h-9a1.33,1.33,0,0,1-1.52-1.4l-2.76-24.53-7.14,24.68a1.79,1.79,0,0,1-.46.76,1.09,1.09,0,0,1-.78.44h-8.34a1.2,1.2,0,0,1-.81-0.43,1.37,1.37,0,0,1-.46-0.78L134.53,29.8l-2.76,24.46a1.34,1.34,0,0,1-1.56,1.4h-9a1.22,1.22,0,0,1-1.36-1.4Z"/><path class="cls-1" d="M182.46,10a1.51,1.51,0,0,1,.36-1.06,1.33,1.33,0,0,1,1-.4h31.48A1.4,1.4,0,0,1,216.4,9a1.57,1.57,0,0,1,.38,1.11V17.9a1.66,1.66,0,0,1-.38,1,1.32,1.32,0,0,1-1.11.49H194.73v7.87H210.6a1.67,1.67,0,0,1,1,.29,1.09,1.09,0,0,1,.4,1v6.85a1.32,1.32,0,0,1-.35.86,1.26,1.26,0,0,1-1,.41h-15.9v8.12h21.32a1.27,1.27,0,0,1,1.43,1.46v8a0.78,0.78,0,0,1-.25.57,1.09,1.09,0,0,1-1.3.89H183.85a1.48,1.48,0,0,1-1-.33,1.3,1.3,0,0,1-.38-1V10Z"/><path class="cls-1" d="M243.83,25.93l7.66-16.4A4.39,4.39,0,0,1,251.81,9a1,1,0,0,1,.25-0.25,0.65,0.65,0,0,1,.27-0.1,1.62,1.62,0,0,0,.33-0.08h12.22a0.5,0.5,0,0,1,.37.14,0.46,0.46,0,0,1,.14.33,1.23,1.23,0,0,1-.44.79l-15,26.62V54.17a1.3,1.3,0,0,1-1.46,1.49H239a1.23,1.23,0,0,1-1-.4,1.6,1.6,0,0,1-.35-1.09V36.37l-15-26.56A1.16,1.16,0,0,1,222.21,9a0.48,0.48,0,0,1,.13-0.33,0.44,0.44,0,0,1,.35-0.14H234.9l0.35,0.08a0.64,0.64,0,0,1,.25.1,1,1,0,0,1,.25.25q0.13,0.17.35,0.56Z"/><path class="cls-1" d="M276.91,9.78a0.92,0.92,0,0,1,.21-0.41,2.38,2.38,0,0,1,1-.71,1.49,1.49,0,0,1,.54-0.11h8.12a1.35,1.35,0,0,1,.92.33,4.11,4.11,0,0,1,.57.59L289,11.27l16.66,43a0.93,0.93,0,0,1-.1,1,1.54,1.54,0,0,1-1.21.4h-9.11a2,2,0,0,1-1.13-.27,1.74,1.74,0,0,1-.62-0.9q-0.64-1.62-1.24-3.22L291.09,48H274.25q-0.6,1.62-1.22,3.22t-1.22,3.22a1.59,1.59,0,0,1-1.62,1.17h-9.36a1.55,1.55,0,0,1-1-.32,0.75,0.75,0,0,1-.14-1Zm5.77,13.58q-0.6,1.62-1.22,3.49t-1.22,3.78q-0.6,1.9-1.22,3.76t-1.22,3.47h9.74Z"/><path class="cls-1" d="M332.53,10a1.55,1.55,0,0,1,.35-1.06,1.32,1.32,0,0,1,1-.4H354.2a13.8,13.8,0,0,1,4.12.6,14,14,0,0,1,3.55,1.67,14.47,14.47,0,0,1,2.92,2.54A16.36,16.36,0,0,1,367,16.54a16.17,16.17,0,0,1,1.38,3.6,15.62,15.62,0,0,1-.56,9.41,15.33,15.33,0,0,1-2.93,4.85,15,15,0,0,1-4.57,3.44,13.43,13.43,0,0,1-5.9,1.35h-9.61v15.1a1.25,1.25,0,0,1-1.46,1.36h-9.42a1.49,1.49,0,0,1-1-.33,1.3,1.3,0,0,1-.38-1V10Zm23.89,13.9a5.74,5.74,0,0,0-.33-1.9,5.27,5.27,0,0,0-1-1.7,5.14,5.14,0,0,0-1.54-1.22,4.33,4.33,0,0,0-2-.48h-6.73V29.2h6.73a4.55,4.55,0,0,0,2.06-.46,4.82,4.82,0,0,0,1.54-1.19,5.25,5.25,0,0,0,1-1.68A5.92,5.92,0,0,0,356.42,23.9Z"/><path class="cls-1" d="M383.86,9.78a0.92,0.92,0,0,1,.21-0.41,2.38,2.38,0,0,1,1-.71,1.49,1.49,0,0,1,.54-0.11h8.12a1.35,1.35,0,0,1,.92.33,4.11,4.11,0,0,1,.57.59L396,11.27l16.66,43a0.93,0.93,0,0,1-.1,1,1.54,1.54,0,0,1-1.21.4h-9.11a2,2,0,0,1-1.13-.27,1.74,1.74,0,0,1-.62-0.9q-0.64-1.62-1.24-3.22L398,48H381.19q-0.6,1.62-1.22,3.22t-1.22,3.22a1.59,1.59,0,0,1-1.62,1.17h-9.36a1.55,1.55,0,0,1-1-.32,0.75,0.75,0,0,1-.14-1Zm5.77,13.58Q389,25,388.41,26.85t-1.22,3.78q-0.6,1.9-1.22,3.76t-1.22,3.47h9.74Z"/><path class="cls-1" d="M424.63,55q-0.32-.54-0.6-1.11t-0.51-1.14Q419.42,42,415.36,31.35T407.21,10a0.83,0.83,0,0,0,0-.29,0.71,0.71,0,0,1,0-.25q0-.89,1.17-0.89H418.5a1.65,1.65,0,0,1,1.65,1.21l9.71,28.9,9-28.9a1.71,1.71,0,0,1,1.75-1.21H450.9a1.55,1.55,0,0,1,1,.27,0.91,0.91,0,0,1,.3.71,1.27,1.27,0,0,1,0,.35V10l-5.65,16.18,4.25,12.47L461.08,9.75a1.71,1.71,0,0,1,1.75-1.21h10a1.55,1.55,0,0,1,1,.27,0.91,0.91,0,0,1,.3.71,1.34,1.34,0,0,1,0,.35V10Q472,15.55,469.71,21.1t-4.52,11.1q-2.27,5.55-4.51,11.12t-4.36,11.12a2.21,2.21,0,0,1-.57.78,1.5,1.5,0,0,1-1.08.43H446.9a1.77,1.77,0,0,1-1.06-.27,1.49,1.49,0,0,1-.52-0.71l-5-13.2-2.13,5.66q-1,2.78-2.09,5.66-0.16.44-.36,0.94a5.42,5.42,0,0,1-.49.92,3,3,0,0,1-.65.71,1.32,1.32,0,0,1-.84.29H426A1.32,1.32,0,0,1,424.63,55Z"/><path class="cls-1" d="M485.11,9.78a0.92,0.92,0,0,1,.21-0.41,2.38,2.38,0,0,1,1-.71,1.49,1.49,0,0,1,.54-0.11h8.12a1.35,1.35,0,0,1,.92.33,4.11,4.11,0,0,1,.57.59l0.79,1.81,16.66,43a0.93,0.93,0,0,1-.1,1,1.54,1.54,0,0,1-1.21.4h-9.11a2,2,0,0,1-1.13-.27,1.74,1.74,0,0,1-.62-0.9q-0.64-1.62-1.24-3.22L499.3,48H482.45q-0.6,1.62-1.22,3.22T480,54.48a1.59,1.59,0,0,1-1.62,1.17H469a1.55,1.55,0,0,1-1-.32,0.75,0.75,0,0,1-.14-1Zm5.77,13.58q-0.6,1.62-1.22,3.49t-1.22,3.78q-0.6,1.9-1.22,3.76T486,37.86h9.74Z"/><path class="cls-1" d="M520.27,10a1.55,1.55,0,0,1,.35-1.06,1.32,1.32,0,0,1,1-.4h20.5a15.42,15.42,0,0,1,6.12,1.22,16,16,0,0,1,5,3.32,15.49,15.49,0,0,1,3.35,4.9,14.85,14.85,0,0,1,1.22,6,14.22,14.22,0,0,1-.59,4.11,15.35,15.35,0,0,1-1.63,3.65,15.51,15.51,0,0,1-2.49,3.08A16.27,16.27,0,0,1,550,37.16l8.16,15.36q0.22,0.45.57,1a2.17,2.17,0,0,1,.35,1,0.94,0.94,0,0,1-.33.78,1.39,1.39,0,0,1-.9.27H546.92a1.58,1.58,0,0,1-1-.32,1.44,1.44,0,0,1-.56-0.86L537.69,40h-5.14V54.29a1.25,1.25,0,0,1-1.46,1.36h-9.42a1.49,1.49,0,0,1-1-.33,1.3,1.3,0,0,1-.38-1V10Zm24.84,14.09a5.49,5.49,0,0,0-.35-1.9,6.18,6.18,0,0,0-1-1.75,5.77,5.77,0,0,0-1.52-1.33,5.22,5.22,0,0,0-2-.7l-1.67-.11q-0.78,0-1.7,0h-4.38V29.89h5.84c0.38,0,.72,0,1,0l1-.09a5,5,0,0,0,2-.65,5.2,5.2,0,0,0,1.49-1.3,5.75,5.75,0,0,0,.92-1.75A6.35,6.35,0,0,0,545.11,24.09Z"/><path class="cls-2" d="M55.53,46.11l1.06-1.9a8.62,8.62,0,0,0,.35-4.14c-0.25-1.06-1.41-3.93-1.41-3.93l0-.1L55,36.11,55.49,36c-3-8.15-6-16.35-9.1-24.33-0.63-1.66-1.55-3.2-2.15-3.33C30,5.47,15.88,2.75,1.72,0A6.49,6.49,0,0,0,0,.24C3,5.47,5.42,9.92,7.86,13.89a10.84,10.84,0,0,0,3.32,3.77C22.5,23.72,33.8,29.57,45.11,35.52c1.73,0.91,3.47,2,5.2,3,0,0,.12,0,0.12,1.28L13.36,24.64l0.09,1.91c2.79,3,5.76,7.73,8.32,8.74,5.43,2.14,10.64,2.35,15.95,3.36,5.1,1,10.2,2,15.3,3l0.15,1.09-27.93-.36c2.37,2.46,4.59,3.69,6.86,5.45,2.88,2.24,5.49,2.79,8,1.59,4.71-2.29,9.58-3.66,14.38-5.42l0.16,0.85L40.76,53.32c2,1.74,3.93,3.24,5.59,2.92s3.09-2.27,4.54-3.87,2.7-3.56,4-5.36"/><path class="cls-3" d="M279.75,76.24a2.2,2.2,0,0,0,3.35,0,3.32,3.32,0,0,0,.62-2.12V67.94h2.5V74.2a5,5,0,0,1-1.34,3.74,5.19,5.19,0,0,1-6.89,0,5,5,0,0,1-1.35-3.73V67.94h2.5v6.18A3.29,3.29,0,0,0,279.75,76.24Z"/><path class="cls-3" d="M297.11,67.94h2.5V79.13h-2.5l-5.33-7v7h-2.5V67.94h2.34l5.49,7.2v-7.2Z"/><path class="cls-3" d="M315.36,67.94h2.5V79.13h-2.5l-5.33-7v7h-2.5V67.94h2.34l5.49,7.2v-7.2Z"/><path class="cls-3" d="M324.05,76.24a2.2,2.2,0,0,0,3.35,0,3.32,3.32,0,0,0,.62-2.12V67.94h2.5V74.2a5,5,0,0,1-1.34,3.74,5.19,5.19,0,0,1-6.89,0,5,5,0,0,1-1.35-3.73V67.94h2.5v6.18A3.29,3.29,0,0,0,324.05,76.24Z"/><path class="cls-3" d="M341.65,67.94v2.22h-5.57v2.3h5V74.6h-5v2.32h5.74v2.21h-8.24V67.94h8.06Z"/><path class="cls-3" d="M348.66,75.06l2.85-7.12h2.7l-4.5,11.18H347.6l-4.5-11.18h2.7Z"/><path class="cls-3" d="M365.17,77.58a6.09,6.09,0,0,1-8.35,0,5.85,5.85,0,0,1,0-8.24,6.09,6.09,0,0,1,8.35,0A5.85,5.85,0,0,1,365.17,77.58Zm-0.85-4.11a3.66,3.66,0,0,0-1-2.55,3.16,3.16,0,0,0-4.72,0,3.86,3.86,0,0,0,0,5.1,3.18,3.18,0,0,0,4.72,0A3.63,3.63,0,0,0,364.32,73.47Z"/><path class="cls-3" d="M378.9,70.1v9h-2.5v-9h-3.17V67.94h8.83V70.1H378.9Z"/><path class="cls-3" d="M393.44,71.65a3.29,3.29,0,0,1-2.13,3.47l2.83,4h-3.07l-2.48-3.57h-1.73v3.57h-2.5V67.94h4.24a6.08,6.08,0,0,1,3.72.88A3.4,3.4,0,0,1,393.44,71.65Zm-3,1.33a1.69,1.69,0,0,0,.46-1.32,1.41,1.41,0,0,0-.48-1.24,3.07,3.07,0,0,0-1.68-.34h-1.87V73.4h1.82A2.69,2.69,0,0,0,390.43,73Z"/><path class="cls-3" d="M404.45,79.13l-1-2.42h-4.69l-1,2.42H395l4.83-11.18h2.42l4.83,11.18h-2.66Zm-3.38-7.86-1.41,3.25h2.8Z"/><path class="cls-3" d="M412.8,70.1v9h-2.5v-9h-3.17V67.94H416V70.1H412.8Z"/><path class="cls-3" d="M427.38,77.58a6.09,6.09,0,0,1-8.35,0,5.85,5.85,0,0,1,0-8.24,6.09,6.09,0,0,1,8.35,0A5.85,5.85,0,0,1,427.38,77.58Zm-0.85-4.11a3.66,3.66,0,0,0-1-2.55,3.16,3.16,0,0,0-4.72,0,3.86,3.86,0,0,0,0,5.1,3.18,3.18,0,0,0,4.72,0A3.63,3.63,0,0,0,426.53,73.47Z"/><path class="cls-3" d="M444.07,68.94A3.81,3.81,0,0,1,445.25,72,3.64,3.64,0,0,1,444,75a5.87,5.87,0,0,1-3.69,1h-1.49v3.12h-2.5V67.94h4A5.74,5.74,0,0,1,444.07,68.94Zm-1.83,4.4a2.15,2.15,0,0,0,.45-1.47,1.56,1.56,0,0,0-.58-1.38,3.21,3.21,0,0,0-1.82-.41h-1.42v3.76h1.68A2.23,2.23,0,0,0,442.24,73.34Z"/><path class="cls-3" d="M455,79.13l-1-2.42h-4.69l-1,2.42h-2.66l4.83-11.18h2.42l4.83,11.18H455Zm-3.38-7.86-1.41,3.25H453Z"/><path class="cls-3" d="M468.5,71.65a3.29,3.29,0,0,1-2.13,3.47l2.83,4h-3.07l-2.48-3.57h-1.73v3.57h-2.5V67.94h4.24a6.08,6.08,0,0,1,3.72.88A3.4,3.4,0,0,1,468.5,71.65Zm-3,1.33a1.69,1.69,0,0,0,.46-1.32,1.41,1.41,0,0,0-.48-1.24,3.07,3.07,0,0,0-1.68-.34h-1.87V73.4h1.82A2.69,2.69,0,0,0,465.49,73Z"/><path class="cls-3" d="M479.5,79.13l-1-2.42h-4.69l-1,2.42h-2.66l4.83-11.18h2.42l4.83,11.18H479.5Zm-3.38-7.86-1.41,3.25h2.8Z"/><path class="cls-3" d="M488.64,67.94h2.5V79.13h-2.5V67.94Z"/><path class="cls-3" d="M494.37,79.13V67.94h2.5v9h4.77v2.22h-7.26Z"/><path class="cls-3" d="M503.94,79.13V67.94h2.5v9h4.77v2.22h-7.26Z"/><path class="cls-3" d="M513.5,67.94H516V79.13h-2.5V67.94Z"/><path class="cls-3" d="M527.06,67.94h2.5V79.13h-2.5l-5.33-7v7h-2.5V67.94h2.34l5.49,7.2v-7.2Z"/><path class="cls-3" d="M542.19,77.58a6.09,6.09,0,0,1-8.35,0,5.85,5.85,0,0,1,0-8.24,6.09,6.09,0,0,1,8.35,0A5.85,5.85,0,0,1,542.19,77.58Zm-0.85-4.11a3.66,3.66,0,0,0-1-2.55,3.16,3.16,0,0,0-4.72,0,3.86,3.86,0,0,0,0,5.1,3.18,3.18,0,0,0,4.72,0A3.63,3.63,0,0,0,541.34,73.47Z"/><path class="cls-3" d="M546.48,67.94H549V79.13h-2.5V67.94Z"/><path class="cls-3" d="M554.82,70.17a1,1,0,0,0-.36.78,0.88,0.88,0,0,0,.44.78,8,8,0,0,0,2,.68,5.72,5.72,0,0,1,2.47,1.18,2.91,2.91,0,0,1,.88,2.29,3,3,0,0,1-1.13,2.44,4.5,4.5,0,0,1-3,.94,6.87,6.87,0,0,1-4.78-2l1.49-1.82A5.29,5.29,0,0,0,556.24,77a1.76,1.76,0,0,0,1.08-.3,1,1,0,0,0,.39-0.8,0.93,0.93,0,0,0-.42-0.8,5.44,5.44,0,0,0-1.65-.6,7.16,7.16,0,0,1-2.86-1.21,2.85,2.85,0,0,1-.9-2.34A2.9,2.9,0,0,1,553,68.55a4.6,4.6,0,0,1,2.86-.86,6.87,6.87,0,0,1,2.24.38,6,6,0,0,1,2,1.09L558.82,71a4.93,4.93,0,0,0-3-1.1A1.5,1.5,0,0,0,554.82,70.17Z"/></svg>