<svg id="Layer_1" data-name="Layer 1" xmlns="http://www.w3.org/2000/svg" viewBox="0 0 560.73 80.26"><defs><style>.cls-1{fill:#fff;}.cls-2{fill:#ff7f5f;}.cls-3{fill:#f47e61;stroke:#f47e61;stroke-miterlimit:10;stroke-width:0.5px;}</style></defs><title>Pawar2018_Logo_Chinese_White</title><path class="cls-1" d="M3117.49,147.59a0.92,0.92,0,0,1,.21-0.41,2.38,2.38,0,0,1,1-.71,1.49,1.49,0,0,1,.54-0.11h8.12a1.35,1.35,0,0,1,.92.33,4.11,4.11,0,0,1,.57.59l0.79,1.81,16.66,43a0.93,0.93,0,0,1-.1,1,1.54,1.54,0,0,1-1.21.4h-9.11a2,2,0,0,1-1.13-.27,1.74,1.74,0,0,1-.62-0.9q-0.64-1.62-1.24-3.22l-1.21-3.22h-16.85q-0.6,1.62-1.22,3.22t-1.22,3.22a1.59,1.59,0,0,1-1.62,1.17h-9.36a1.55,1.55,0,0,1-1-.32,0.75,0.75,0,0,1-.14-1Zm5.77,13.58q-0.6,1.62-1.22,3.49t-1.22,3.78q-0.6,1.9-1.22,3.76t-1.22,3.47h9.74Z" transform="translate(-3031.26 -137.81)"/><path class="cls-1" d="M3155.67,147.75a1.68,1.68,0,0,1,.44-1,1.39,1.39,0,0,1,1.08-.41h11a1.48,1.48,0,0,1,1.52,1.21l8.63,28.81,8.69-28.81a1.63,1.63,0,0,1,1.62-1.21h10.85a1.54,1.54,0,0,1,1,.4,1.48,1.48,0,0,1,.52,1q1.11,11.17,2.27,22.16t2.27,22.16v0.16a1.17,1.17,0,0,1-1.4,1.24h-9a1.33,1.33,0,0,1-1.52-1.4l-2.76-24.53-7.14,24.68a1.79,1.79,0,0,1-.46.76,1.09,1.09,0,0,1-.78.44h-8.34a1.2,1.2,0,0,1-.81-0.43,1.37,1.37,0,0,1-.46-0.78l-7.14-24.62L3163,192.07a1.34,1.34,0,0,1-1.56,1.4h-9a1.22,1.22,0,0,1-1.36-1.4Z" transform="translate(-3031.26 -137.81)"/><path class="cls-1" d="M3213.72,147.81a1.51,1.51,0,0,1,.36-1.06,1.33,1.33,0,0,1,1-.4h31.48a1.4,1.4,0,0,1,1.08.41,1.57,1.57,0,0,1,.38,1.11v7.85a1.66,1.66,0,0,1-.38,1,1.32,1.32,0,0,1-1.11.49H3226v7.87h15.86a1.67,1.67,0,0,1,1,.29,1.09,1.09,0,0,1,.4,1v6.85a1.32,1.32,0,0,1-.35.86,1.26,1.26,0,0,1-1,.41H3226v8.12h21.32a1.27,1.27,0,0,1,1.43,1.46v8a0.78,0.78,0,0,1-.25.57,1.09,1.09,0,0,1-1.3.89h-32.08a1.48,1.48,0,0,1-1-.33,1.3,1.3,0,0,1-.38-1V147.81Z" transform="translate(-3031.26 -137.81)"/><path class="cls-1" d="M3275.1,163.74l7.66-16.4a4.39,4.39,0,0,1,.32-0.56,1,1,0,0,1,.25-0.25,0.65,0.65,0,0,1,.27-0.1,1.62,1.62,0,0,0,.33-0.08h12.22a0.5,0.5,0,0,1,.37.14,0.46,0.46,0,0,1,.14.33,1.23,1.23,0,0,1-.44.79l-15,26.62V192a1.3,1.3,0,0,1-1.46,1.49h-9.49a1.23,1.23,0,0,1-1-.4,1.6,1.6,0,0,1-.35-1.09v-17.8l-15-26.56a1.16,1.16,0,0,1-.41-0.79,0.48,0.48,0,0,1,.13-0.33,0.44,0.44,0,0,1,.35-0.14h12.22l0.35,0.08a0.64,0.64,0,0,1,.25.1,1,1,0,0,1,.25.25q0.13,0.17.35,0.56Z" transform="translate(-3031.26 -137.81)"/><path class="cls-1" d="M3308.18,147.59a0.92,0.92,0,0,1,.21-0.41,2.38,2.38,0,0,1,1-.71,1.49,1.49,0,0,1,.54-0.11H3318a1.35,1.35,0,0,1,.92.33,4.11,4.11,0,0,1,.57.59l0.79,1.81L3337,192a0.93,0.93,0,0,1-.1,1,1.54,1.54,0,0,1-1.21.4h-9.11a2,2,0,0,1-1.13-.27,1.74,1.74,0,0,1-.62-0.9q-0.64-1.62-1.24-3.22l-1.21-3.22h-16.85q-0.6,1.62-1.22,3.22t-1.22,3.22a1.59,1.59,0,0,1-1.62,1.17h-9.36a1.55,1.55,0,0,1-1-.32,0.75,0.75,0,0,1-.14-1Zm5.77,13.58q-0.6,1.62-1.22,3.49t-1.22,3.78q-0.6,1.9-1.22,3.76t-1.22,3.47h9.74Z" transform="translate(-3031.26 -137.81)"/><path class="cls-1" d="M3363.8,147.81a1.55,1.55,0,0,1,.35-1.06,1.32,1.32,0,0,1,1-.4h20.27a13.8,13.8,0,0,1,4.12.6,14,14,0,0,1,3.55,1.67,14.47,14.47,0,0,1,2.92,2.54,16.36,16.36,0,0,1,2.21,3.19,16.17,16.17,0,0,1,1.38,3.6,15.62,15.62,0,0,1-.56,9.41,15.33,15.33,0,0,1-2.93,4.85,15,15,0,0,1-4.57,3.44,13.43,13.43,0,0,1-5.9,1.35h-9.61v15.1a1.25,1.25,0,0,1-1.46,1.36h-9.42a1.49,1.49,0,0,1-1-.33,1.3,1.3,0,0,1-.38-1V147.81Zm23.89,13.9a5.74,5.74,0,0,0-.33-1.9,5.27,5.27,0,0,0-1-1.7,5.14,5.14,0,0,0-1.54-1.22,4.33,4.33,0,0,0-2-.48h-6.73V167h6.73a4.55,4.55,0,0,0,2.06-.46,4.82,4.82,0,0,0,1.54-1.19,5.25,5.25,0,0,0,1-1.68A5.92,5.92,0,0,0,3387.69,161.71Z" transform="translate(-3031.26 -137.81)"/><path class="cls-1" d="M3415.12,147.59a0.92,0.92,0,0,1,.21-0.41,2.38,2.38,0,0,1,1-.71,1.49,1.49,0,0,1,.54-0.11H3425a1.35,1.35,0,0,1,.92.33,4.11,4.11,0,0,1,.57.59l0.79,1.81,16.66,43a0.93,0.93,0,0,1-.1,1,1.54,1.54,0,0,1-1.21.4h-9.11a2,2,0,0,1-1.13-.27,1.74,1.74,0,0,1-.62-0.9q-0.64-1.62-1.24-3.22l-1.21-3.22h-16.85q-0.6,1.62-1.22,3.22t-1.22,3.22a1.59,1.59,0,0,1-1.62,1.17H3399a1.55,1.55,0,0,1-1-.32,0.75,0.75,0,0,1-.14-1Zm5.77,13.58q-0.6,1.62-1.22,3.49t-1.22,3.78q-0.6,1.9-1.22,3.76t-1.22,3.47h9.74Z" transform="translate(-3031.26 -137.81)"/><path class="cls-1" d="M3455.89,192.8q-0.32-.54-0.6-1.11t-0.51-1.14q-4.09-10.79-8.16-21.39t-8.15-21.39a0.83,0.83,0,0,0,0-.29,0.71,0.71,0,0,1,0-.25q0-.89,1.17-0.89h10.22a1.65,1.65,0,0,1,1.65,1.21l9.71,28.9,9-28.9a1.71,1.71,0,0,1,1.75-1.21h10.31a1.55,1.55,0,0,1,1,.27,0.91,0.91,0,0,1,.3.71,1.27,1.27,0,0,1,0,.35v0.1L3477.81,164l4.25,12.47,10.28-28.87a1.71,1.71,0,0,1,1.75-1.21h10a1.55,1.55,0,0,1,1,.27,0.91,0.91,0,0,1,.3.71,1.34,1.34,0,0,1,0,.35v0.1q-2.16,5.58-4.41,11.14t-4.52,11.1q-2.27,5.55-4.51,11.12t-4.36,11.12a2.21,2.21,0,0,1-.57.78,1.5,1.5,0,0,1-1.08.43h-7.77a1.77,1.77,0,0,1-1.06-.27,1.49,1.49,0,0,1-.52-0.71l-5-13.2-2.13,5.66q-1,2.78-2.09,5.66-0.16.44-.36,0.94a5.42,5.42,0,0,1-.49.92,3,3,0,0,1-.65.71,1.32,1.32,0,0,1-.84.29h-7.77A1.32,1.32,0,0,1,3455.89,192.8Z" transform="translate(-3031.26 -137.81)"/><path class="cls-1" d="M3516.38,147.59a0.92,0.92,0,0,1,.21-0.41,2.38,2.38,0,0,1,1-.71,1.49,1.49,0,0,1,.54-0.11h8.12a1.35,1.35,0,0,1,.92.33,4.11,4.11,0,0,1,.57.59l0.79,1.81,16.66,43a0.93,0.93,0,0,1-.1,1,1.54,1.54,0,0,1-1.21.4h-9.11a2,2,0,0,1-1.13-.27,1.74,1.74,0,0,1-.62-0.9q-0.64-1.62-1.24-3.22l-1.21-3.22h-16.85q-0.6,1.62-1.22,3.22t-1.22,3.22a1.59,1.59,0,0,1-1.62,1.17h-9.36a1.55,1.55,0,0,1-1-.32,0.75,0.75,0,0,1-.14-1Zm5.77,13.58q-0.6,1.62-1.22,3.49t-1.22,3.78q-0.6,1.9-1.22,3.76t-1.22,3.47H3527Z" transform="translate(-3031.26 -137.81)"/><path class="cls-1" d="M3551.53,147.81a1.55,1.55,0,0,1,.35-1.06,1.32,1.32,0,0,1,1-.4h20.5a15.42,15.42,0,0,1,6.12,1.22,16,16,0,0,1,5,3.32,15.49,15.49,0,0,1,3.35,4.9,14.85,14.85,0,0,1,1.22,6,14.22,14.22,0,0,1-.59,4.11,15.35,15.35,0,0,1-1.63,3.65,15.51,15.51,0,0,1-2.49,3.08,16.27,16.27,0,0,1-3.16,2.36l8.16,15.36q0.22,0.45.57,1a2.17,2.17,0,0,1,.35,1,0.94,0.94,0,0,1-.33.78,1.39,1.39,0,0,1-.9.27h-10.88a1.58,1.58,0,0,1-1-.32,1.44,1.44,0,0,1-.56-0.86l-7.71-14.5h-5.14V192.1a1.25,1.25,0,0,1-1.46,1.36h-9.42a1.49,1.49,0,0,1-1-.33,1.3,1.3,0,0,1-.38-1V147.81Zm24.84,14.09a5.49,5.49,0,0,0-.35-1.9,6.18,6.18,0,0,0-1-1.75,5.77,5.77,0,0,0-1.52-1.33,5.22,5.22,0,0,0-2-.7l-1.67-.11q-0.78,0-1.7,0h-4.38V167.7h5.84c0.38,0,.72,0,1,0l1-.09a5,5,0,0,0,2-.65,5.2,5.2,0,0,0,1.49-1.3,5.75,5.75,0,0,0,.92-1.75A6.35,6.35,0,0,0,3576.38,161.9Z" transform="translate(-3031.26 -137.81)"/><path class="cls-2" d="M3086.79,183.92l1.06-1.9a8.62,8.62,0,0,0,.35-4.14c-0.25-1.06-1.41-3.93-1.41-3.93l0-.1-0.49.07,0.49-.07c-3-8.15-6-16.35-9.1-24.33-0.63-1.66-1.55-3.2-2.15-3.33-14.19-2.92-28.35-5.63-42.52-8.36a6.49,6.49,0,0,0-1.72.22c3,5.23,5.42,9.69,7.86,13.65a10.84,10.84,0,0,0,3.32,3.77c11.32,6.07,22.62,11.92,33.93,17.86,1.73,0.91,3.47,2,5.2,3,0,0,.12,0,0.12,1.28l-37.08-15.16,0.09,1.91c2.79,3,5.76,7.73,8.32,8.74,5.43,2.14,10.64,2.35,15.95,3.36,5.1,1,10.2,2,15.3,3l0.15,1.09-27.93-.36c2.37,2.46,4.59,3.69,6.86,5.45,2.88,2.24,5.49,2.79,8,1.59,4.71-2.29,9.58-3.66,14.38-5.42l0.16,0.85L3072,191.13c2,1.74,3.93,3.24,5.59,2.92s3.09-2.27,4.54-3.87,2.7-3.56,4-5.36" transform="translate(-3031.26 -137.81)"/><path class="cls-3" d="M3488.71,206.83q-0.62,1.12-1.38,2.23a3.29,3.29,0,0,0-.58-0.32,3.92,3.92,0,0,0-.72-0.21q0.34-.32.61-0.62a6.69,6.69,0,0,0,.54-0.68q0.27-.38.54-0.86t0.63-1.13a12,12,0,0,0,.74-1.77,14.83,14.83,0,0,0,.59-2.45l0.3,0.14,0.26,0.09,0.27,0.07,0.34,0.09q0.67,0.16,0,.41a4.21,4.21,0,0,0-.58,1.38l-0.26.72q-0.13.36-.29,0.75v12.76h-1.22q0.09-.76.14-1.75t0.05-1.94v-6.91Zm5.9-3a23.36,23.36,0,0,0-2.78.16v-1.17l0.8,0.08,0.89,0,1.22,0h3.54l1.15,0q0.47,0,.81,0l0.71-.09q0,0.34-.06.63t0,0.6q0,0.31,0,.67t0,0.84v1.38l1.1-.05,1-.09v1.17l-1-.09-1.1-.05v1.75q0,0.78,0,1.47t0.12,1.4h-1.24v-0.78H3495q-0.11.43-.24,0.81t-0.29.77a12.65,12.65,0,0,1-1.31,2.47,9.43,9.43,0,0,1-1.84,2,1,1,0,0,0-.35-0.54,2.14,2.14,0,0,0-.78-0.31,7.36,7.36,0,0,0,1.77-1.44,7.08,7.08,0,0,0,1.28-2q0.19-.46.35-0.88t0.3-.86l-1.11,0-1.2.08v-1.17q0.74,0.07,1.37.1l1.16,0a13,13,0,0,0,.24-1.3q0.1-.72.19-1.67h-1.36l-1.08,0-0.88.05-0.74.07v-1.17l0.74,0.07,0.87,0.05,1.1,0h1.42q0-.85,0-1.69T3494.61,203.79Zm5.12,4h-4.15q-0.09,1-.18,1.67t-0.21,1.3h4.54v-3Zm0-4h-4.07q0,0.34,0,.74v0.83q0,0.43,0,.83t0,0.73h4.09v-3.14Zm9.66,0.14-0.81.11-0.74.11-0.78.1-0.92.1a2.29,2.29,0,0,0-.14-0.62,2.08,2.08,0,0,0-.27-0.48l1,0q0.43,0,.89,0l1-.1,1.35-.19,1.11-.19,0.79-.16a5.3,5.3,0,0,0,.6-0.18l0.57-.24a4.25,4.25,0,0,0,.55.89,0.34,0.34,0,0,1,.13.35,0.19,0.19,0,0,1-.24.1,1.41,1.41,0,0,0-.34,0l-0.53,0-0.86.11-1.32.18v3q1.17,0,2.2,0t1.65-.11v1.12q-0.6-.07-1.64-0.11t-2.21,0v0.69q0.39,0.27.88,0.64l1,0.76,0.95,0.76q0.46,0.37.78,0.66l-1,.87a14.51,14.51,0,0,0-1.07-1.33,19.54,19.54,0,0,0-1.51-1.47v5.37q0,0.66,0,1.45t0.11,1.59h-1.31q0.09-.8.12-1.59t0-1.45v-5a21.16,21.16,0,0,1-1.8,2.83,24,24,0,0,1-2,2.39,1.9,1.9,0,0,0-.43-0.46,2.12,2.12,0,0,0-.66-0.32,10.41,10.41,0,0,0,1.58-1.31,18.13,18.13,0,0,0,1.45-1.64,14.77,14.77,0,0,0,1.18-1.74,8.31,8.31,0,0,0,.74-1.6v-0.12h-1.25l-1.2,0-1,0-0.8.06v-1.12l0.8,0.05,1,0,1.2,0h1.25v-2.91Zm7.12,1a0.52,0.52,0,0,0-.19.48v5.16q0,0.27,0,.62t0,0.74q0,0.38,0,.76t0,0.7h-1.24q0-.32,0-0.7t0-.77q0-.39,0-0.74t0-.61v-3.76q0-.67,0-1.34a7.68,7.68,0,0,0-.11-1,5.2,5.2,0,0,0,.66.12,3.24,3.24,0,0,0,.58,0q0.23,0,.26.09A0.26,0.26,0,0,1,3516.51,204.88Zm3.26-2.85a0.49,0.49,0,0,0-.23.48v13a3.62,3.62,0,0,1-.1.9,1,1,0,0,1-.43.6,2.43,2.43,0,0,1-.94.35,11.4,11.4,0,0,1-1.64.15,1.56,1.56,0,0,0-.05-0.64,2.53,2.53,0,0,0-.34-0.62,10.68,10.68,0,0,0,1.31.16,1.76,1.76,0,0,0,.73-0.09,0.53,0.53,0,0,0,.32-0.34,2,2,0,0,0,.07-0.58v-11q0-.94,0-1.74t-0.1-1.17a3.73,3.73,0,0,0,1.29.12,0.24,0.24,0,0,1,.29.13A0.22,0.22,0,0,1,3519.77,202Zm5.49,13q0.58-.37,1-0.66a8.56,8.56,0,0,0,.81-0.69,2.74,2.74,0,0,0,.1.58,1.15,1.15,0,0,0,.26.4l-1.56,1.13-0.51.37-0.36.28-0.27.25-0.27.28a5.17,5.17,0,0,0-.4-0.51q-0.19-.2-0.43-0.43a2.94,2.94,0,0,0,.44-0.82,3.53,3.53,0,0,0,.18-1.2v-6l-0.77,0-0.55,0a2.68,2.68,0,0,0-.45.09l-0.48.13V207a7.12,7.12,0,0,0,.73.07l1.1,0,1,0q0.38,0,.81-0.07a3.24,3.24,0,0,0-.22.91,9.38,9.38,0,0,0-.08,1.21V215Zm-0.09-9.82a11,11,0,0,0-1-1.36,12.14,12.14,0,0,0-1.23-1.23l0.74-.64q0.69,0.66,1.2,1.22t1.08,1.26Zm5.17,12.38h-1.15q0-.46.06-0.92t0-1v-4.09l-0.91.82q-0.58.51-1.25,1.05a3.4,3.4,0,0,0-.44-0.46,2.13,2.13,0,0,0-.55-0.3,10.07,10.07,0,0,0,2.33-1.65,10.86,10.86,0,0,0,1.73-2.13H3529l-0.9,0-0.71,0-0.59.06V208l0.65,0.06,0.75,0,1,0h1.44a8,8,0,0,0,.47-1,5.15,5.15,0,0,0,.27-1.11,6,6,0,0,0,.65.27l0.54,0.15q0.23,0.05.22,0.19a0.29,0.29,0,0,1-.2.22,1,1,0,0,0-.28.32q-0.2.28-.57,1h3.32l1.15,0,0.89,0,0.71-.06v1.12l-0.7-.06-0.88,0-1.15,0h-3.81a10.36,10.36,0,0,1-.65,1.06,9.13,9.13,0,0,1-.81,1h5a8.93,8.93,0,0,0,1.7-.11,2.65,2.65,0,0,0-.07.44q0,0.23,0,.71v3.81q0,0.35,0,.72t0,0.81h-1.1V216.1h-5v1.49Zm4.93-13.84,0.75,0,0.62,0,0.59,0,0.66-.06v1.15l-0.65-.06-0.58,0-0.62,0-0.77,0v2.18h-1.06v-2.18h-3.51v2.2h-1.08v-2.2h-0.8l-0.64,0-0.58,0-0.64.06v-1.15l0.57,0.06,0.59,0,0.67,0,0.82,0q0-.73,0-1.31t-0.06-.9l0.66,0.08,0.65,0a0.16,0.16,0,0,1,.19.12,0.2,0.2,0,0,1-.12.21,0.38,0.38,0,0,0-.14.22,1.09,1.09,0,0,0-.05.33v1.22h3.51q0-.89,0-1.38a8.34,8.34,0,0,0-.08-0.83l0.66,0.08,0.64,0a0.16,0.16,0,0,1,.19.12,0.19,0.19,0,0,1-.12.2,0.39,0.39,0,0,0-.15.23,1.18,1.18,0,0,0,0,.32v1.24Zm0.11,8.13h-5v3.37h5v-3.37Zm7.07-6.93a14.84,14.84,0,0,0,.47-1.86,12.81,12.81,0,0,0,.2-1.61q0.41,0.14.7,0.21l0.7,0.16q0.37,0.09.05,0.41a3,3,0,0,0-.47.79,15.42,15.42,0,0,0-.66,1.9q0.92,0,1.79,0t1.49-.11a5.85,5.85,0,0,0-.1.79q0,0.43,0,.82v9.14q0,0.3,0,.59t0,0.61q0,0.32.06,0.71h-1.2v-1.63h-3.76v1.77h-1.24q0-.39.06-0.71t0-.61q0-.29,0-0.59t0-.67v-8.61q0-.41,0-0.84t-0.09-.77q0.44,0.07.89,0.1Zm3.07,5v-4.13h-3.76V210h3.76Zm-3.76.89V215h3.76v-4.11h-3.76Zm7.9-5.26-0.33.74q-0.19.42-.4,0.86t-0.46.88q-0.25.43-.48,0.81a4.41,4.41,0,0,0-.52-0.3,3.48,3.48,0,0,0-.58-0.21q0.48-.69.84-1.31a10.51,10.51,0,0,0,.66-1.36A16.71,16.71,0,0,0,3549,204q0.27-1,.58-2.37a4.06,4.06,0,0,0,1.29.41,0.24,0.24,0,0,1,.26.15,0.48,0.48,0,0,1-.24.31,0.52,0.52,0,0,0-.12.14,2.07,2.07,0,0,0-.17.35q-0.1.24-.24,0.65l-0.35,1h2.82q0.5,0,1.07,0t0.89-.1q-0.05.41-.07,0.85t-0.05.9l-0.18,9a2.34,2.34,0,0,1-.15.85,1.41,1.41,0,0,1-.57.66,3.45,3.45,0,0,1-1.18.43,10.13,10.13,0,0,1-2,.16q0-.23-0.07-0.4a2.15,2.15,0,0,0-.09-0.31,1.87,1.87,0,0,0-.14-0.29L3550,216q1.12,0.05,1.76,0a2,2,0,0,0,1-.26,1.08,1.08,0,0,0,.44-0.71,6.58,6.58,0,0,0,.11-1.34l0.09-8.13h-3.76Zm1.2,7.35-0.45-1q-0.24-.55-0.5-1.07t-0.53-1a9.6,9.6,0,0,0-.51-0.83l1-.66q0.23,0.39.5,0.88t0.53,1q0.27,0.53.52,1.08t0.47,1Zm9.32-.51a0.27,0.27,0,0,1,.25.27,0.35,0.35,0,0,1-.27.33,1.26,1.26,0,0,0-.36.31,3.69,3.69,0,0,0-.52.77l-0.31.56-0.26.45-0.25.41-0.28.43a2.13,2.13,0,0,0-.44-0.41,1.71,1.71,0,0,0-.46-0.18,9.77,9.77,0,0,0,.63-0.78q0.31-.43.58-0.88t0.5-.89a8.8,8.8,0,0,0,.39-0.85,2.36,2.36,0,0,0,.4.31A1.43,1.43,0,0,0,3560.18,212.47Zm2.06-4.66a14.53,14.53,0,0,0,.78-1.49,13.18,13.18,0,0,0,.58-1.49l0.5,0.23,0.49,0.18a0.39,0.39,0,0,1,.33.26,0.28,0.28,0,0,1-.17.26,2.71,2.71,0,0,0-.67.63,11.62,11.62,0,0,0-1,1.43q1,0,1.76,0t1.36-.09v1q-0.67-.07-1.64-0.1l-2.17,0v2.09l2-.05a15.36,15.36,0,0,0,1.55-.12v1.13a15.51,15.51,0,0,0-1.55-.12l-2-.05v4.75a1.45,1.45,0,0,1-.1.58,0.73,0.73,0,0,1-.38.35,2.53,2.53,0,0,1-.79.19,13.13,13.13,0,0,1-1.32.05,1,1,0,0,0-.06-0.66,2.06,2.06,0,0,0-.45-0.59,10.53,10.53,0,0,0,1,.16,2.53,2.53,0,0,0,.65,0,0.5,0.5,0,0,0,.33-0.17,0.54,0.54,0,0,0,.09-0.32v-4.32q-1.12,0-2,0t-1.55.13v-1.13q0.62,0.09,1.55.13t2,0v-2.09h-1.38l-1.1,0-0.89,0-0.75.06v-1l0.81,0.06,1,0,1.3,0h1.85Zm3.81-3.14q-0.71-.09-1.78-0.12t-2.4,0q-1.33,0-2.4,0t-1.78.12v-1.1q0.71,0.09,1.78.12t2.4,0h1.52l1.11,0,0.83-.05,0.72-.07v1.1Zm-5.46,3q-0.21-.32-0.4-0.56a5.87,5.87,0,0,0-.4-0.46q-0.21-.22-0.46-0.44t-0.6-.49l0.67-.58,0.54,0.43q0.24,0.2.45,0.4t0.42,0.43q0.2,0.23.45,0.55Zm1.38-4.09-0.49-.43a5.83,5.83,0,0,0-.47-0.35l-0.52-.33-0.65-.35,0.53-.73a11.32,11.32,0,0,1,1.2.66,12.18,12.18,0,0,1,1,.74Zm2.76,11.52a10.79,10.79,0,0,0-.72-1.16,9.59,9.59,0,0,0-.89-1.05l0.74-.57q0.53,0.55,1,1.07a7.17,7.17,0,0,1,.73,1.07Zm5.55-7.6h1.15l0.83,0,0.63,0,0.54-.06v1.06a9.52,9.52,0,0,0-1.07-.1l-1.36,0v6.48q0,0.8,0,1.43t0.1,1.39h-1.24q0-.37.05-0.66l0-.59q0-.3,0-0.66v-7.38h-2.18q0,1.91-.13,3.27a13.47,13.47,0,0,1-.43,2.4,8.19,8.19,0,0,1-.81,1.91,13.3,13.3,0,0,1-1.31,1.81,3.6,3.6,0,0,0-.59-0.28,2.89,2.89,0,0,0-.75-0.14,8.29,8.29,0,0,0,1.35-1.38,7,7,0,0,0,1-1.79,11.28,11.28,0,0,0,.58-2.37,20.91,20.91,0,0,0,.18-3.15q0-.85,0-1.67t-0.06-1.55q0-.73-0.08-1.3t-0.1-.93a11.06,11.06,0,0,0,2.85-.37,7.89,7.89,0,0,0,2.53-1.17q0.14,0.3.27,0.53a1.78,1.78,0,0,0,.27.37q0.19,0.2.12,0.31a0.23,0.23,0,0,1-.29,0h-0.13l-0.25,0-0.44.12-0.72.2-0.66.19-0.77.19-0.8.19-0.77.17v3.56h2.46Zm9.9,1.35q1,0,1.57,0t1-.09v1.12a9.34,9.34,0,0,0-1-.11q-0.61,0-1.57,0v4.62q0.78-.21,1.47-0.45a13,13,0,0,0,1.26-.5,2.13,2.13,0,0,0,0,.58,2.91,2.91,0,0,0,.1.52l-2.2.6-2.2.57-2,.49-1.53.36a3.52,3.52,0,0,0-.13-0.66,3.9,3.9,0,0,0-.24-0.6l0.77-.05,0.77-.07v-5.65q0-.87,0-1.36a7.76,7.76,0,0,0-.1-0.9,10,10,0,0,0,1.36.16,0.25,0.25,0,0,1,.25.12,0.23,0.23,0,0,1-.14.23,1.33,1.33,0,0,0-.34,1.12V215q1-.16,1.9-0.37V204.26q-1.26,0-2.19,0t-1.6.11v-1.1q0.69,0.07,1.65.11t2.25,0q1.31,0,2.26,0t1.64-.11v1.1l-1.29-.09-1.68-.05v4.59Zm4.16-2.66a10.81,10.81,0,0,1-1.28,2.07,2.37,2.37,0,0,0-.57-0.29,5,5,0,0,0-.64-0.17,12.52,12.52,0,0,0,2-3.06,10.12,10.12,0,0,0,.86-3.34l0.63,0.18q0.36,0.09.72,0.14a0.28,0.28,0,0,1,.25.15,0.23,0.23,0,0,1-.12.24,1.83,1.83,0,0,0-.44.53,5.1,5.1,0,0,0-.39.92q-0.12.41-.28,0.83t-0.35.87h3.51l1.59,0a4.4,4.4,0,0,0,.95-0.11v1.17a3,3,0,0,0-.66-0.09l-1,0q-0.14,1.28-.32,2.27a18.32,18.32,0,0,1-.41,1.8,9.87,9.87,0,0,1-.53,1.45,10.73,10.73,0,0,1-.67,1.23q0.46,0.57.89,1a8.6,8.6,0,0,0,.91.82,10,10,0,0,0,1.07.73q0.58,0.35,1.36.74a1.37,1.37,0,0,0-.29.2l-0.29.27a2.87,2.87,0,0,0-.26.29,1.66,1.66,0,0,0-.17.26q-0.51-.32-1-0.72t-1-.85q-0.5-.45-0.95-0.93t-0.84-1a11.49,11.49,0,0,1-2.18,2.08,14.51,14.51,0,0,1-2.46,1.44,3.26,3.26,0,0,0-.5-0.5,4.38,4.38,0,0,0-.71-0.48,9,9,0,0,0,2.93-1.26A10.09,10.09,0,0,0,3586,213q-0.32-.44-0.65-1t-0.62-1.17q-0.29-.61-0.54-1.25t-0.43-1.26l0.87-.3a8.91,8.91,0,0,0,.33,1.08,11.39,11.39,0,0,0,.46,1.07q0.26,0.52.56,1t0.62,0.92a10.33,10.33,0,0,0,1-2.56,14.73,14.73,0,0,0,.46-3.36h-3.69Z" transform="translate(-3031.26 -137.81)"/></svg>