<svg id="School" xmlns="http://www.w3.org/2000/svg" width="72" height="72" viewBox="0 0 72 72"><defs><style>.cls-1{fill:#00a9e0;fill-opacity:0;stroke:#007da7;stroke-linejoin:round;stroke-width:2px}.cls-2{fill:#007da7;fill-rule:evenodd}</style></defs><circle id="Circle" class="cls-1" cx="36" cy="36" r="35"/><path id="Forma_1" data-name="Forma 1" class="cls-2" d="M175 1356.41a3.62 3.62 0 0 0 3.642 3.59h26.335v-1.59h-1.686v-3.99h1.686v-.7H207v-1.59h-1.214v-3.99H207v-1.59h-1.315v-1.36l-2-3.69h2.1v-2.14l-5.281-6.36h-18.632l-4.805 7.46a3.55 3.55 0 0 0-1.359 2.77 3.574 3.574 0 0 1 1.315 6.91 3.549 3.549 0 0 0 1.3 2.72 3.6 3.6 0 0 0-3.323 3.55zm2.327-13.18a1.984 1.984 0 0 1 1.034-1.73h24.12v3.72H179.35a2.007 2.007 0 0 1-2.023-1.99zm3.338 4.91h23.5v3.99h-23.5a2 2 0 1 1 0-3.99zm-2.023 6.28h23.03v3.99h-23.03a2 2 0 1 1 0-3.99z" transform="translate(-154 -1312)"/></svg>