<svg xmlns="http://www.w3.org/2000/svg" width="48" height="48" viewBox="0 0 48 48"><path fill-rule="evenodd" fill="#FFF" d="M20 39.999C8.956 39.999.001 31.046.001 20 .001 8.955 8.956.001 20 .001 31.045.001 39.999 8.955 39.999 20c0 11.046-8.954 19.999-19.999 19.999zm10.599-25.424c-.281-1.221-1.281-2.121-2.486-2.255-2.85-.318-5.736-.32-8.609-.318-2.873-.002-5.759 0-8.61.318-1.204.134-2.203 1.035-2.484 2.255-.401 1.738-.406 3.636-.406 5.425 0 1.79 0 3.687.401 5.426.281 1.22 1.281 2.12 2.484 2.254 2.852.319 5.737.32 8.611.319 2.873.001 5.758 0 8.609-.319 1.203-.134 2.203-1.034 2.485-2.254.401-1.739.402-3.636.402-5.426 0-1.789.004-3.686-.397-5.425zm-14.066 1.398l7.31 3.807-7.31 3.783v-7.59z"/></svg>